<svg xmlns="http://www.w3.org/2000/svg" viewBox="0 0 512 512"><defs><style>.cls-1{fill:#7cc8fb;}.cls-2{fill:#fff;}.cls-3{fill:#e2e2e2;}.cls-4{fill:#b0d46c;}.cls-5{fill:#a0c157;}.cls-6{fill:#cfea94;}.cls-7{fill:#e4efc2;}</style></defs><title>Insurance</title><g id="BULINE"><circle class="cls-1" cx="256" cy="256" r="256"/></g><g id="Icons"><path class="cls-2" d="M212,234.71H189.21c7.59-1.5,13.22-6.92,13.22-13.4h0c0-7.64-7.81-13.83-17.45-13.83H164.92c7.2-1.7,12.44-7,12.44-13.24,0-7.64-7.81-13.83-17.44-13.83h-129c-9.64,0-17.45,6.19-17.45,13.83s7.81,13.83,17.45,13.83H51c-7.19,1.7-12.44,7-12.44,13.24h0c0,7.64,7.81,13.83,17.45,13.83h22.8c-7.58,1.5-13.21,6.92-13.21,13.4,0,7.63,7.81,13.82,17.45,13.82H212c9.63,0,17.44-6.19,17.44-13.82S221.65,234.71,212,234.71Z"/><path class="cls-3" d="M42.91,208.07h-12c-9.64,0-17.45-6.19-17.45-13.83s7.81-13.83,17.45-13.83h12c-9.64,0-17.45,6.19-17.45,13.83S33.27,208.07,42.91,208.07Z"/><path class="cls-3" d="M68,235.14H56a19.94,19.94,0,0,1-12.34-4,12.53,12.53,0,0,1-5.11-9.78c0-6.26,5.25-11.54,12.44-13.24H63c-7.19,1.7-12.44,7-12.44,13.24a12.53,12.53,0,0,0,5.11,9.78A19.94,19.94,0,0,0,68,235.14Z"/><path class="cls-3" d="M95,262.36H83c-9.63,0-17.44-6.19-17.44-13.82,0-6.48,5.62-11.9,13.21-13.4h12c-7.59,1.5-13.21,6.92-13.21,13.4C77.56,256.17,85.37,262.36,95,262.36Z"/><path class="cls-2" d="M297.35,234.71h22.8c-7.59-1.5-13.21-6.92-13.21-13.4h0c0-7.64,7.81-13.83,17.44-13.83h20.06c-7.19-1.7-12.44-7-12.44-13.24,0-7.64,7.81-13.83,17.45-13.83h129c9.63,0,17.44,6.19,17.44,13.83s-7.81,13.83-17.44,13.83H458.4c7.19,1.7,12.44,7,12.44,13.24h0c0,7.64-7.81,13.83-17.45,13.83h-22.8c7.59,1.5,13.21,6.92,13.21,13.4,0,7.63-7.81,13.82-17.44,13.82h-129c-9.64,0-17.45-6.19-17.45-13.82S287.71,234.71,297.35,234.71Z"/><path class="cls-3" d="M466.45,208.07h12c9.64,0,17.45-6.19,17.45-13.83s-7.81-13.83-17.45-13.83h-12c9.64,0,17.45,6.19,17.45,13.83S476.09,208.07,466.45,208.07Z"/><path class="cls-3" d="M441.39,235.14h12a19.94,19.94,0,0,0,12.34-4,12.53,12.53,0,0,0,5.11-9.78c0-6.26-5.25-11.54-12.44-13.24h-12c7.19,1.7,12.44,7,12.44,13.24a12.53,12.53,0,0,1-5.11,9.78A19.94,19.94,0,0,1,441.39,235.14Z"/><path class="cls-3" d="M414.36,262.36h12c9.63,0,17.44-6.19,17.44-13.82,0-6.48-5.62-11.9-13.21-13.4h-12c7.59,1.5,13.21,6.92,13.21,13.4C431.8,256.17,424,262.36,414.36,262.36Z"/><path class="cls-4" d="M380.65,205.15,368.77,347.44c-3.2,38.26-74.32,69.72-103,80.89a32.71,32.71,0,0,1-23.64,0c-28.67-11.17-99.79-42.63-103-80.89L127.28,205.15c-.93-11.23,5.94-21.74,17-25.91,26.88-10.15,76-30.88,99.85-54.8a14,14,0,0,1,19.69,0c23.85,23.92,73,44.65,99.84,54.8C374.71,183.41,381.58,193.92,380.65,205.15Z"/><path class="cls-5" d="M254,120.41V430.54a32.65,32.65,0,0,1-11.82-2.21c-28.67-11.17-99.79-42.63-103-80.89L127.28,205.15c-.93-11.23,5.94-21.74,17-25.91,26.88-10.15,76-30.88,99.85-54.8A13.84,13.84,0,0,1,254,120.41Z"/><path class="cls-6" d="M262.07,151.17a11.57,11.57,0,0,0-16.21,0c-19.64,19.69-60.05,36.75-82.18,45.1-9.09,3.44-14.75,12.08-14,21.32l9.77,117.12c2.63,31.48,61.17,57.37,84.76,66.57a26.88,26.88,0,0,0,19.46,0c23.6-9.2,82.13-35.09,84.76-66.57l9.77-117.12c.78-9.24-4.88-17.88-14-21.32C322.12,187.92,281.7,170.86,262.07,151.17Z"/><path class="cls-4" d="M254,147.86V403.1a26.87,26.87,0,0,1-9.73-1.82c-23.59-9.19-82.13-35.09-84.76-66.57L149.7,217.59c-.77-9.23,4.89-17.89,14-21.32,22.13-8.35,62.54-25.41,82.18-45.1A11.39,11.39,0,0,1,254,147.86Z"/><circle class="cls-7" cx="331.78" cy="217.53" r="12.79"/><circle class="cls-7" cx="309.03" cy="203.66" r="9.06"/></g></svg>