<svg xmlns="http://www.w3.org/2000/svg" viewBox="0 0 512 512"><defs><style>.cls-1{fill:#7cc8fb;}.cls-2{fill:#ffb583;}.cls-3{fill:#fca870;}.cls-4{fill:#fc9651;}.cls-5{fill:#e8823d;}.cls-6{fill:#fff;}.cls-7{fill:#f9cbac;}.cls-8{fill:#b0d46c;}.cls-9{fill:#a0c157;}.cls-10{fill:#cfea94;}.cls-11{fill:#e4efc2;}</style></defs><title>Insurance</title><g id="BULINE"><circle class="cls-1" cx="256" cy="256" r="256"/></g><g id="Icons"><path class="cls-2" d="M121.64,118H377.59a15.81,15.81,0,0,1,15.81,15.81V374.26a15.81,15.81,0,0,1-15.81,15.81H121.64a0,0,0,0,1,0,0V118A0,0,0,0,1,121.64,118Z"/><path class="cls-3" d="M393.41,358.44v15.82a15.81,15.81,0,0,1-15.82,15.81H121.64V118h33.21V308.56a49.88,49.88,0,0,0,49.88,49.88Z"/><path class="cls-4" d="M56.9,118h64.75a0,0,0,0,1,0,0V390.07a0,0,0,0,1,0,0H56.9a15.81,15.81,0,0,1-15.81-15.81V133.82A15.81,15.81,0,0,1,56.9,118Z"/><path class="cls-5" d="M121.64,372.68v17.39H56.9a15.8,15.8,0,0,1-15.81-15.81V133.82A15.8,15.8,0,0,1,56.9,118h.69V356.87A15.81,15.81,0,0,0,73.4,372.68Z"/><path class="cls-6" d="M220.16,118h74.73a0,0,0,0,1,0,0v81.1a8.08,8.08,0,0,1-8.08,8.08H228.24a8.08,8.08,0,0,1-8.08-8.08V118a0,0,0,0,1,0,0Z"/><circle class="cls-7" cx="369.14" cy="148.38" r="12.44"/><circle class="cls-7" cx="369.14" cy="175.18" r="7.52"/><path class="cls-8" d="M471.09,228.28l-7.29,87.25c-2,23.45-45.57,42.75-63.15,49.6a20.12,20.12,0,0,1-14.49,0C368.58,358.28,325,339,323,315.53l-7.28-87.25a15.71,15.71,0,0,1,10.42-15.89c16.48-6.22,46.59-18.93,61.22-33.6a8.61,8.61,0,0,1,12.07,0c14.63,14.67,44.74,27.38,61.23,33.6A15.73,15.73,0,0,1,471.09,228.28Z"/><path class="cls-9" d="M393.41,176.32V366.48a20,20,0,0,1-7.25-1.35C368.58,358.28,325,339,323,315.53l-7.28-87.25a15.71,15.71,0,0,1,10.42-15.89c16.48-6.22,46.59-18.93,61.22-33.6A8.49,8.49,0,0,1,393.41,176.32Z"/><path class="cls-10" d="M398.37,195.18a7.08,7.08,0,0,0-9.93,0c-12,12.07-36.82,22.53-50.39,27.65a13,13,0,0,0-8.58,13.08l6,71.81c1.61,19.3,37.5,35.18,52,40.82a16.48,16.48,0,0,0,11.93,0c14.47-5.64,50.36-21.52,52-40.82l6-71.81a13,13,0,0,0-8.58-13.08C435.2,217.71,410.41,207.25,398.37,195.18Z"/><path class="cls-8" d="M393.41,193.15V349.66a16.55,16.55,0,0,1-6-1.12c-14.47-5.64-50.36-21.51-52-40.82l-6-71.81a13,13,0,0,1,8.58-13.08c13.56-5.12,38.35-15.58,50.39-27.65A7,7,0,0,1,393.41,193.15Z"/><circle class="cls-11" cx="441.12" cy="235.87" r="7.84"/><circle class="cls-11" cx="427.17" cy="227.37" r="5.55"/></g></svg>