<svg xmlns="http://www.w3.org/2000/svg" viewBox="0 0 512 512"><defs><style>.cls-1{fill:#934cf5;}.cls-2{fill:#b0d46c;}.cls-3{fill:#a0c157;}.cls-4{fill:#cfea94;}.cls-5{fill:#e4efc2;}.cls-6{fill:#fcc8bc;}.cls-7{fill:#fab3a7;}.cls-8{fill:#fff9f8;}</style></defs><title>Insurance</title><g id="BULINE"><circle class="cls-1" cx="256" cy="256" r="256"/></g><g id="Icons"><path class="cls-2" d="M328.72,216.11l-6.64,79.61c-1.79,21.4-41.58,39-57.62,45.25a18.26,18.26,0,0,1-13.23,0c-16-6.25-55.82-23.85-57.61-45.25L187,216.11a14.34,14.34,0,0,1,9.51-14.49c15-5.68,42.51-17.27,55.86-30.66a7.87,7.87,0,0,1,11,0c13.34,13.39,40.82,25,55.85,30.66A14.33,14.33,0,0,1,328.72,216.11Z"/><path class="cls-3" d="M257.85,168.71v173.5a18.37,18.37,0,0,1-6.62-1.24c-16-6.25-55.82-23.85-57.61-45.25L187,216.11a14.34,14.34,0,0,1,9.51-14.49c15-5.68,42.51-17.27,55.86-30.66A7.78,7.78,0,0,1,257.85,168.71Z"/><path class="cls-4" d="M262.38,185.92a6.46,6.46,0,0,0-9.07,0c-11,11-33.59,20.56-46,25.23a11.79,11.79,0,0,0-7.82,11.92L205,288.6c1.47,17.61,34.21,32.09,47.41,37.24a15,15,0,0,0,10.89,0c13.2-5.15,45.95-19.63,47.42-37.24l5.47-65.53a11.81,11.81,0,0,0-7.82-11.92C296,206.48,273.37,196.93,262.38,185.92Z"/><path class="cls-2" d="M257.85,184.06v142.8a15,15,0,0,1-5.45-1c-13.2-5.14-46-19.63-47.41-37.25l-5.47-65.52a11.79,11.79,0,0,1,7.82-11.92c12.38-4.67,35-14.22,46-25.23A6.4,6.4,0,0,1,257.85,184.06Z"/><circle class="cls-5" cx="301.38" cy="223.04" r="7.15"/><circle class="cls-5" cx="288.65" cy="215.28" r="5.07"/><path class="cls-6" d="M452,374.86a19,19,0,0,1-.46,4.11c-1.34,6.13-5.47,12.85-10.61,19.45-8.75,11.28-50.59,63.41-74.63,65.52-3.88.34-148.76,4.76-248.23,7.78a257.28,257.28,0,0,1-76.87-76.38c56-2,118.38-5.06,129.83-10.11,10.59-4.67,19.25-14.82,30.29-19.73a82.69,82.69,0,0,1,36.48-7.24c14.76.51,20,6.48,32.44,12.15,7.21,3.3,42,1.88,51.72,1.65,9.15-.22,21.44-2.46,29.75,2.26a20.64,20.64,0,0,1-9.45,38.57c6.31-.13,13.25.42,19.45-.44,11.59-1.57,47.84-38.62,59.26-50C432.06,351.55,452,359,452,374.86Z"/><path class="cls-7" d="M361.53,397.31a20.56,20.56,0,0,0-9.4-11.69c-8.3-4.72-20.6-2.48-29.75-2.26-9.72.23-44.5,1.66-51.71-1.64C258.25,376,253,370.08,238.23,369.56a82.71,82.71,0,0,0-36.49,7.25c-11,4.91-19.69,15.05-30.29,19.72-11,4.83-68.64,7.86-122.64,9.85q-3.93-5.42-7.59-11c56-2,118.38-5.06,129.83-10.11,10.59-4.67,19.25-14.82,30.29-19.73a82.69,82.69,0,0,1,36.48-7.24c14.76.51,20,6.48,32.44,12.15,7.21,3.3,42,1.88,51.72,1.65,9.15-.22,21.44-2.46,29.75,2.26A20.83,20.83,0,0,1,361.53,397.31Z"/><path class="cls-7" d="M362.18,392.48A20.63,20.63,0,0,1,342,413.61l-69.67,1.61c.26-.36.53-.72.78-1.08a17.78,17.78,0,0,1,14.15-7.45l54.55-1.26a20.62,20.62,0,0,0,19.37-15,16,16,0,0,0,.48-2A19.62,19.62,0,0,1,362.18,392.48Z"/><path class="cls-8" d="M341.05,380.79h10.12a3.54,3.54,0,0,1,3.54,3.54v17.3a3.54,3.54,0,0,1-3.54,3.54H341.05a8.23,8.23,0,0,1-8.23-8.23V389a8.23,8.23,0,0,1,8.23-8.23Z" transform="translate(-9.02 8.07) rotate(-1.33)"/><path class="cls-8" d="M441,398.42,436.52,395A8.22,8.22,0,0,1,435,383.47l6.17-8a3.54,3.54,0,0,1,5-.65l5.42,4.17C450.22,385.1,446.09,391.82,441,398.42Z"/><path class="cls-6" d="M475.37,124c-57.08,2-122.65,5.08-134.42,10.27-10.59,4.67-19.25,14.81-30.29,19.72a82.56,82.56,0,0,1-36.48,7.25c-14.76-.52-20-6.48-32.44-12.16-7.21-3.3-42-1.87-51.72-1.64-9.15.22-21.44,2.46-29.75-2.26a20.64,20.64,0,0,1,9.45-38.57c-6.31.13-13.25-.42-19.45.43-11.59,1.58-47.84,38.63-59.26,50-11.07,10.92-31,3.49-31-12.39a19,19,0,0,1,.46-4.11c1.34-6.13,5.47-12.86,10.61-19.45,8.75-11.28,50.59-63.41,74.63-65.52,4-.35,159.4-5.08,258.81-8.09A257.24,257.24,0,0,1,475.37,124Z"/><path class="cls-7" d="M475.37,124c-57.08,2-122.65,5.08-134.42,10.27-10.59,4.67-19.25,14.81-30.29,19.72a82.56,82.56,0,0,1-36.48,7.25c-14.76-.52-20-6.48-32.44-12.16-7.21-3.3-42-1.87-51.72-1.64-9.15.22-21.44,2.46-29.75-2.26a20.83,20.83,0,0,1-9.8-23,20.51,20.51,0,0,0,9.4,11.68c8.3,4.72,20.6,2.49,29.75,2.27,9.72-.24,44.5-1.66,51.71,1.64,12.42,5.68,17.69,11.64,32.44,12.16a82.71,82.71,0,0,0,36.49-7.25c11-4.91,19.69-15,30.29-19.72,11.31-5,72.34-8,127.75-10Q472,118.34,475.37,124Z"/><path class="cls-7" d="M149.82,127A20.63,20.63,0,0,1,170,105.87l69.67-1.62c-.26.36-.53.72-.78,1.09a17.81,17.81,0,0,1-14.15,7.45l-54.55,1.26a20.61,20.61,0,0,0-19.37,15,15.66,15.66,0,0,0-.48,2A19.62,19.62,0,0,1,149.82,127Z"/><path class="cls-8" d="M165.52,114.3h10.12a3.54,3.54,0,0,1,3.54,3.54v17.3a3.54,3.54,0,0,1-3.54,3.54H165.52a8.23,8.23,0,0,1-8.23-8.23v-7.93a8.23,8.23,0,0,1,8.23-8.23Z" transform="translate(339.35 249.05) rotate(178.67)"/><path class="cls-8" d="M71.05,121.06l4.43,3.41A8.22,8.22,0,0,1,77,136l-6.17,8a3.54,3.54,0,0,1-5,.65l-5.42-4.17C61.78,134.38,65.91,127.65,71.05,121.06Z"/></g></svg>