<svg xmlns="http://www.w3.org/2000/svg" viewBox="0 0 512 512"><defs><style>.cls-1{fill:#f7bb38;}.cls-2{fill:#fcc8bc;}.cls-3{fill:#fab3a7;}.cls-4{fill:#fff9f8;}.cls-5{fill:#fff;}.cls-6{fill:#dfe0de;}.cls-7{fill:#db1b1b;}.cls-8{fill:#a65c3b;}.cls-9{fill:#c41c1c;}.cls-10{fill:#f55b4b;}</style></defs><title>Insurance</title><g id="BULINE"><circle class="cls-1" cx="256" cy="256" r="256"/></g><g id="Icons"><path class="cls-2" d="M185.42,502.14A254.91,254.91,0,0,1,115,469.67C89.51,408.9,54.89,326.19,54.06,323.83c-5.36-15.18,14.73-55,19.16-63.39,2.59-4.93,5.53-9.3,8.88-11.8a12.27,12.27,0,0,1,2.36-1.41c9.64-4.39,19.66,5.68,16.09,15.41-3.74,10.07-16.22,42.29-14,49.76,1.2,4,3.44,8.06,5.11,11.92A13.76,13.76,0,0,1,112.48,308c5.15,3.73,7.19,11.81,9.58,17.42,2.55,6,11.28,27.47,15.28,30.94,6.87,6,11.94,7.52,16.33,16.33a55.08,55.08,0,0,1,5.67,24.14c.07,8.06-3.7,16.11-3.6,23.83C155.84,429,171.18,467.65,185.42,502.14Z"/><path class="cls-3" d="M125.28,476.16Q120,473,115,469.67C89.51,408.9,54.89,326.19,54.06,323.83c-5.36-15.18,14.73-55,19.16-63.39,2.59-4.93,5.53-9.3,8.88-11.8A11.67,11.67,0,0,1,93.37,247a4.74,4.74,0,0,1,1.51.72,12.17,12.17,0,0,0-4.64,2.19c-3.36,2.5-6.3,6.87-8.88,11.8-4.43,8.43-24.52,48.21-19.16,63.39C63.05,327.5,99.69,415,125.28,476.16Z"/><path class="cls-3" d="M98.57,306.61a13.76,13.76,0,0,0-7.26,18.07l18.26,42.73c.14-.26.29-.52.44-.77a11.9,11.9,0,0,0,.61-10.65L96.33,322.54a13.75,13.75,0,0,1,3.74-15.89,10.28,10.28,0,0,1,1.11-.86A13.84,13.84,0,0,0,98.57,306.61Z"/><path class="cls-4" d="M101.53,309.8h6.75a2.36,2.36,0,0,1,2.36,2.36V323.7a2.36,2.36,0,0,1-2.36,2.36h-6.75A5.49,5.49,0,0,1,96,320.57v-5.29A5.49,5.49,0,0,1,101.53,309.8Z" transform="translate(-148.43 537.86) rotate(-113.13)"/><path class="cls-4" d="M73.22,260.44l3.29,1.75a5.47,5.47,0,0,0,7.42-2.27l3.17-6a2.37,2.37,0,0,0-1-3.2l-4-2.13C78.75,251.14,75.81,255.51,73.22,260.44Z"/><path class="cls-2" d="M458.27,318.28c-.66,2.33-28.38,81.87-49.83,143.4a255.3,255.3,0,0,1-68.18,36.12c11.41-33.51,22.81-68.89,22.43-76.71s-4.63-15.52-5.06-23.56a55.21,55.21,0,0,1,4.19-24.45c3.84-9.06,8.81-10.92,15.31-17.29,3.77-3.71,11.18-25.7,13.36-31.81,2-5.75,3.58-13.94,8.5-18a13.76,13.76,0,0,1,21.76,15.08c1.43-4,3.42-8.15,4.37-12.22,1.79-7.59-12.64-39-17-48.82-4.16-9.49,5.23-20.15,15.12-16.36a12.3,12.3,0,0,1,2.44,1.26c3.5,2.3,6.71,6.48,9.59,11.25C440.21,264.33,462.69,302.81,458.27,318.28Z"/><path class="cls-3" d="M415.64,305.38a13.63,13.63,0,0,0-9.51,3.06c-4.92,4.05-6.46,12.23-8.51,18-2.17,6.11-9.58,28.11-13.36,31.81-6.49,6.37-11.46,8.23-15.3,17.3A54.87,54.87,0,0,0,364.77,400c.42,8,4.67,15.85,5.05,23.56.37,7.38-9.74,39.22-20.46,70.91q-4.51,1.76-9.1,3.36c11.41-33.51,22.81-68.89,22.43-76.71s-4.63-15.52-5.06-23.56a55.21,55.21,0,0,1,4.19-24.45c3.84-9.06,8.81-10.92,15.31-17.29,3.77-3.71,11.18-25.7,13.36-31.81,2-5.75,3.58-13.94,8.5-18A13.88,13.88,0,0,1,415.64,305.38Z"/><path class="cls-3" d="M412.79,303.82a13.76,13.76,0,0,1,8.35,17.59l-15.61,43.77c-.17-.25-.33-.51-.5-.75a11.89,11.89,0,0,1-1.25-10.59L416,319.58a13.76,13.76,0,0,0-4.7-15.64,13.05,13.05,0,0,0-1.16-.78A12.54,12.54,0,0,1,412.79,303.82Z"/><path class="cls-4" d="M406.91,307.27h6.75a2.36,2.36,0,0,1,2.36,2.36v11.54a2.36,2.36,0,0,1-2.36,2.36h-6.75a5.49,5.49,0,0,1-5.49-5.49v-5.29a5.49,5.49,0,0,1,5.49-5.49Z" transform="translate(-25.68 594.39) rotate(-70.37)"/><path class="cls-4" d="M435.28,256.19l-3.18,1.95a5.49,5.49,0,0,1-7.55-1.82L421,250.57a2.37,2.37,0,0,1,.78-3.25l3.88-2.38C429.19,247.24,432.4,251.42,435.28,256.19Z"/><rect class="cls-5" x="146.83" y="61.59" width="32.79" height="49.61"/><path class="cls-5" d="M373,114.83V286.68H139V114.83L249.53,55.05a13.84,13.84,0,0,1,12.94,0Z"/><path class="cls-6" d="M373,126.71v30L263.45,93.84a14.91,14.91,0,0,0-14.9,0L139,156.7v-30L249.53,63.29a13.31,13.31,0,0,1,4.78-1.6,14.7,14.7,0,0,1,3.38,0l.62.1c.42.07.82.16,1.23.27a13.68,13.68,0,0,1,2.93,1.23Z"/><path class="cls-7" d="M404,137.18A13,13,0,0,1,386.25,142L373,134.38,263.45,71.51a14.91,14.91,0,0,0-14.9,0L139,134.38,125.75,142a13,13,0,0,1-12.94-22.56L139,104.38,249.53,41a13.2,13.2,0,0,1,12.94,0L373,104.38l26.21,15.05A13,13,0,0,1,404,137.18Z"/><rect class="cls-8" x="139.02" y="265.5" width="15.16" height="21.18"/><rect class="cls-8" x="139.02" y="224.58" width="15.16" height="21.18"/><rect class="cls-8" x="139.02" y="183.66" width="15.16" height="21.18"/><rect class="cls-8" x="358.06" y="265.5" width="15.16" height="21.18"/><rect class="cls-8" x="358.06" y="224.58" width="15.16" height="21.18"/><rect class="cls-8" x="358.06" y="183.66" width="15.16" height="21.18"/><path class="cls-7" d="M233.74,180.77h44.53a4.69,4.69,0,0,1,4.69,4.69V286.68a0,0,0,0,1,0,0H229a0,0,0,0,1,0,0V185.47A4.69,4.69,0,0,1,233.74,180.77Z"/><path class="cls-9" d="M243.48,180.78a4.69,4.69,0,0,0-4.69,4.69V286.68H229V185.47a4.69,4.69,0,0,1,4.7-4.69Z"/><rect class="cls-7" x="160.92" y="180.77" width="51.03" height="55.36" rx="5.54"/><rect class="cls-7" x="296.68" y="180.77" width="51.03" height="55.36" rx="5.54"/><rect class="cls-8" x="136.14" y="45.5" width="54.16" height="16.09" rx="4.44"/><path class="cls-7" d="M256,102.54A25.5,25.5,0,1,0,281.5,128,25.5,25.5,0,0,0,256,102.54Zm0,42.72A17.22,17.22,0,1,1,273.21,128,17.21,17.21,0,0,1,256,145.26Z"/><rect class="cls-6" x="130.5" y="286.68" width="250.47" height="16.47" rx="3.9"/><circle class="cls-10" cx="333.91" cy="207.43" r="7.1"/><circle class="cls-10" cx="333.91" cy="192.64" r="5.03"/></g></svg>