<svg xmlns="http://www.w3.org/2000/svg" viewBox="0 0 512 512"><defs><style>.cls-1{fill:#3586cb;}.cls-2{fill:#9e4830;}.cls-3{fill:#b0d46c;}.cls-4{fill:#a0c157;}.cls-5{fill:#cfea94;}.cls-6{fill:#e4efc2;}.cls-7{fill:#fab3a7;}.cls-8{fill:#f58d89;}.cls-9{fill:#27273d;}.cls-10{fill:#dd7c7c;}.cls-11{fill:#4f4f74;}.cls-12{fill:#f9dcd7;}.cls-13{fill:#fff;}.cls-14{fill:#e0e0e0;}.cls-15{fill:#3e436d;}</style></defs><title>Insurance</title><g id="BULINE"><circle class="cls-1" cx="256" cy="256" r="256"/></g><g id="Icons"><path class="cls-2" d="M336,94.05l-.24,6.9-1.32,37.83h0l-.64,18.43H144.91l-.65-18.84L143,101.43l-.26-7.38a76.86,76.86,0,0,1,76.82-79.53h39.62A76.86,76.86,0,0,1,336,94.05Z"/><path class="cls-3" d="M462.76,233.4l-5.05,60.52c-1.36,16.27-31.61,29.65-43.8,34.4a13.9,13.9,0,0,1-10.05,0c-12.2-4.75-42.44-18.13-43.8-34.4L355,233.4a10.9,10.9,0,0,1,7.22-11c11.44-4.31,32.32-13.13,42.47-23.3a6,6,0,0,1,8.37,0c10.15,10.17,31,19,42.46,23.3A10.91,10.91,0,0,1,462.76,233.4Z"/><path class="cls-4" d="M408.88,197.37V329.26a13.93,13.93,0,0,1-5-.94c-12.2-4.75-42.44-18.13-43.8-34.4L355,233.4a10.9,10.9,0,0,1,7.22-11c11.44-4.31,32.32-13.13,42.47-23.3A5.89,5.89,0,0,1,408.88,197.37Z"/><path class="cls-5" d="M412.33,210.45a4.91,4.91,0,0,0-6.89,0c-8.35,8.37-25.54,15.63-34.95,19.18a9,9,0,0,0-5.95,9.06l4.16,49.81c1.12,13.39,26,24.4,36.05,28.31a11.45,11.45,0,0,0,8.27,0c10-3.91,34.93-14.92,36.05-28.31l4.15-49.81a9,9,0,0,0-5.94-9.06C437.87,226.08,420.68,218.82,412.33,210.45Z"/><path class="cls-3" d="M408.88,209V317.59a11.3,11.3,0,0,1-4.13-.78c-10-3.91-34.93-14.92-36.05-28.31l-4.16-49.81a9,9,0,0,1,5.95-9.06c9.41-3.55,26.6-10.81,34.95-19.18A4.83,4.83,0,0,1,408.88,209Z"/><circle class="cls-6" cx="441.98" cy="238.67" r="5.44"/><circle class="cls-6" cx="432.3" cy="232.77" r="3.85"/><path class="cls-7" d="M364.51,409c-70.69,48.9-166,52.05-239.68,9.37A28.86,28.86,0,0,1,111,387.59c10.36-50,28.73-97.9,83.21-113.52h0c18.79-5.31,23.56-12.07,20.3-33.32C214.22,223,244.45,212.33,260,223.8c10.5,7.73-.25,20.3,3.35,31.47,4.41,13.71,8.44,11,19,18.6,11.7,8.44,26.12,12.11,37.54,22.58,31.34,28.74,39.24,72.39,44.63,112.58C361.25,411.29,357.33,355.56,364.51,409Z"/><path class="cls-7" d="M322.28,105.76v56.78c0,42.36-33.72,55.92-58.29,77.46a37.83,37.83,0,0,1-50.38,0c-24.57-21.54-58.28-35.1-58.28-77.46V105.76c0-.18,0-.38,0-.57.19-29.63,16.09-55.3,39.31-68.1.75-.42,20.47-8.19,30.56-8.62,1,0,2-.07,3-.07h21.14a70.07,70.07,0,0,1,46.35,17.65,71.27,71.27,0,0,1,5.58,5.42,79.3,79.3,0,0,1,20.86,50h0C322.24,102.88,322.28,104.31,322.28,105.76Z"/><path class="cls-8" d="M188.64,162.54V105.76c0-40.54,29.39-73.81,66.81-77.09-2-.19-4-.27-6.09-.27H228.23c-40.26,0-72.9,34.64-72.9,77.36v28.11a16.71,16.71,0,0,0,0,33.41h.16c2.43,38.66,34.48,52,58.12,72.72a37.68,37.68,0,0,0,41.84,5.71,38.79,38.79,0,0,1-8.53-5.71C222.34,218.46,188.64,204.89,188.64,162.54Z"/><circle class="cls-7" cx="322.27" cy="150.57" r="16.7"/><path class="cls-9" d="M217,127.19a3,3,0,0,1-1.66-.49c-16.38-10.56-35.9,0-36.09.11a3.06,3.06,0,0,1-3-5.35c.93-.52,22.89-12.48,42.39.1a3.06,3.06,0,0,1-1.66,5.63Z"/><path class="cls-9" d="M298.14,127.19a2.94,2.94,0,0,1-1.65-.49c-16.38-10.56-35.9,0-36.1.11a3.06,3.06,0,0,1-3-5.35c.92-.52,22.88-12.48,42.38.1a3.06,3.06,0,0,1-1.66,5.63Z"/><path class="cls-10" d="M155.81,143.93a6.65,6.65,0,0,0,0,13.29Z"/><path class="cls-8" d="M321.46,157.22a6.65,6.65,0,1,0,0-13.29Z"/><ellipse class="cls-9" cx="197.4" cy="148.56" rx="6.98" ry="10.05"/><path class="cls-9" d="M210.09,144.22a3,3,0,0,1-1.52-.41,22.5,22.5,0,0,0-22.23-.06,3.06,3.06,0,0,1-3.26-5.18c.55-.35,13.78-8.5,28.53-.07a3.06,3.06,0,0,1-1.52,5.72Z"/><ellipse class="cls-9" cx="278.25" cy="148.56" rx="6.98" ry="10.05"/><path class="cls-9" d="M290.93,144.22a3,3,0,0,1-1.51-.41,22.52,22.52,0,0,0-22.24-.06,3.06,3.06,0,0,1-3.26-5.18c.56-.35,13.78-8.5,28.53-.07a3.06,3.06,0,0,1-1.52,5.72Z"/><path class="cls-11" d="M367.94,381.28v105a256.26,256.26,0,0,1-257.19-19.45V381.28a111.5,111.5,0,0,1,86.74-108.71,41.95,41.95,0,0,0,83.71,0A111.5,111.5,0,0,1,367.94,381.28Z"/><path class="cls-12" d="M262.56,392.31h23.5a19,19,0,0,1,19,19v22a19,19,0,0,1-19,19h-23.5a0,0,0,0,1,0,0v-60A0,0,0,0,1,262.56,392.31Z"/><rect class="cls-13" x="97.06" y="382.81" width="175" height="76" rx="22.25"/><path class="cls-14" d="M116.31,382.81s-.21,40,21.34,57.58a2.49,2.49,0,0,0,4-2.57c-3.21-12.64-7.29-40.59,13.95-55Z"/><path class="cls-14" d="M181.56,382.81s-.21,40,21.34,57.58a2.49,2.49,0,0,0,4-2.57c-3.21-12.64-7.29-40.59,13.95-55Z"/><path class="cls-14" d="M146.56,458.81h38s-28-39.5-8.5-76C176.06,382.81,141.56,409.31,146.56,458.81Z"/><path class="cls-14" d="M217.81,458.81h35s-25-39.5-5.5-76C247.31,382.81,212.81,409.31,217.81,458.81Z"/><path class="cls-15" d="M165.32,347.48h0a8.35,8.35,0,0,1,8.35,8.35v27a0,0,0,0,1,0,0H157a0,0,0,0,1,0,0v-27A8.35,8.35,0,0,1,165.32,347.48Z"/><path class="cls-13" d="M287.37,276.74c-10,17.6-51.51,85.81-105.81,106.07h65.75s53.89-51.87,59.31-104.94c0,0-1.19-7.33-8.69-7.41A12.15,12.15,0,0,0,287.37,276.74Z"/><rect class="cls-8" x="228.45" y="168.08" width="23.29" height="8.83" rx="4.05"/><path class="cls-2" d="M333.4,100.21a89,89,0,0,0-23.13-51.82,33.8,33.8,0,0,0-.83-7.47A34.2,34.2,0,0,0,304,42.28a78.88,78.88,0,0,0-52.16-19.86H228c-1.14,0-2.27,0-3.4.08a77.56,77.56,0,0,0-31.82,8.34c-.43-.31-.87-.61-1.31-.9-.45.74-.87,1.5-1.26,2.26-23.83,13.15-40.81,38.35-43.77,68a19.91,19.91,0,0,0-3.5,1.24l1.28,36.95a20.06,20.06,0,0,0,26.28-24.92,45.66,45.66,0,0,0,38.67-29.63c10.65,6.36,24.24,10.17,39,10.17a78.37,78.37,0,0,0,33.92-7.43,34.81,34.81,0,0,0,28.75,23.24,20.07,20.07,0,0,0,23.51,29h0L335.74,101A18.71,18.71,0,0,0,333.4,100.21Z"/><path class="cls-8" d="M251.54,199.23H228.65a3,3,0,0,1,0-5.94h22.89a3,3,0,0,1,0,5.94Z"/><path class="cls-8" d="M248.53,208.2H231.67a3,3,0,0,1,0-5.94h16.86a3,3,0,0,1,0,5.94Z"/><path class="cls-2" d="M261.48,176.91H218.71A13.74,13.74,0,0,0,205,190.65h23.75a13.73,13.73,0,0,0,11.38-6,13.7,13.7,0,0,0,11.37,6h23.75A13.74,13.74,0,0,0,261.48,176.91Z"/></g></svg>