<svg xmlns="http://www.w3.org/2000/svg" viewBox="0 0 512 512"><defs><style>.cls-1{fill:#f7bb38;}.cls-2{fill:#b0d46c;}.cls-3{fill:#a0c157;}.cls-4{fill:#cfea94;}.cls-5{fill:#e4efc2;}.cls-6{fill:#7cc8fb;}.cls-7{fill:#41c0e3;}.cls-8{fill:#fcc8bc;}.cls-9{fill:#fab3a7;}.cls-10{fill:#4f4f74;}.cls-11{fill:#f58d89;}.cls-12{fill:#f6c752;}.cls-13{fill:#a7dcf9;}</style></defs><title>Insurance</title><g id="BULINE"><circle class="cls-1" cx="256" cy="256" r="256"/></g><g id="Icons"><path class="cls-2" d="M445.64,150.35,427.73,365c-4.82,57.69-112.09,105.15-155.33,122a49.26,49.26,0,0,1-35.66,0c-43.24-16.84-150.5-64.3-155.32-122L63.5,150.35c-1.4-16.93,9-32.78,25.63-39.07C129.67,96,203.74,64.71,239.72,28.63a21.2,21.2,0,0,1,29.7,0C305.4,64.71,379.47,96,420,111.28,436.68,117.57,447.05,133.42,445.64,150.35Z"/><path class="cls-3" d="M254.57,22.56V490.3A49.25,49.25,0,0,1,236.74,487c-43.24-16.84-150.5-64.3-155.32-122L63.5,150.35c-1.4-16.93,9-32.78,25.63-39.07C129.67,96,203.74,64.71,239.72,28.63A21,21,0,0,1,254.57,22.56Z"/><path class="cls-4" d="M266.79,69a17.43,17.43,0,0,0-24.44,0c-29.61,29.69-90.57,55.42-123.94,68-13.72,5.18-22.25,18.22-21.09,32.15l14.74,176.64c4,47.48,92.25,86.53,127.84,100.4a40.5,40.5,0,0,0,29.35,0c35.59-13.87,123.87-52.92,127.83-100.4l14.74-176.64c1.17-13.93-7.37-27-21.08-32.15C357.36,124.37,296.41,98.64,266.79,69Z"/><path class="cls-2" d="M254.57,64v385a40.19,40.19,0,0,1-14.67-2.75C204.31,432.3,116,393.25,112.06,345.76L97.32,169.12c-1.16-13.93,7.38-27,21.09-32.15,33.37-12.59,94.33-38.34,123.94-68A17.19,17.19,0,0,1,254.57,64Z"/><circle class="cls-5" cx="371.94" cy="169.03" r="19.29"/><circle class="cls-5" cx="337.62" cy="148.12" r="13.66"/><rect class="cls-6" x="196.77" y="151.96" width="115.6" height="268.68" rx="57.8"/><path class="cls-7" d="M263,420a57.87,57.87,0,0,1-66.25-57.19V209.76A57.87,57.87,0,0,1,263,152.57a57.82,57.82,0,0,0-49.36,57.19V362.84A57.82,57.82,0,0,0,263,420Z"/><circle class="cls-8" cx="254.57" cy="217.28" r="48.3"/><path class="cls-9" d="M260.12,265.26a46.34,46.34,0,0,1-5.55.32,48.3,48.3,0,1,1,0-96.6,46.34,46.34,0,0,1,5.55.32,48.3,48.3,0,0,0,0,96Z"/><path class="cls-10" d="M234.06,220.57a10.92,10.92,0,0,1-7.75-3.21,2,2,0,0,1,2.8-2.8,7,7,0,0,0,9.89,0,2,2,0,0,1,2.8,2.8A10.89,10.89,0,0,1,234.06,220.57Z"/><path class="cls-10" d="M275.09,220.57a10.92,10.92,0,0,1-7.75-3.21,2,2,0,0,1,2.8-2.8,7,7,0,0,0,9.89,0,2,2,0,0,1,2.8,2.8A10.89,10.89,0,0,1,275.09,220.57Z"/><path class="cls-10" d="M254.57,244.87a10.93,10.93,0,0,1-7.74-3.2,2,2,0,0,1,2.8-2.8,7,7,0,0,0,9.89,0,2,2,0,0,1,2.8,2.8A11,11,0,0,1,254.57,244.87Z"/><ellipse class="cls-11" cx="234.24" cy="232.54" rx="7.43" ry="5.01"/><ellipse class="cls-11" cx="275.09" cy="232.54" rx="7.43" ry="5.01"/><path class="cls-12" d="M247.49,191.81a9.07,9.07,0,0,1-9.07-9.06,6.52,6.52,0,0,1,6.51-6.51h3.3a2,2,0,1,1,0,4h-3.3a2.55,2.55,0,0,0-2.55,2.55,5.11,5.11,0,0,0,10.21,0V169a2,2,0,0,1,4,0v13.77A9.06,9.06,0,0,1,247.49,191.81Z"/><path class="cls-7" d="M312.37,248.43s-41.17,87-115.6,110v10.85s95.55-8.45,115.6-58.07Z"/><path class="cls-13" d="M196.77,268.48s42.76,57.54,115.6,51.21v23.75s-83.4,33.78-115.6,0Z"/><path class="cls-6" d="M213.66,285.94v68.27a43.85,43.85,0,0,1-16.89-10.77v-75A123.46,123.46,0,0,0,213.66,285.94Z"/></g></svg>