<svg xmlns="http://www.w3.org/2000/svg" viewBox="0 0 512 512"><defs><style>.cls-1{fill:#f7bb38;}.cls-2{fill:#b0d46c;}.cls-3{fill:#a0c157;}.cls-4{fill:#cfea94;}.cls-5{fill:#e4efc2;}.cls-6{fill:#fff;}.cls-7{fill:#dfe0de;}.cls-8{fill:#db1b1b;}.cls-9{fill:#a65c3b;}</style></defs><title>Insurance</title><g id="BULINE"><circle class="cls-1" cx="256" cy="256" r="256"/></g><g id="Icons"><path class="cls-2" d="M442.83,153.59,425.31,363.45c-4.71,56.41-109.6,102.81-151.88,119.28a48.09,48.09,0,0,1-34.86,0C196.29,466.26,91.4,419.86,86.69,363.45L69.17,153.59c-1.38-16.55,8.76-32,25.06-38.21,39.64-15,112.07-45.53,147.25-80.81a20.72,20.72,0,0,1,29,0c35.18,35.28,107.61,65.85,147.25,80.81C434.07,121.54,444.21,137,442.83,153.59Z"/><path class="cls-3" d="M256,28.63V486a48.08,48.08,0,0,1-17.43-3.27C196.29,466.26,91.4,419.86,86.69,363.45L69.17,153.59c-1.38-16.55,8.76-32,25.06-38.21,39.64-15,112.07-45.53,147.25-80.81A20.46,20.46,0,0,1,256,28.63Z"/><path class="cls-4" d="M268,74a17,17,0,0,0-23.9,0c-29,29-88.56,54.2-121.19,66.52-13.41,5.06-21.76,17.81-20.62,31.43l14.41,172.73c3.88,46.43,90.2,84.61,125,98.17a39.69,39.69,0,0,0,28.7,0c34.8-13.56,121.12-51.74,125-98.17l14.41-172.73c1.14-13.62-7.21-26.37-20.62-31.43C356.51,128.19,296.91,103,268,74Z"/><path class="cls-2" d="M256,69.1V445.53a39.33,39.33,0,0,1-14.35-2.69c-34.8-13.55-121.13-51.74-125-98.17L102.23,171.94c-1.13-13.61,7.22-26.37,20.63-31.43C155.49,128.19,215.09,103,244.05,74A16.79,16.79,0,0,1,256,69.1Z"/><circle class="cls-5" cx="370.76" cy="171.86" r="18.86"/><circle class="cls-5" cx="337.21" cy="151.41" r="13.36"/><path class="cls-3" d="M236.72,355.27H153V246.33l-9.49,5.44a9.3,9.3,0,0,1-9.26-16.14l24.34-14V194.26h-4.47a3.16,3.16,0,0,1-3.17-3.17v-5.17a3.16,3.16,0,0,1,3.17-3.17h32.39a3.17,3.17,0,0,1,3.17,3.17v5.17a3.17,3.17,0,0,1-3.17,3.17h-4.47v14Z"/><rect class="cls-6" x="177.91" y="194.26" width="23.45" height="35.49"/><path class="cls-6" d="M339.68,232.34V355.27H172.32V232.34l79.05-42.76a9.91,9.91,0,0,1,9.26,0Z"/><path class="cls-7" d="M339.68,240.84V262.3l-78.35-45a10.68,10.68,0,0,0-10.66,0l-78.35,45V240.84l79.05-45.36a9.62,9.62,0,0,1,3.42-1.15,10.88,10.88,0,0,1,2.42,0l.44.07a8.63,8.63,0,0,1,.88.2,10.15,10.15,0,0,1,2.1.88Z"/><path class="cls-8" d="M361.86,248.33a9.3,9.3,0,0,1-12.69,3.44l-9.49-5.45-78.35-45a10.63,10.63,0,0,0-10.66,0l-78.35,45-9.49,5.45a9.3,9.3,0,0,1-9.26-16.14l18.75-10.76,79.05-45.36a9.38,9.38,0,0,1,9.26,0l79.05,45.36,18.75,10.76A9.31,9.31,0,0,1,361.86,248.33Z"/><rect class="cls-9" x="172.32" y="340.12" width="10.85" height="15.15"/><rect class="cls-9" x="172.32" y="310.85" width="10.85" height="15.15"/><rect class="cls-9" x="172.32" y="281.58" width="10.85" height="15.15"/><rect class="cls-9" x="329" y="340.12" width="10.85" height="15.15"/><rect class="cls-9" x="329" y="310.85" width="10.85" height="15.15"/><rect class="cls-9" x="329" y="281.58" width="10.85" height="15.15"/><path class="cls-8" d="M240.07,279.51h31.85a3.36,3.36,0,0,1,3.36,3.36v72.4a0,0,0,0,1,0,0H236.72a0,0,0,0,1,0,0v-72.4A3.36,3.36,0,0,1,240.07,279.51Z"/><rect class="cls-8" x="187.99" y="279.51" width="36.5" height="39.6" rx="3.96"/><rect class="cls-8" x="285.1" y="279.51" width="36.5" height="39.6" rx="3.96"/><rect class="cls-9" x="170.27" y="182.75" width="38.74" height="11.51" rx="3.17"/></g></svg>