<svg xmlns="http://www.w3.org/2000/svg" viewBox="0 0 512 512"><defs><style>.cls-1{fill:#f55b4b;}.cls-2{fill:#fcc8bc;}.cls-3{fill:#fab3a7;}.cls-4{fill:#fff9f8;}.cls-5{fill:#32314b;}.cls-6{fill:#f6d372;}.cls-7{fill:#e5e5e5;}.cls-8{fill:#27273d;}.cls-9{fill:#3e436d;}</style></defs><title>Insurance</title><g id="BULINE"><circle class="cls-1" cx="256" cy="256" r="256"/></g><g id="Icons"><path class="cls-2" d="M189.65,503.31A254.61,254.61,0,0,1,120.13,473C94.51,411.81,55,317.3,54.06,314.78c-5.36-15.18,14.73-55,19.16-63.38,2.59-4.94,5.53-9.31,8.88-11.81a12.27,12.27,0,0,1,2.36-1.41c9.64-4.39,19.66,5.68,16.09,15.41-3.74,10.07-16.22,42.29-14,49.76,1.2,4,3.44,8.06,5.11,11.93a13.76,13.76,0,0,1,20.8-16.38c5.15,3.73,7.19,11.81,9.58,17.42,2.55,6,11.28,27.47,15.28,30.94,6.87,6,11.94,7.52,16.33,16.33a55.08,55.08,0,0,1,5.67,24.14c.07,8.06-3.7,16.11-3.6,23.83C155.85,420.74,174.42,466.68,189.65,503.31Z"/><path class="cls-3" d="M130.28,479.05q-5.15-2.9-10.14-6h0C94.51,411.81,55,317.3,54.06,314.78c-5.36-15.18,14.73-55,19.16-63.38,2.59-4.94,5.53-9.31,8.88-11.81a11.68,11.68,0,0,1,11.26-1.65c0-.07.39.07,1.52.71a12.17,12.17,0,0,0-4.64,2.19c-3.36,2.5-6.3,6.87-8.88,11.81-4.43,8.42-24.52,48.2-19.16,63.38C63.11,318.62,104.77,418.14,130.28,479.05Z"/><path class="cls-3" d="M98.57,297.56a13.77,13.77,0,0,0-7.26,18.08l18.26,42.72c.14-.25.29-.52.44-.77a11.88,11.88,0,0,0,.61-10.64L96.33,313.49a13.86,13.86,0,0,1,4.85-16.75A13.84,13.84,0,0,0,98.57,297.56Z"/><path class="cls-4" d="M101.53,300.75h6.75a2.36,2.36,0,0,1,2.36,2.36v11.54a2.36,2.36,0,0,1-2.36,2.36h-6.75A5.49,5.49,0,0,1,96,311.52v-5.29a5.49,5.49,0,0,1,5.49-5.49Z" transform="translate(-140.11 525.25) rotate(-113.13)"/><path class="cls-4" d="M73.22,251.4l3.29,1.75a5.48,5.48,0,0,0,7.42-2.27l3.17-6a2.36,2.36,0,0,0-1-3.19l-4-2.14C78.75,242.09,75.81,246.46,73.22,251.4Z"/><path class="cls-2" d="M458.27,309.24c-.71,2.48-32.22,92.89-54.06,155.51A254.8,254.8,0,0,1,336.75,499c12.45-36.19,26.36-78.33,25.94-87-.38-7.71-4.63-15.52-5.06-23.56A55.15,55.15,0,0,1,361.82,364c3.84-9.07,8.81-10.93,15.31-17.3,3.77-3.71,11.18-25.7,13.36-31.81,2-5.75,3.58-13.94,8.5-18A13.76,13.76,0,0,1,420.75,312c1.43-4,3.42-8.15,4.37-12.22,1.79-7.59-12.64-39-17-48.81-4.16-9.5,5.23-20.16,15.12-16.37a12.35,12.35,0,0,1,2.44,1.27c3.5,2.29,6.71,6.47,9.59,11.24C440.21,255.28,462.69,293.76,458.27,309.24Z"/><path class="cls-3" d="M415.64,296.33a13.68,13.68,0,0,0-9.51,3.06c-4.92,4.05-6.46,12.24-8.51,18-2.17,6.11-9.58,28.11-13.36,31.81-6.49,6.38-11.46,8.23-15.3,17.3a54.89,54.89,0,0,0-4.19,24.44c.42,8.05,4.67,15.86,5.05,23.57.41,8.18-12.09,46.5-24,81.31q-4.5,1.68-9.07,3.2c12.45-36.19,26.36-78.33,25.94-87-.38-7.71-4.63-15.52-5.06-23.56A55.15,55.15,0,0,1,361.82,364c3.84-9.07,8.81-10.93,15.31-17.3,3.77-3.71,11.18-25.7,13.36-31.81,2-5.75,3.58-13.94,8.5-18A13.88,13.88,0,0,1,415.64,296.33Z"/><path class="cls-3" d="M412.79,294.77a13.77,13.77,0,0,1,8.35,17.59l-15.61,43.77c-.17-.25-.33-.51-.5-.75a11.89,11.89,0,0,1-1.25-10.59L416,310.53a13.74,13.74,0,0,0-4.7-15.63,11.29,11.29,0,0,0-1.16-.79A13.17,13.17,0,0,1,412.79,294.77Z"/><path class="cls-4" d="M406.91,298.22h6.75a2.36,2.36,0,0,1,2.36,2.36v11.54a2.36,2.36,0,0,1-2.36,2.36h-6.75a5.49,5.49,0,0,1-5.49-5.49v-5.29A5.49,5.49,0,0,1,406.91,298.22Z" transform="translate(-17.15 588.38) rotate(-70.37)"/><path class="cls-4" d="M435.28,247.14l-3.18,2a5.5,5.5,0,0,1-7.55-1.81L421,241.53a2.37,2.37,0,0,1,.78-3.25l3.88-2.38C429.19,238.19,432.4,242.37,435.28,247.14Z"/><path class="cls-5" d="M210,43.13V78.71h15.5V58.63a4.75,4.75,0,0,1,4.75-4.75h51A4.75,4.75,0,0,1,286,58.63V78.71h15.5V43.13a4.75,4.75,0,0,0-4.75-4.75h-82A4.75,4.75,0,0,0,210,43.13Z"/><path class="cls-6" d="M146.29,72.88h28.5A7.25,7.25,0,0,1,182,80.13v4.42a0,0,0,0,1,0,0H139a0,0,0,0,1,0,0V80.13A7.25,7.25,0,0,1,146.29,72.88Z"/><path class="cls-7" d="M207.89,72.38h20.26a6.35,6.35,0,0,1,6.35,6.35V84a0,0,0,0,1,0,0h-33a0,0,0,0,1,0,0V78.72A6.35,6.35,0,0,1,207.89,72.38Z"/><path class="cls-7" d="M283.51,72.38h20.26a6.35,6.35,0,0,1,6.35,6.35V84a0,0,0,0,1,0,0h-33a0,0,0,0,1,0,0V78.72A6.35,6.35,0,0,1,283.51,72.38Z"/><rect class="cls-5" x="151.12" y="72.88" width="18.83" height="11.67"/><path class="cls-6" d="M335.25,72.88h28.5A7.25,7.25,0,0,1,371,80.13v4.42a0,0,0,0,1,0,0H328a0,0,0,0,1,0,0V80.13A7.25,7.25,0,0,1,335.25,72.88Z"/><rect class="cls-5" x="340.08" y="72.88" width="18.83" height="11.67"/><rect class="cls-5" x="118.23" y="83.54" width="275.53" height="192" rx="13.3"/><path class="cls-8" d="M393.77,249.2v13a13.31,13.31,0,0,1-13.3,13.3H131.53a13.31,13.31,0,0,1-13.3-13.3V96.84a13.3,13.3,0,0,1,13.3-13.3h18.26V235.9a13.3,13.3,0,0,0,13.3,13.3Z"/><path class="cls-7" d="M139,275.54h21.5a0,0,0,0,1,0,0v2.56a8.77,8.77,0,0,1-8.77,8.77h-4a8.77,8.77,0,0,1-8.77-8.77v-2.56A0,0,0,0,1,139,275.54Z"/><path class="cls-7" d="M351.78,275.54h21.5a0,0,0,0,1,0,0v2.56a8.77,8.77,0,0,1-8.77,8.77h-4a8.77,8.77,0,0,1-8.77-8.77v-2.56A0,0,0,0,1,351.78,275.54Z"/><circle class="cls-9" cx="369.35" cy="143.12" r="13.76"/><circle class="cls-9" cx="369.35" cy="114.45" r="9.75"/></g></svg>