<svg xmlns="http://www.w3.org/2000/svg" viewBox="0 0 512 512"><defs><style>.cls-1{fill:#27273d;}.cls-2{fill:#b0d46c;}.cls-3{fill:#fff;}.cls-4{fill:#dfe0de;}.cls-5{fill:#db1b1b;}.cls-6{fill:#a65c3b;}.cls-7{fill:#c41c1c;}.cls-8{fill:#f55b4b;}.cls-9{fill:#e0e2e2;}.cls-10{fill:#ccc;}</style></defs><title>Insurance</title><g id="BULINE"><circle class="cls-1" cx="256" cy="256" r="256"/></g><g id="Icons"><path class="cls-2" d="M481.34,377.58a256.09,256.09,0,0,1-450.68,0Z"/><rect class="cls-3" x="39.28" y="176.6" width="32.79" height="49.61" transform="translate(-68.27 33.18) rotate(-20.93)"/><path class="cls-3" d="M261.75,153l61.39,160.52L104.61,397.12,43.22,236.61l81.87-95.32a13.85,13.85,0,0,1,12.08-4.62Z"/><path class="cls-4" d="M266,164.13l10.72,28L152,172.55A14.93,14.93,0,0,0,138,177.87L58.18,275.72l-10.71-28L128,149a13.27,13.27,0,0,1,3.89-3.2,14.42,14.42,0,0,1,3.16-1.21l.62-.13c.41-.08.82-.14,1.24-.18a14.11,14.11,0,0,1,3.18.1Z"/><path class="cls-5" d="M298.69,162.83a13,13,0,0,1-14.84,10.83l-15.12-2.37L144,151.7A14.91,14.91,0,0,0,130.05,157L50.21,254.86l-9.68,11.85a13,13,0,0,1-20.15-16.44l19.11-23.42,80.57-98.71a13.14,13.14,0,0,1,12.08-4.62L258,143.27,287.87,148A13,13,0,0,1,298.69,162.83Z"/><rect class="cls-6" x="100.33" y="373.93" width="15.16" height="21.18" transform="translate(-130.24 63.92) rotate(-20.93)"/><rect class="cls-6" x="85.71" y="335.71" width="15.16" height="21.18" transform="translate(-117.55 56.18) rotate(-20.93)"/><rect class="cls-6" x="71.09" y="297.49" width="15.16" height="21.18" transform="translate(-104.86 48.43) rotate(-20.93)"/><rect class="cls-6" x="304.92" y="295.69" width="15.16" height="21.18" transform="translate(-88.79 131.84) rotate(-20.93)"/><rect class="cls-6" x="290.3" y="257.47" width="15.16" height="21.18" transform="translate(-76.1 124.1) rotate(-20.93)"/><rect class="cls-6" x="275.68" y="219.25" width="15.16" height="21.18" transform="translate(-63.41 116.35) rotate(-20.93)"/><path class="cls-5" d="M172.69,252.92h44.53a4.69,4.69,0,0,1,4.69,4.69V358.83a0,0,0,0,1,0,0H168a0,0,0,0,1,0,0V257.61A4.69,4.69,0,0,1,172.69,252.92Z" transform="translate(-96.4 89.83) rotate(-20.93)"/><path class="cls-7" d="M164.35,260.89a4.69,4.69,0,0,0-2.71,6.06l36.16,94.53L188.7,365l-36.16-94.53a4.69,4.69,0,0,1,2.71-6.06Z"/><rect class="cls-5" x="95.44" y="279.44" width="51.03" height="55.36" rx="5.54" transform="translate(-101.73 63.47) rotate(-20.93)"/><rect class="cls-5" x="222.24" y="230.94" width="51.03" height="55.36" rx="5.54" transform="translate(-76.04 105.57) rotate(-20.93)"/><rect class="cls-6" x="16.86" y="162.68" width="54.16" height="16.09" rx="4.44" transform="translate(-58.09 26.96) rotate(-20.93)"/><path class="cls-5" d="M148.09,183.34A25.5,25.5,0,1,0,181,198,25.49,25.49,0,0,0,148.09,183.34Zm15.27,39.9A17.22,17.22,0,1,1,173.28,201,17.21,17.21,0,0,1,163.36,223.24Z"/><rect class="cls-4" x="90.98" y="353.95" width="250.47" height="16.47" rx="3.9" transform="translate(-115.12 101.13) rotate(-20.93)"/><circle class="cls-8" cx="258.34" cy="253.48" r="7.1"/><circle class="cls-8" cx="253.05" cy="239.66" r="5.03"/><path class="cls-9" d="M244,76.73s-9.49,91.6,48.19,137.57a129.9,129.9,0,0,1,31.14,35c15.54,26.16,26.73,66.08-12.52,103.91a3.8,3.8,0,0,0,4.19,6.21c53.67-24.71,178.92-102,169.62-282.72"/><path class="cls-10" d="M496,136.45a3.94,3.94,0,0,0-7.88,0c0,2.78-7.11,9.58-34,15.34-23.69,5.07-55.24,7.86-88.84,7.86-27.09,0-52.84-1.81-74.21-5.17-12.77-39.48-8.82-77.75-8.82-77.75H243.43a214,214,0,0,0,5.47,66.05c-4.83-2.67-6.52-5-6.52-6.33a3.94,3.94,0,1,0-7.87,0c0,6.61,6.57,12,17.18,16.31,5.62,18.05,14.7,36.46,29.19,51.69-19.24-4.79-24.54-9.91-24.54-12.11a3.94,3.94,0,0,0-7.88,0c0,9,12,15.88,36.59,21.15,2.36.51,4.82,1,7.34,1.44a129.41,129.41,0,0,1,30.36,34.4c1,1.71,2,3.49,3,5.32-15.25-3.29-19.44-7-19.69-8a3.94,3.94,0,1,0-7.87,0c0,8.52,14,13.79,31.79,16.89,5.64,13.37,8.94,28.89,5.94,45.22C325.1,307,319,304.62,317.74,303a3.94,3.94,0,0,0-7.86.4c0,5.43,6,9.24,18.89,12,1.67.36,3.44.69,5.27,1-3.7,12.14-11.12,24.6-23.81,36.83a3.8,3.8,0,0,0,4.2,6.21,319.06,319.06,0,0,0,53.83-31.63,72.87,72.87,0,0,0,3.78-9c13-.22,25.16-1.41,34.55-3.42,12.89-2.76,18.89-6.57,18.89-12a3.94,3.94,0,0,0-7.86-.4c-2,2.58-16.68,7.23-43.35,7.91,3.39-15.63.92-30.58-4-43.68,3.68.11,7.2.16,10.48.16,30.66,0,82.55-4.37,82.55-20.76a3.94,3.94,0,1,0-7.87,0c-.26,1.09-4.71,5-21.22,8.36-14.43,3-33.42,4.57-53.46,4.57q-7.05,0-13.87-.27c-1.65-3.49-3.44-6.82-5.3-9.94a126.5,126.5,0,0,0-24.5-29.41c9.56.54,19.49.83,29.63.83,30.79,0,59.79-2.58,81.64-7.26,24.61-5.27,36.58-12.18,36.58-21.15a3.94,3.94,0,0,0-7.87,0c0,2.41-6.35,8.31-30.36,13.45-21.33,4.57-49.73,7.08-80,7.08-13.83,0-27.26-.53-39.82-1.53-15.76-13.74-26.12-31-32.89-48.54a531.88,531.88,0,0,0,71.27,4.73C417.8,167.53,496,159.25,496,136.45Z"/><ellipse class="cls-3" cx="364.26" cy="76.73" rx="120.31" ry="25.75"/><path class="cls-9" d="M364.22,93.28c-21.35,0-41.44-1.33-56.59-3.74-23.35-3.72-26.5-8.56-26.5-12.81s3.15-9.09,26.5-12.81c15.15-2.41,35.24-3.74,56.59-3.74s41.44,1.33,56.59,3.74c23.35,3.72,26.5,8.57,26.5,12.81s-3.15,9.09-26.5,12.81C405.66,92,385.56,93.28,364.22,93.28ZM290,76.73c2.15,1.21,7.84,3.49,22.15,5.52s32.83,3.16,52.1,3.16,37.77-1.12,52.1-3.16,20-4.31,22.14-5.52c-2.14-1.2-7.84-3.49-22.14-5.52s-32.83-3.16-52.1-3.16-37.78,1.12-52.1,3.16S292.12,75.53,290,76.73Z"/></g></svg>