<svg xmlns="http://www.w3.org/2000/svg" viewBox="0 0 512 512"><defs><style>.cls-1{fill:#3586cb;}.cls-2{fill:#ccc;}.cls-3{fill:#e2e2e2;}.cls-4{fill:#fff;}.cls-5{fill:#3e436d;}.cls-6{fill:#db1b1b;}</style></defs><title>Insurance</title><g id="BULINE"><circle class="cls-1" cx="256" cy="256" r="256"/></g><g id="Icons"><path class="cls-2" d="M368,58.6V424.48a7.62,7.62,0,0,1-7.61,7.62h-253a7.62,7.62,0,0,1-7.62-7.62V116.15L164.91,51H360.36A7.62,7.62,0,0,1,368,58.6Z"/><path class="cls-3" d="M164.91,51V86.33a29.82,29.82,0,0,1-29.83,29.82H99.74Z"/><path class="cls-4" d="M411.46,83.5V449.38a7.62,7.62,0,0,1-7.62,7.62h-253a7.62,7.62,0,0,1-7.61-7.62V141.06l65.17-65.18H403.84A7.62,7.62,0,0,1,411.46,83.5Z"/><path class="cls-5" d="M376.93,261.78H189.11a5.35,5.35,0,0,1,0-10.7H376.93a5.35,5.35,0,0,1,0,10.7Z"/><path class="cls-5" d="M286.62,293.71H189.11a5.35,5.35,0,0,1,0-10.7h97.51a5.35,5.35,0,1,1,0,10.7Z"/><path class="cls-5" d="M376.93,293.71H303.58a5.35,5.35,0,1,1,0-10.7h73.35a5.35,5.35,0,0,1,0,10.7Z"/><path class="cls-5" d="M376.93,361H275.71a5.35,5.35,0,1,1,0-10.69H376.93a5.35,5.35,0,0,1,0,10.69Z"/><path class="cls-5" d="M376.93,329H189.11a5.35,5.35,0,1,1,0-10.7H376.93a5.35,5.35,0,0,1,0,10.7Z"/><path class="cls-5" d="M255.38,361H189.11a5.35,5.35,0,1,1,0-10.69h66.27a5.35,5.35,0,1,1,0,10.69Z"/><path class="cls-5" d="M376.93,396.31H189.11a5.35,5.35,0,0,1,0-10.7H376.93a5.35,5.35,0,0,1,0,10.7Z"/><path class="cls-3" d="M208.39,75.89v35.34a29.83,29.83,0,0,1-29.82,29.83H143.22Z"/><path class="cls-6" d="M329.29,182.75l-21.78-13.63,21.78-13.63a6.5,6.5,0,0,0,2.07-9l-6.87-11a6.51,6.51,0,0,0-9-2.07L296,145.68v-23a6.52,6.52,0,0,0-6.52-6.51H276.54a6.51,6.51,0,0,0-6.51,6.51v23l-19.51-12.21a6.52,6.52,0,0,0-9,2.07l-6.87,11a6.51,6.51,0,0,0,2.07,9l21.78,13.63-21.78,13.63a6.51,6.51,0,0,0-2.07,9l6.87,11a6.52,6.52,0,0,0,9,2.07L270,192.57v23a6.5,6.5,0,0,0,6.51,6.51h12.95a6.51,6.51,0,0,0,6.52-6.51v-23l19.51,12.2a6.51,6.51,0,0,0,9-2.07l6.87-11A6.5,6.5,0,0,0,329.29,182.75Z"/></g></svg>