<svg xmlns="http://www.w3.org/2000/svg" viewBox="0 0 512 512"><defs><style>.cls-1{fill:#f7bb38;}.cls-2{fill:#fff;}.cls-3{fill:#7cc8fb;}.cls-4{fill:#41c0e3;}.cls-5{fill:#db1b1b;}.cls-6{fill:#a81b1b;}.cls-7{fill:#eaeaea;}.cls-8{fill:#bf1b1b;}.cls-9{fill:#ed6464;}.cls-10{fill:#e83f3f;}.cls-11{fill:#d6d8d8;}.cls-12{fill:#a4dcfc;}.cls-13{fill:#b0d46c;}.cls-14{fill:#a0c157;}.cls-15{fill:#cfea94;}.cls-16{fill:#e4efc2;}</style></defs><title>Insurance</title><g id="BULINE"><circle class="cls-1" cx="256" cy="256" r="256"/></g><g id="Icons"><rect class="cls-2" x="83.31" y="189.92" width="301.06" height="206.58"/><path class="cls-3" d="M257.18,234v99.89a6.67,6.67,0,0,1-6.67,6.67H106.27a6.54,6.54,0,0,1-3.48-1,6.7,6.7,0,0,1-3.19-5.69V234a6.68,6.68,0,0,1,6.67-6.68H250.51A6.68,6.68,0,0,1,257.18,234Z"/><path class="cls-4" d="M257.18,325.16v8.71a6.68,6.68,0,0,1-6.68,6.67H106.27a6.67,6.67,0,0,1-6.67-6.67V234a6.67,6.67,0,0,1,6.67-6.67h13.21v91.18a6.67,6.67,0,0,0,6.67,6.67Z"/><path class="cls-3" d="M368.2,233.08V396.5H275V233.08a5.78,5.78,0,0,1,5.78-5.78h81.63A5.78,5.78,0,0,1,368.2,233.08Z"/><path class="cls-4" d="M368.2,384.72V396.5H275V233.08a5.77,5.77,0,0,1,5.77-5.77H289V355.4a29.32,29.32,0,0,0,29.32,29.32Z"/><path class="cls-5" d="M99.12,79.24H372.47a11.25,11.25,0,0,1,11.25,11.25v16.76a0,0,0,0,1,0,0H87.87a0,0,0,0,1,0,0V90.49A11.25,11.25,0,0,1,99.12,79.24Z"/><path class="cls-6" d="M383.71,97.53v9.72H87.87v-18c0-5.54,5.65-10,12.62-10h9c0,.1,0,.2,0,.31v1.84c0,8.91,9.1,16.14,20.32,16.14Z"/><path class="cls-6" d="M66,194.45h67.86a0,0,0,0,1,0,0v0a17.44,17.44,0,0,1-17.44,17.44h-33A17.44,17.44,0,0,1,66,194.45v0A0,0,0,0,1,66,194.45Z"/><path class="cls-7" d="M133.82,194.45h67.86a0,0,0,0,1,0,0v0a17.44,17.44,0,0,1-17.44,17.44h-33a17.44,17.44,0,0,1-17.44-17.44v0a0,0,0,0,1,0,0Z"/><path class="cls-8" d="M201.68,194.45h67.86a0,0,0,0,1,0,0v0a17.44,17.44,0,0,1-17.44,17.44h-33a17.44,17.44,0,0,1-17.44-17.44v0A0,0,0,0,1,201.68,194.45Z"/><path class="cls-7" d="M269.54,194.45h67.86a0,0,0,0,1,0,0v0A17.44,17.44,0,0,1,320,211.88H287a17.44,17.44,0,0,1-17.44-17.44v0A0,0,0,0,1,269.54,194.45Z"/><path class="cls-9" d="M337.41,194.45h67.86a0,0,0,0,1,0,0v0a17.44,17.44,0,0,1-17.44,17.44h-33a17.44,17.44,0,0,1-17.44-17.44v0A0,0,0,0,1,337.41,194.45Z"/><polygon class="cls-5" points="262.2 107.25 209.03 107.25 201.68 194.44 269.55 194.44 262.2 107.25"/><polygon class="cls-2" points="209.03 107.25 148.51 107.25 133.82 194.44 201.68 194.44 209.03 107.25"/><polygon class="cls-8" points="148.51 107.25 88 107.25 65.96 194.44 133.82 194.44 148.51 107.25"/><polygon class="cls-2" points="322.71 107.25 262.2 107.25 269.55 194.44 337.41 194.44 322.71 107.25"/><polygon class="cls-10" points="383.23 107.25 322.71 107.25 337.41 194.44 405.27 194.44 383.23 107.25"/><rect class="cls-11" x="65.59" y="396.5" width="340.04" height="22.83" rx="5.8"/><path class="cls-12" d="M215,227.3,102.79,339.56a6.7,6.7,0,0,1-3.19-5.69V315.54l88.24-88.24Z"/><path class="cls-12" d="M257.18,234v15.09l-91.46,91.47H118.14L231.39,227.3h19.12A6.68,6.68,0,0,1,257.18,234Z"/><path class="cls-12" d="M368.2,233.08v8.59L275,334.84V307.65l80.34-80.35h7.07A5.78,5.78,0,0,1,368.2,233.08Z"/><polygon class="cls-12" points="368.2 258.01 368.2 305.58 277.3 396.5 275.02 396.5 275.02 351.19 368.2 258.01"/><path class="cls-13" d="M486,267.05l-6.39,76.56c-1.72,20.59-40,37.52-55.41,43.53a17.59,17.59,0,0,1-12.72,0c-15.43-6-53.7-22.94-55.42-43.53l-6.39-76.56a13.79,13.79,0,0,1,9.15-13.94c14.46-5.46,40.88-16.62,53.72-29.49a7.56,7.56,0,0,1,10.6,0c12.83,12.87,39.26,24,53.72,29.49A13.77,13.77,0,0,1,486,267.05Z"/><path class="cls-14" d="M417.79,221.45V388.33a17.58,17.58,0,0,1-6.36-1.19c-15.43-6-53.7-22.94-55.42-43.53l-6.39-76.56a13.79,13.79,0,0,1,9.15-13.94c14.46-5.46,40.88-16.62,53.72-29.49A7.48,7.48,0,0,1,417.79,221.45Z"/><path class="cls-15" d="M422.15,238a6.24,6.24,0,0,0-8.72,0c-10.57,10.6-32.31,19.78-44.22,24.27a11.34,11.34,0,0,0-7.52,11.47l5.26,63c1.41,16.94,32.91,30.87,45.6,35.82a14.44,14.44,0,0,0,10.47,0c12.7-4.95,44.2-18.88,45.61-35.82l5.26-63a11.36,11.36,0,0,0-7.52-11.47C454.46,257.78,432.71,248.6,422.15,238Z"/><path class="cls-13" d="M417.79,236.22V373.56a14.32,14.32,0,0,1-5.24-1c-12.69-4.95-44.19-18.88-45.6-35.82l-5.26-63a11.34,11.34,0,0,1,7.52-11.47c11.91-4.49,33.65-13.67,44.22-24.26A6.09,6.09,0,0,1,417.79,236.22Z"/><circle class="cls-16" cx="459.66" cy="273.71" r="6.88"/><circle class="cls-16" cx="447.42" cy="266.25" r="4.87"/></g></svg>