<svg xmlns="http://www.w3.org/2000/svg" viewBox="0 0 512 512"><defs><style>.cls-1{fill:#934cf5;}.cls-2{fill:#b0d46c;}.cls-3{fill:#a0c157;}.cls-4{fill:#cfea94;}.cls-5{fill:#e4efc2;}.cls-6{fill:#fc715a;}.cls-7{fill:#f55b4b;}.cls-8{fill:#f98f80;}</style></defs><title>Insurance</title><g id="BULINE"><circle class="cls-1" cx="256" cy="256" r="256"/></g><g id="Icons"><path class="cls-2" d="M443.41,152.56,425.84,363.07C421.11,419.66,315.9,466.2,273.49,482.72a48.27,48.27,0,0,1-35,0C196.1,466.2,90.89,419.66,86.16,363.07L68.59,152.56c-1.38-16.61,8.78-32.15,25.14-38.33,39.76-15,112.41-45.68,147.71-81.07a20.79,20.79,0,0,1,29.12,0c35.3,35.39,108,66.06,147.71,81.07C434.63,120.41,444.79,136,443.41,152.56Z"/><path class="cls-3" d="M256,27.21V486a48.24,48.24,0,0,1-17.49-3.28C196.1,466.2,90.89,419.66,86.16,363.07L68.59,152.56c-1.38-16.61,8.78-32.15,25.14-38.33,39.76-15,112.41-45.68,147.71-81.07A20.52,20.52,0,0,1,256,27.21Z"/><path class="cls-4" d="M268,72.71a17.11,17.11,0,0,0-24,0c-29,29.12-88.84,54.36-121.57,66.72C109,144.51,100.62,157.3,101.76,171l14.46,173.26c3.88,46.57,90.48,84.87,125.39,98.48a39.8,39.8,0,0,0,28.78,0C305.3,429.1,391.9,390.8,395.78,344.23L410.24,171c1.14-13.67-7.23-26.46-20.68-31.54C356.83,127.07,297,101.83,268,72.71Z"/><path class="cls-2" d="M256,67.81V445.4a39.59,39.59,0,0,1-14.4-2.69c-34.9-13.6-121.5-51.9-125.38-98.49L101.75,171c-1.13-13.65,7.24-26.45,20.69-31.53C155.17,127.08,215,101.83,244,72.71A16.89,16.89,0,0,1,256,67.81Z"/><circle class="cls-5" cx="371.12" cy="170.88" r="18.92"/><circle class="cls-5" cx="337.46" cy="150.36" r="13.4"/><path class="cls-3" d="M239.91,363.74a24.06,24.06,0,0,0,5.82,4.28,23.83,23.83,0,0,1-27.88-4.28l-76.67-76.68a58,58,0,0,1,52-97.9,58,58,0,0,0-30,97.9Z"/><path class="cls-6" d="M267.55,205.09,256,216.63l-11.55-11.54a58,58,0,0,0-82,0h0a58,58,0,0,0,0,82l76.68,76.68a23.82,23.82,0,0,0,33.68,0l76.68-76.68a58,58,0,0,0,0-82h0A58,58,0,0,0,267.55,205.09Z"/><path class="cls-7" d="M269.47,366.53a23.8,23.8,0,0,1-30.31-2.79l-76.68-76.68A58,58,0,0,1,217,189.69a58,58,0,0,0-27.53,97.37l76.68,76.68A22.09,22.09,0,0,0,269.47,366.53Z"/><circle class="cls-8" cx="334.25" cy="252.41" r="10.2"/><circle class="cls-8" cx="334.25" cy="231.17" r="7.22"/></g></svg>