<svg xmlns="http://www.w3.org/2000/svg" viewBox="0 0 512 512"><defs><style>.cls-1{fill:#3586cb;}.cls-2{fill:#b0d46c;}.cls-3{fill:#a0c157;}.cls-4{fill:#cfea94;}.cls-5{fill:#e4efc2;}.cls-6{fill:#db1b1b;}.cls-7{fill:#f6c752;}</style></defs><title>Insurance</title><g id="BULINE"><circle class="cls-1" cx="256" cy="256" r="256"/></g><g id="Icons"><path class="cls-2" d="M442.24,151.4,424.78,360.59c-4.7,56.24-109.25,102.49-151.4,118.91a48,48,0,0,1-34.76,0c-42.15-16.42-146.7-62.67-151.4-118.91L69.76,151.4c-1.37-16.5,8.73-31.95,25-38.08C134.26,98.4,206.46,67.93,241.53,32.76a20.64,20.64,0,0,1,28.94,0c35.07,35.17,107.27,65.64,146.79,80.56C433.51,119.45,443.61,134.9,442.24,151.4Z"/><path class="cls-3" d="M256,26.84V482.76a48.06,48.06,0,0,1-17.38-3.26c-42.15-16.42-146.7-62.67-151.4-118.91L69.76,151.4c-1.37-16.5,8.73-31.95,25-38.08C134.26,98.4,206.46,67.93,241.53,32.76A20.38,20.38,0,0,1,256,26.84Z"/><path class="cls-4" d="M267.91,72.05a17,17,0,0,0-23.82,0c-28.87,28.94-88.28,54-120.81,66.31-13.37,5-21.69,17.76-20.56,31.34l14.37,172.17C121,388.15,207,426.22,241.7,439.73a39.53,39.53,0,0,0,28.6,0C305,426.22,391,388.15,394.91,341.87L409.28,169.7c1.13-13.58-7.19-26.3-20.56-31.34C356.19,126.08,296.78,101,267.91,72.05Z"/><path class="cls-2" d="M256,67.18V442.41a39.26,39.26,0,0,1-14.3-2.68C207,426.22,121,388.16,117.1,341.87L102.72,169.69c-1.13-13.57,7.19-26.29,20.56-31.33,32.53-12.28,91.94-37.37,120.81-66.3A16.72,16.72,0,0,1,256,67.18Z"/><circle class="cls-5" cx="370.4" cy="169.61" r="18.8"/><circle class="cls-5" cx="336.95" cy="149.22" r="13.32"/><path class="cls-3" d="M291,260.15c-25.49-72.4-63.9-94.4-85.29-101.08a7.22,7.22,0,0,0-8.92,9.47c13.3,33.62-10.91,72.46-24.82,90.85a82.06,82.06,0,0,0-8.74,10.66l-.05,0h0a82,82,0,0,0-14.41,49.6c1.44,40.93,37,77.17,77.93,79.29a82.41,82.41,0,0,0,85.87-69.92C314,320.12,291,260.15,291,260.15Z"/><path class="cls-6" d="M323.34,224.46c.7,24.3-11.22,35.69-11.22,35.69-25.48-72.4-63.89-94.4-85.28-101.08a7.22,7.22,0,0,0-8.92,9.47C231.22,202.16,207,241,193.1,259.39a82.06,82.06,0,0,0-8.74,10.66l-.05,0h0a82.07,82.07,0,0,0-14.42,49.6c1.45,40.93,37,77.17,77.94,79.29a82.41,82.41,0,0,0,85.87-69.92c1.34-8.95,3.35-17.78,5.49-26.58,7.68-31.69-1.15-61.33-9.15-79.55A3.51,3.51,0,0,0,323.34,224.46Z"/><path class="cls-7" d="M313.67,270.14c-3.33,17.82-13.81,24.23-13.81,24.23-7.13-56.78-31.64-78.87-46.18-87.12a5.38,5.38,0,0,0-8,5.49c4.38,26.6-19.4,51.08-32.44,62.28a61,61,0,0,0-8.05,6.39l0,0h0a61.16,61.16,0,0,0-18.34,33.87c-5.41,30.05,14.8,62.08,44.27,70.09A61.44,61.44,0,0,0,304.7,348c2.4-6.31,5.26-12.43,8.2-18.5,10.6-21.88,8.85-44.87,5.9-59.42A2.61,2.61,0,0,0,313.67,270.14Z"/></g></svg>