<svg xmlns="http://www.w3.org/2000/svg" viewBox="0 0 512 512"><defs><style>.cls-1{fill:#f7bb38;}.cls-2{fill:#b0d46c;}.cls-3{fill:#a0c157;}.cls-4{fill:#cfea94;}.cls-5{fill:#e4efc2;}.cls-6{fill:#32314b;}.cls-7{fill:#27273d;}.cls-8{fill:#f9dcd7;}.cls-9{fill:#fcc8bc;}.cls-10{fill:#e5b2aa;}.cls-11{fill:#d54545;}.cls-12{fill:#c11e1e;}.cls-13{fill:#3e436d;}.cls-14{fill:#3586cb;}.cls-15{fill:#fff;}.cls-16{fill:#e0e0e0;}.cls-17{fill:#2b75ad;}</style></defs><title>Insurance</title><g id="BULINE"><circle class="cls-1" cx="256" cy="256" r="256"/></g><g id="Icons"><path class="cls-2" d="M457.8,231.67l-5.06,60.52c-1.36,16.27-31.6,29.65-43.79,34.4a13.93,13.93,0,0,1-10.06,0c-12.19-4.75-42.44-18.13-43.8-34.4l-5-60.52a10.89,10.89,0,0,1,7.23-11c11.43-4.32,32.32-13.13,42.46-23.31a6,6,0,0,1,8.37,0c10.15,10.18,31,19,42.47,23.31A10.9,10.9,0,0,1,457.8,231.67Z"/><path class="cls-3" d="M403.92,195.64V327.53a13.81,13.81,0,0,1-5-.94c-12.19-4.75-42.44-18.13-43.8-34.4l-5-60.52a10.89,10.89,0,0,1,7.23-11c11.43-4.32,32.32-13.13,42.46-23.31A5.92,5.92,0,0,1,403.92,195.64Z"/><path class="cls-4" d="M407.36,208.72a4.91,4.91,0,0,0-6.89,0c-8.35,8.37-25.54,15.63-35,19.18a9,9,0,0,0-5.94,9.07l4.15,49.81c1.12,13.38,26,24.4,36,28.31a11.48,11.48,0,0,0,8.28,0c10-3.91,34.93-14.93,36-28.31L448.26,237a9,9,0,0,0-5.95-9.07C432.9,224.35,415.72,217.09,407.36,208.72Z"/><path class="cls-2" d="M403.92,207.31V315.86a11.51,11.51,0,0,1-4.14-.77c-10-3.91-34.93-14.92-36-28.32L359.58,237a9,9,0,0,1,5.94-9.07c9.41-3.55,26.6-10.81,35-19.18A4.86,4.86,0,0,1,403.92,207.31Z"/><circle class="cls-5" cx="437.01" cy="236.94" r="5.44"/><circle class="cls-5" cx="427.34" cy="231.04" r="3.85"/><path class="cls-6" d="M295.31,263.83H172.36a40.8,40.8,0,0,1-40.72-43.3l7.91-129.21a80.35,80.35,0,0,1,80.27-76.73h28a80.35,80.35,0,0,1,80.27,76.73L336,220.53A40.8,40.8,0,0,1,295.31,263.83Z"/><rect class="cls-7" x="172.36" y="116.03" width="120.82" height="147.79"/><path class="cls-8" d="M359.55,407.31c-70.7,48.9-166,52-239.69,9.36A28.88,28.88,0,0,1,106,385.87c10.37-50.05,28.73-97.91,83.21-113.52h0C208,267,212.8,260.28,209.54,239c-.28-17.77,29.94-28.43,45.52-16.95,10.5,7.73-.24,20.29,3.35,31.46,4.41,13.71,8.44,11,19,18.61,11.71,8.43,26.12,12.11,37.54,22.58,31.35,28.73,39.24,72.39,44.64,112.58C356.29,409.56,352.37,353.83,359.55,407.31Z"/><path class="cls-8" d="M317.31,104v56.77c0,42.36-33.71,55.92-58.28,77.46a37.8,37.8,0,0,1-50.38,0c-24.58-21.54-58.29-35.1-58.29-77.46V104c0-.19,0-.39,0-.57.2-29.64,16.1-55.3,39.32-68.11.74-.42,20.46-8.18,30.55-8.61,1-.06,2-.08,3-.08h21.14a70.07,70.07,0,0,1,46.34,17.65,71.48,71.48,0,0,1,5.59,5.43,79.35,79.35,0,0,1,20.86,50h0C317.27,101.16,317.31,102.59,317.31,104Z"/><path class="cls-9" d="M183.68,160.82V104c0-40.55,29.39-73.82,66.81-77.09q-3-.28-6.09-.28H223.27c-40.27,0-72.9,34.64-72.9,77.37v28.1a16.71,16.71,0,1,0,0,33.41h.16c2.42,38.66,34.48,52,58.11,72.73A37.71,37.71,0,0,0,250.49,244a39.2,39.2,0,0,1-8.54-5.71C217.38,216.74,183.68,203.17,183.68,160.82Z"/><circle class="cls-8" cx="317.3" cy="148.85" r="16.7"/><path class="cls-7" d="M212.05,125.47a3,3,0,0,1-1.65-.49c-16.38-10.57-35.9,0-36.1.1a3.06,3.06,0,0,1-3-5.35c.92-.51,22.88-12.48,42.38.1a3.06,3.06,0,0,1-1.66,5.64Z"/><path class="cls-7" d="M293.18,125.47a3.06,3.06,0,0,1-1.66-.49c-16.38-10.57-35.9,0-36.09.1a3.06,3.06,0,0,1-3-5.35c.93-.51,22.89-12.48,42.39.1a3.07,3.07,0,0,1-1.66,5.64Z"/><rect class="cls-9" x="221.36" y="165.55" width="24.27" height="9.2" rx="4.22"/><path class="cls-10" d="M150.84,142.2a6.65,6.65,0,0,0,0,13.29Z"/><path class="cls-9" d="M316.5,155.49a6.65,6.65,0,0,0,0-13.29Z"/><path class="cls-11" d="M233,192c-12.69-2.06-23.74,6.18-23.74,6.18,0,6.55,10.63,12.92,23.74,12.92h0c13.11,0,23.74-6.37,23.74-12.92C256.78,198.16,245.73,189.92,233,192Z"/><path class="cls-12" d="M249.93,198.72H221.2a4.35,4.35,0,0,1,2-2.46,35.91,35.91,0,0,1,15.27-4.58,25.13,25.13,0,0,0-5.43.3c-12.68-2.06-23.74,6.18-23.74,6.18,0,6.55,10.63,12.92,23.74,12.92a41.5,41.5,0,0,0,5.44-.37c-7.62-1.05-13.84-4.24-16.66-8.05a4.37,4.37,0,0,1-.64-1.3h28.75a1.32,1.32,0,1,0,0-2.64Z"/><path class="cls-6" d="M168.3,102c24.9,0,43.76,1.68,43.76-27.19-6.42,46.41,47.88,24.08,42.64,3.93.77,29.75,18,15.15,34.89,22.64,15.93,7.08,18.27,13.37,27.71,30.76C374.4-9.43,97.68-26,150.37,132.14,153.17,125.87,159.3,102,168.3,102Z"/><path class="cls-13" d="M276.93,37c.8,9.21-.13,22.56-9.53,32.62a2.36,2.36,0,0,0,1.87,4c6.23-.44,15.37-1.74,20.42-5.51a2.37,2.37,0,0,1,3.66,1c1.27,3.29,2.84,8.65,2.16,13.76a2.36,2.36,0,0,0,4.19,1.73c4.51-5.51,8.3-15.35,2.68-31.76a2.36,2.36,0,0,0-4.13-.62l-.88,1.19a2.36,2.36,0,0,1-3.84-.06L281.21,35.43A2.35,2.35,0,0,0,276.93,37Z"/><ellipse class="cls-7" cx="192.44" cy="146.83" rx="6.98" ry="10.05"/><path class="cls-7" d="M205.12,142.49a3.08,3.08,0,0,1-1.51-.4,22.54,22.54,0,0,0-22.24-.07,3.06,3.06,0,0,1-3.26-5.18c.56-.35,13.78-8.5,28.53-.07a3.06,3.06,0,0,1-1.52,5.72Z"/><ellipse class="cls-7" cx="273.28" cy="146.83" rx="6.98" ry="10.05"/><path class="cls-7" d="M286,142.49a3.09,3.09,0,0,1-1.52-.4,22.54,22.54,0,0,0-22.24-.07,3.06,3.06,0,0,1-3.25-5.18c.55-.35,13.78-8.5,28.53-.07a3.06,3.06,0,0,1-1.52,5.72Z"/><path class="cls-14" d="M363,379.56V488.63a256.27,256.27,0,0,1-257.19-25.31V379.56a111.5,111.5,0,0,1,86.74-108.71,41.95,41.95,0,0,0,83.71,0A111.5,111.5,0,0,1,363,379.56Z"/><path class="cls-8" d="M257.6,390.59h23.5a19,19,0,0,1,19,19v22a19,19,0,0,1-19,19H257.6a0,0,0,0,1,0,0v-60A0,0,0,0,1,257.6,390.59Z"/><rect class="cls-15" x="92.1" y="381.09" width="175" height="76" rx="22.25"/><path class="cls-16" d="M111.35,381.09s-.22,40,21.34,57.57a2.49,2.49,0,0,0,4-2.57c-3.21-12.64-7.3-40.59,13.95-55Z"/><path class="cls-16" d="M176.6,381.09s-.22,40,21.34,57.57a2.49,2.49,0,0,0,4-2.57c-3.21-12.64-7.3-40.59,13.95-55Z"/><path class="cls-16" d="M141.6,457.09h38s-28-39.5-8.5-76C171.1,381.09,136.6,407.59,141.6,457.09Z"/><path class="cls-16" d="M212.85,457.09h35s-25-39.5-5.5-76C242.35,381.09,207.85,407.59,212.85,457.09Z"/><path class="cls-17" d="M160.35,345.75h0a8.35,8.35,0,0,1,8.35,8.35v27a0,0,0,0,1,0,0H152a0,0,0,0,1,0,0v-27A8.35,8.35,0,0,1,160.35,345.75Z"/><path class="cls-15" d="M282.41,275c-10,17.6-51.51,85.8-105.81,106.07h65.75s53.89-51.88,59.3-104.94c0,0-1.18-7.34-8.68-7.42A12.11,12.11,0,0,0,282.41,275Z"/></g></svg>