<svg xmlns="http://www.w3.org/2000/svg" viewBox="0 0 512 512"><defs><style>.cls-1{fill:#7cc8fb;}.cls-2{fill:#6d2d1f;}.cls-3{fill:#63261c;}.cls-4{fill:#562118;}.cls-5{fill:#fab3a7;}.cls-6{fill:#f58d89;}.cls-7{fill:#27273d;}.cls-8{fill:#e07c7c;}.cls-9{fill:#fff;}.cls-10{fill:#db1b1b;}.cls-11{fill:#703328;}.cls-12{fill:#e5e5e5;}.cls-13{fill:#32314b;}</style></defs><title>Insurance</title><g id="BULINE"><circle class="cls-1" cx="256" cy="256" r="256"/></g><g id="Icons"><path class="cls-2" d="M369,93.8V314.3a20.4,20.4,0,0,1-20.4,20.41H165.88a20.41,20.41,0,0,1-20.41-20.41V93.8a69.59,69.59,0,0,1,69.61-69.61h84.34A69.61,69.61,0,0,1,369,93.8Z"/><path class="cls-3" d="M247,142.48,173.61,334.71h-7.73a20.41,20.41,0,0,1-20.41-20.41V93.8a69.62,69.62,0,0,1,52.7-67.53,98.09,98.09,0,0,0,.11,15.08c1,12.29,4.29,27.39,12.08,44.86C217.83,102.92,229.39,121.8,247,142.48Z"/><polygon class="cls-4" points="173.61 227.28 173.61 334.71 342.3 334.71 342.3 225.64 173.61 227.28"/><path class="cls-5" d="M397.05,470.34C312.76,525.89,199,526,115,469.86c6-74.39,30-118.55,89.7-149.24,16.12-8.28,23.61-5.8,27.27-23.14,1.44-6.77-3.18-21.48.53-26.79,5-7.14,25.45-8.94,33.91-7.48,24.1,4.16,24-2.18,20.64,19.9-1.46,9.53-1.46,9.53,6.16,29.4,2.45,6.39,16.25,5.83,22.24,9.64,7,4.48,14.86,7.58,21.66,12.56,43.33,31.76,53.42,85.56,60,135.63C394.88,471.77,391.21,425.84,397.05,470.34Z"/><path class="cls-5" d="M350.39,127.88v63.35c0,47.27-37.61,62.4-65,86.44a42.2,42.2,0,0,1-56.22,0c-27.42-24-65-39.17-65-86.44V127.88c0-46.48,34.63-84.38,78-86.25,1.12-.06,2.25-.08,3.37-.08H269C314,41.55,350.39,80.2,350.39,127.88Z"/><path class="cls-6" d="M201.28,191.24V127.88c0-45.24,32.79-82.37,74.55-86-2.24-.21-4.5-.31-6.8-.31H245.46c-44.94,0-81.35,38.66-81.35,86.33v31.36a18.64,18.64,0,1,0,0,37.28h.18c2.7,43.14,38.47,58.05,64.84,81.15a42.07,42.07,0,0,0,46.7,6.37,43.7,43.7,0,0,1-9.53-6.37C238.88,253.64,201.28,238.49,201.28,191.24Z"/><circle class="cls-5" cx="350.39" cy="177.88" r="18.64"/><path class="cls-7" d="M232.94,155.78a3.44,3.44,0,0,1-1.89-.56c-18.23-11.76-40,0-40.19.12a3.5,3.5,0,1,1-3.4-6.12c1-.57,25.58-13.95,47.38.12a3.5,3.5,0,0,1-1.9,6.44Z"/><ellipse class="cls-7" cx="210.74" cy="175.63" rx="7.79" ry="11.21"/><path class="cls-7" d="M279.69,155.78a3.5,3.5,0,0,1-1.71-6.56c1-.57,25.58-13.95,47.39.12a3.5,3.5,0,0,1-3.8,5.88c-18.31-11.81-40,0-40.18.12A3.5,3.5,0,0,1,279.69,155.78Z"/><ellipse class="cls-7" cx="301.26" cy="175.63" rx="7.79" ry="11.21"/><rect class="cls-6" x="243" y="196.52" width="27.08" height="10.27" rx="4.71"/><path class="cls-7" d="M224.9,170.87a3.54,3.54,0,0,1-1.74-.46c-12.89-7.37-24.59-.15-24.71-.08a3.5,3.5,0,0,1-3.74-5.92c.62-.39,15.42-9.51,31.93-.08a3.5,3.5,0,0,1-1.74,6.54Z"/><path class="cls-7" d="M315.42,170.87a3.48,3.48,0,0,1-1.73-.46c-12.89-7.37-24.6-.15-24.72-.08a3.5,3.5,0,0,1-3.73-5.92c.62-.39,15.42-9.5,31.92-.08a3.5,3.5,0,0,1-1.74,6.54Z"/><path class="cls-8" d="M164.64,170.47a7.41,7.41,0,0,0,0,14.82Z"/><path class="cls-6" d="M350.39,185.29a7.41,7.41,0,1,0,0-14.82Z"/><path class="cls-9" d="M237.13,230c0,10.2,9,20.1,20.12,20.1h0c11.11,0,18.58-9.9,18.58-20.1Z"/><path class="cls-10" d="M276.54,230a23,23,0,0,1-5.89,15.12,19.18,19.18,0,0,1-14.23,6.78c-11.11,0-20.12-10.79-20.12-21.9h1.17c2.79,8.25,10.22,14.92,19,14.92a19.15,19.15,0,0,0,14.23-6.79,23.58,23.58,0,0,0,4.72-8.13Z"/><path class="cls-10" d="M256.42,224.8c-10.75-1.74-20.11,5.24-20.11,5.24h40.23S267.18,223.06,256.42,224.8Z"/><path class="cls-2" d="M271.48,34.58c-9.75-.06-19.66-.47-29.4.1.07.51.16,1,.24,1.54l-45.74,5.33L160.94,83.34,153,149.62l11.08,9.62c6.83-28,44.31-87.65,84.48-80.68,17.15,3,24.1,29.78,36.68,42.77,19.64,20.28,45.74,37.43,74.9,38.57v-27C360.17,78.62,320.45,34.58,271.48,34.58Z"/><path class="cls-3" d="M210.36,86.21c-18.29,12.19-36.74,34-46.26,73L153,149.62l7.9-66.28,35.65-41.79,1.7-.2C199.26,53.64,202.57,68.74,210.36,86.21Z"/><path class="cls-11" d="M313.37,44.21c.91,10.29-.13,25.18-10.62,36.4a2.63,2.63,0,0,0,2.08,4.44c6.95-.49,17.16-1.93,22.79-6.15A2.64,2.64,0,0,1,331.7,80c1.41,3.68,3.17,9.65,2.41,15.35a2.63,2.63,0,0,0,4.67,1.93c5-6.15,9.27-17.12,3-35.43a2.63,2.63,0,0,0-4.61-.69l-1,1.32a2.62,2.62,0,0,1-4.28-.06L318.16,42.5A2.63,2.63,0,0,0,313.37,44.21Z"/><path class="cls-9" d="M397.05,470.34C312.76,525.89,199,526,115,469.86c3.88-48.12,18.71-106,60.53-135.15h0a87.8,87.8,0,0,1,29.16-14.09l52.12,13.51,53.91-14c62.63,24.16,78.48,90.09,86.37,150.18C394.88,471.77,391.21,425.84,397.05,470.34Z"/><path class="cls-12" d="M320.18,324.17a86,86,0,0,0-11.06-3.55L261,333.1l-4.08,3-4.09-3-48.15-12.48a85.78,85.78,0,0,0-11.05,3.55c-3.09,1.46-6,3-8.88,4.64l38.78,46.95a8,8,0,0,0,13.17-1.13,81.29,81.29,0,0,1,14.19-18.36,8.58,8.58,0,0,1,12.06,0,81.27,81.27,0,0,1,14.18,18.36,8,8,0,0,0,13.18,1.13l38.78-46.95C326.22,327.18,323.27,325.63,320.18,324.17Z"/><path class="cls-9" d="M308.17,311.58a8.25,8.25,0,0,0-10.58-1.75l-40.4,24.41-40.41-24.41a8.25,8.25,0,0,0-10.58,1.75L196.58,323l32.56,41.46a2.9,2.9,0,0,0,5-.86c4.61-14.22,19.48-25.78,23-28.36,3.52,2.58,18.39,14.14,23,28.36a2.9,2.9,0,0,0,5,.86L317.79,323Z"/><circle class="cls-9" cx="256.89" cy="398.38" r="7.31"/><circle class="cls-10" cx="256.89" cy="429.69" r="7.31"/><circle class="cls-10" cx="256.89" cy="461" r="7.31"/><path class="cls-13" d="M164.73,170.87h-15V136.75c0-58.69,43.66-106.43,97.33-106.43h23.27c53.67,0,97.33,47.74,97.33,106.43v33.67h-15V136.75c0-50.41-36.93-91.43-82.33-91.43H247.06c-45.4,0-82.33,41-82.33,91.43Z"/><path class="cls-10" d="M379.17,146.12h16a0,0,0,0,1,0,0v66.67a0,0,0,0,1,0,0h-16a10.64,10.64,0,0,1-10.64-10.64V156.76A10.64,10.64,0,0,1,379.17,146.12Z" transform="translate(763.72 358.9) rotate(180)"/><rect class="cls-9" x="346.86" y="134.7" width="24.67" height="89.5" rx="12.33" transform="translate(718.38 358.9) rotate(180)"/><path class="cls-13" d="M208,249.48H157.23a5,5,0,0,1-5-5V201.65h10v37.83H208Z"/><path class="cls-10" d="M132.87,146.12h16a0,0,0,0,1,0,0v66.67a0,0,0,0,1,0,0h-16a10.64,10.64,0,0,1-10.64-10.64V156.76A10.64,10.64,0,0,1,132.87,146.12Z"/><rect class="cls-9" x="145.9" y="134.7" width="24.67" height="89.5" rx="12.33"/><ellipse class="cls-9" cx="214.07" cy="244.98" rx="17.85" ry="12.83"/></g></svg>