<svg xmlns="http://www.w3.org/2000/svg" viewBox="0 0 512 512"><defs><style>.cls-1{fill:#fc4581;}.cls-2{fill:#b0d46c;}.cls-3{fill:#a0c157;}.cls-4{fill:#cfea94;}.cls-5{fill:#e4efc2;}.cls-6{fill:#db1b1b;}.cls-7{fill:#bf1919;}</style></defs><title>Insurance</title><g id="BULINE"><circle class="cls-1" cx="256" cy="256" r="256"/></g><g id="Icons"><path class="cls-2" d="M443.41,152.56,425.84,363.07C421.11,419.66,315.9,466.2,273.49,482.72a48.27,48.27,0,0,1-35,0C196.1,466.2,90.89,419.66,86.16,363.07L68.59,152.56c-1.38-16.61,8.78-32.15,25.14-38.33,39.76-15,112.41-45.68,147.71-81.07a20.79,20.79,0,0,1,29.12,0c35.3,35.39,108,66.06,147.71,81.07C434.63,120.41,444.79,136,443.41,152.56Z"/><path class="cls-3" d="M256,27.21V486a48.24,48.24,0,0,1-17.49-3.28C196.1,466.2,90.89,419.66,86.16,363.07L68.59,152.56c-1.38-16.61,8.78-32.15,25.14-38.33,39.76-15,112.41-45.68,147.71-81.07A20.52,20.52,0,0,1,256,27.21Z"/><path class="cls-4" d="M268,72.71a17.11,17.11,0,0,0-24,0c-29,29.12-88.84,54.36-121.57,66.72C109,144.51,100.62,157.3,101.76,171l14.46,173.26c3.88,46.57,90.48,84.87,125.39,98.48a39.8,39.8,0,0,0,28.78,0C305.3,429.1,391.9,390.8,395.78,344.23L410.24,171c1.14-13.67-7.23-26.46-20.68-31.54C356.83,127.07,297,101.83,268,72.71Z"/><path class="cls-2" d="M256,67.81V445.4a39.59,39.59,0,0,1-14.4-2.69c-34.9-13.6-121.5-51.9-125.38-98.49L101.75,171c-1.13-13.65,7.24-26.45,20.69-31.53C155.17,127.08,215,101.83,244,72.71A16.89,16.89,0,0,1,256,67.81Z"/><circle class="cls-5" cx="371.12" cy="170.88" r="18.92"/><circle class="cls-5" cx="337.46" cy="150.36" r="13.4"/><path class="cls-3" d="M231.23,163.77V373.39H207a11.92,11.92,0,0,1-11.92-11.92V316.62a11.93,11.93,0,0,0-11.93-11.92H138.34a11.91,11.91,0,0,1-11.92-11.92v-48.4a11.92,11.92,0,0,1,11.92-11.93h44.84a11.92,11.92,0,0,0,11.93-11.92V175.69A11.91,11.91,0,0,1,207,163.77Z"/><path class="cls-6" d="M347.92,232.46H303.08a11.92,11.92,0,0,1-11.92-11.92V175.69a11.92,11.92,0,0,0-11.92-11.92H230.83a11.92,11.92,0,0,0-11.92,11.92v44.85A11.92,11.92,0,0,1,207,232.46H162.14a11.91,11.91,0,0,0-11.91,11.92v48.41a11.91,11.91,0,0,0,11.91,11.91H207a11.92,11.92,0,0,1,11.92,11.92v44.85a11.92,11.92,0,0,0,11.92,11.92h48.41a11.92,11.92,0,0,0,11.92-11.92V316.62a11.92,11.92,0,0,1,11.92-11.92h44.84a11.91,11.91,0,0,0,11.92-11.91V244.38A11.91,11.91,0,0,0,347.92,232.46Z"/><path class="cls-7" d="M255,163.77V373.39H230.83a11.92,11.92,0,0,1-11.92-11.92V316.62A11.92,11.92,0,0,0,207,304.7H162.15a11.91,11.91,0,0,1-11.92-11.92v-48.4a11.92,11.92,0,0,1,11.92-11.93H207a11.91,11.91,0,0,0,11.92-11.92V175.69a11.92,11.92,0,0,1,11.92-11.92Z"/></g></svg>