<svg xmlns="http://www.w3.org/2000/svg" viewBox="0 0 512 512"><defs><style>.cls-1{fill:#27273d;}.cls-2{fill:#ccc;}.cls-3{fill:#e2e2e2;}.cls-4{fill:#fff;}.cls-5{fill:#3e436d;}.cls-6{fill:#a65c3b;}.cls-7{fill:#9e4830;}.cls-8{fill:#f6c752;}.cls-9{fill:#b56748;}.cls-10{fill:#e88032;}</style></defs><title>Insurance</title><g id="BULINE"><circle class="cls-1" cx="256" cy="256" r="256"/></g><g id="Icons"><path class="cls-2" d="M319.3,55.23V387.12a6.91,6.91,0,0,1-6.91,6.91H82.89A6.91,6.91,0,0,1,76,387.12V107.43L135.1,48.32H312.39A6.91,6.91,0,0,1,319.3,55.23Z"/><path class="cls-3" d="M135.1,48.32V80.38A27.05,27.05,0,0,1,108,107.43H76Z"/><path class="cls-4" d="M358.75,77.81v331.9a6.95,6.95,0,0,1-6.91,6.91H122.33a6.92,6.92,0,0,1-6.91-6.91V130L174.54,70.9h177.3A6.92,6.92,0,0,1,358.75,77.81Z"/><path class="cls-5" d="M319.3,189H148.93a4.86,4.86,0,0,1,0-9.71H319.3a4.86,4.86,0,0,1,0,9.71Z"/><path class="cls-5" d="M237.38,218H148.93a4.86,4.86,0,0,1,0-9.71h88.45a4.86,4.86,0,1,1,0,9.71Z"/><path class="cls-5" d="M319.3,218H252.77a4.86,4.86,0,0,1,0-9.71H319.3a4.86,4.86,0,0,1,0,9.71Z"/><path class="cls-5" d="M319.3,279H227.49a4.85,4.85,0,1,1,0-9.7H319.3a4.85,4.85,0,0,1,0,9.7Z"/><path class="cls-5" d="M278.34,142.14H189.89a4.86,4.86,0,0,1,0-9.71h88.45a4.86,4.86,0,0,1,0,9.71Z"/><path class="cls-5" d="M319.3,250.06H148.93a4.86,4.86,0,0,1,0-9.71H319.3a4.86,4.86,0,0,1,0,9.71Z"/><path class="cls-5" d="M209.05,279.17H148.93a5,5,0,0,1,0-10h60.12a5,5,0,0,1,0,10Z"/><path class="cls-5" d="M319.3,311.07H148.93a4.85,4.85,0,1,1,0-9.7H319.3a4.85,4.85,0,0,1,0,9.7Z"/><path class="cls-5" d="M237.38,340H148.93a4.86,4.86,0,0,1,0-9.71h88.45a4.86,4.86,0,1,1,0,9.71Z"/><path class="cls-3" d="M174.54,70.91V103a27,27,0,0,1-27,27.05H115.42Z"/><path class="cls-5" d="M182.36,394.94a3.17,3.17,0,0,1-.43,0,4.84,4.84,0,0,1-3.65-2.2l-6.21-9.65-7.42,4.4a4.84,4.84,0,0,1-4.76.11,45.57,45.57,0,0,1-4.77-2.91,39.37,39.37,0,0,1-3.55,2.7,4.85,4.85,0,0,1-5.3-8.13h0s.83-.56,2-1.48a13.69,13.69,0,0,1-2.15-7.29c0-10.06,11.31-16.46,12.61-17.16a4.84,4.84,0,0,1,6.78,2.42c3.56,8.58.53,16.19-3.6,21.8l.24.15,9-5.35a4.86,4.86,0,0,1,6.56,1.55l5.35,8.32,6.54-7.05a4.82,4.82,0,0,1,5-1.32l9.83,3.16h18.16a4.85,4.85,0,1,1,0,9.7H203.71a4.73,4.73,0,0,1-1.49-.23L194.61,384l-8.69,9.38A4.84,4.84,0,0,1,182.36,394.94Z"/><path class="cls-3" d="M356.09,296.88V415.14a6.83,6.83,0,0,1-4.25,1.48H293c-6-30,23.39-58,40.54-86.05h-.63c1.95-3.2-9.29-6.13,2.23-9.88-2.63-11.44-23.16-16.76-7-23.8C335,293.89,348,296.77,356.09,296.88Z"/><path class="cls-6" d="M397.37,314.3l9.44-9.45a4.65,4.65,0,0,0-3.29-8H341.23a4.66,4.66,0,0,0-3.3,8l9.45,9.45a13.25,13.25,0,0,1,.56,18.14c-17.93,20.32-39.16,48.67-39.16,69a63.6,63.6,0,0,0,127.19,0c0-20.3-21.23-48.65-39.16-69A13.25,13.25,0,0,1,397.37,314.3Z"/><path class="cls-7" d="M393.33,324.78v1.69a3.56,3.56,0,0,1,0,.57,4.1,4.1,0,0,1-4.05,3.52H371.5V372a4.09,4.09,0,0,1-4.09,4.09h-1.7a4.09,4.09,0,0,1-4.09-4.09V340.88l-23.85,23.86a4.09,4.09,0,0,1-5.79,0l-1.2-1.2a4.09,4.09,0,0,1,0-5.79L358,330.56h-9.29a13.23,13.23,0,0,0,1.6-9.87h39a4.08,4.08,0,0,1,3.63,2.2A4,4,0,0,1,393.33,324.78Z"/><path class="cls-7" d="M430.73,426.73a63.61,63.61,0,0,1-122-25.32c0-12.64,8.22-28.39,18.77-43.39-5.26,9.7-8.68,19.15-8.68,27.29a63.6,63.6,0,0,0,111.86,41.42Z"/><path class="cls-7" d="M400,296.9l-11.33,26a3.46,3.46,0,0,1-6.59-.77l-4.52-25.21Z"/><path class="cls-7" d="M344.78,296.9l11.33,26a3.46,3.46,0,0,0,6.59-.77l4.53-25.21Z"/><path class="cls-8" d="M394.93,320.69H349.58a4.09,4.09,0,0,0-4.09,4.09v1.69a4.09,4.09,0,0,0,4.09,4.09h14.09l-27.19,27.2a4.08,4.08,0,0,0,0,5.78l1.2,1.2a4.08,4.08,0,0,0,5.78,0l23.86-23.85V372a4.09,4.09,0,0,0,4.09,4.09h1.69a4.09,4.09,0,0,0,4.09-4.09V330.56h17.74a4.1,4.1,0,0,0,4.1-4.09v-1.69A4.1,4.1,0,0,0,394.93,320.69Z"/><circle class="cls-9" cx="413.37" cy="371.23" r="6.66"/><circle class="cls-9" cx="406.49" cy="359.18" r="4.72"/><circle class="cls-10" cx="371.83" cy="414.87" r="25.94"/><path class="cls-8" d="M372.91,435.84h-3.68v-4.57a13,13,0,0,1-6.85-2.89c-1.84-1.55-2.89-4.18-3.15-7.87h6.45q0,.28,0,.42a5.53,5.53,0,0,0,.94,3.19,4.52,4.52,0,0,0,2.64,1.8V414.85q-5.53-2.57-7.47-5.05a8.8,8.8,0,0,1-1.93-5.47,8.33,8.33,0,0,1,2.59-6.16,10.46,10.46,0,0,1,6.81-2.9v-1.36h3.68v1.36a11.45,11.45,0,0,1,7.23,2.92,8.84,8.84,0,0,1,2.69,6.69h-6.45q-.44-4.11-3.47-4.44v8.69l3.55,1.59a16.73,16.73,0,0,1,4.79,3.1,9.81,9.81,0,0,1,2.48,3.61,11,11,0,0,1,.69,3.81,9.14,9.14,0,0,1-3.12,7.05,12.44,12.44,0,0,1-8.39,3Zm-3.68-35.38q-3,.56-3,3.08c0,1.45,1,2.75,3,3.92Zm3.68,25.69a5.25,5.25,0,0,0,3.69-1.25,3.93,3.93,0,0,0,1.45-3.06q0-3.42-5.14-5.4Z"/></g></svg>