<svg xmlns="http://www.w3.org/2000/svg" viewBox="0 0 512 512"><defs><style>.cls-1{fill:#27273d;}.cls-2{fill:#fcc8bc;}.cls-3{fill:#fab3a7;}.cls-4{fill:#fff9f8;}.cls-5{fill:#fff;}.cls-6{fill:#7cc8fb;}.cls-7{fill:#41c0e3;}.cls-8{fill:#db1b1b;}.cls-9{fill:#a81b1b;}.cls-10{fill:#eaeaea;}.cls-11{fill:#bf1b1b;}.cls-12{fill:#ed6464;}.cls-13{fill:#e83f3f;}.cls-14{fill:#d6d8d8;}.cls-15{fill:#a4dcfc;}</style></defs><title>Insurance</title><g id="BULINE"><circle class="cls-1" cx="256" cy="256" r="256"/></g><g id="Icons"><path class="cls-2" d="M195.41,504.78a254,254,0,0,1-68.36-27.59c-24.64-58.83-72-172-73-174.74-5.36-15.17,14.73-54.95,19.16-63.38,2.59-4.93,5.53-9.3,8.88-11.81a13.38,13.38,0,0,1,2.36-1.41c9.64-4.39,19.66,5.68,16.09,15.41-3.74,10.07-16.22,42.3-14,49.77,1.2,4,3.44,8.06,5.11,11.92a13.76,13.76,0,0,1,20.8-16.38c5.15,3.74,7.19,11.82,9.58,17.43,2.55,6,11.28,27.47,15.28,30.93,6.87,6,11.94,7.52,16.33,16.34a55.08,55.08,0,0,1,5.67,24.14c.07,8.06-3.7,16.11-3.6,23.83C155.86,409.61,179.59,467,195.41,504.78Z"/><path class="cls-3" d="M137,482.69q-5-2.64-9.92-5.5c-24.64-58.83-72-172-73-174.74-5.36-15.17,14.73-54.95,19.16-63.38,2.59-4.93,5.53-9.3,8.88-11.81a11.7,11.7,0,0,1,11.27-1.65,4.74,4.74,0,0,1,1.51.72,12.3,12.3,0,0,0-4.64,2.18c-3.36,2.51-6.3,6.87-8.88,11.81-4.43,8.43-24.52,48.21-19.16,63.38C63.2,306.53,112.92,425.26,137,482.69Z"/><path class="cls-3" d="M98.57,285.24a13.76,13.76,0,0,0-7.26,18.07L109.57,346c.14-.26.29-.52.44-.77a11.9,11.9,0,0,0,.61-10.65L96.33,301.17a13.74,13.74,0,0,1,3.74-15.89,10.28,10.28,0,0,1,1.11-.86A13.15,13.15,0,0,0,98.57,285.24Z"/><path class="cls-4" d="M101.53,288.42h6.75a2.36,2.36,0,0,1,2.36,2.36v11.54a2.36,2.36,0,0,1-2.36,2.36h-6.75A5.49,5.49,0,0,1,96,299.2v-5.29A5.49,5.49,0,0,1,101.53,288.42Z" transform="translate(-128.77 508.09) rotate(-113.13)"/><path class="cls-4" d="M73.22,239.07l3.29,1.75a5.47,5.47,0,0,0,7.42-2.27l3.17-6a2.37,2.37,0,0,0-1-3.2l-4-2.14C78.75,229.77,75.81,234.14,73.22,239.07Z"/><path class="cls-2" d="M458.27,296.91c-.77,2.71-38.18,110-59.72,171.76A254.78,254.78,0,0,1,332,500.54c13.34-38.41,31.22-91.06,30.74-100.82-.38-7.71-4.63-15.52-5.06-23.57a55.17,55.17,0,0,1,4.19-24.44c3.84-9.06,8.81-10.92,15.31-17.3,3.77-3.7,11.18-25.7,13.36-31.81,2-5.74,3.58-13.93,8.5-18a13.76,13.76,0,0,1,21.76,15.08c1.43-3.95,3.42-8.14,4.37-12.21,1.79-7.59-12.64-39-17-48.82-4.16-9.49,5.23-20.16,15.12-16.36a12.3,12.3,0,0,1,2.44,1.26c3.5,2.3,6.71,6.48,9.59,11.25C440.21,243,462.69,281.44,458.27,296.91Z"/><path class="cls-3" d="M415.64,284a13.64,13.64,0,0,0-9.51,3.07c-4.92,4-6.46,12.23-8.51,18-2.17,6.11-9.58,28.1-13.36,31.81-6.49,6.37-11.46,8.23-15.3,17.29a54.93,54.93,0,0,0-4.19,24.45c.42,8,4.67,15.85,5.05,23.56.46,9.3-15.77,57.61-28.85,95.39q-4.47,1.59-9,3c13.34-38.41,31.22-91.06,30.74-100.82-.38-7.71-4.63-15.52-5.06-23.57a55.17,55.17,0,0,1,4.19-24.44c3.84-9.06,8.81-10.92,15.31-17.3,3.77-3.7,11.18-25.7,13.36-31.81,2-5.74,3.58-13.93,8.5-18A13.88,13.88,0,0,1,415.64,284Z"/><path class="cls-3" d="M412.79,282.44a13.78,13.78,0,0,1,8.35,17.6L405.53,343.8c-.17-.25-.33-.5-.5-.74a11.89,11.89,0,0,1-1.25-10.59L416,298.21a13.76,13.76,0,0,0-4.7-15.64,13.15,13.15,0,0,0-1.16-.79A13.88,13.88,0,0,1,412.79,282.44Z"/><path class="cls-4" d="M406.91,285.9h6.75a2.36,2.36,0,0,1,2.36,2.36V299.8a2.36,2.36,0,0,1-2.36,2.36h-6.75a5.49,5.49,0,0,1-5.49-5.49v-5.29A5.49,5.49,0,0,1,406.91,285.9Z" transform="translate(-5.55 580.19) rotate(-70.37)"/><path class="cls-4" d="M435.28,234.82l-3.18,1.94a5.48,5.48,0,0,1-7.55-1.81L421,229.2a2.37,2.37,0,0,1,.78-3.25l3.88-2.38C429.19,225.87,432.4,230.05,435.28,234.82Z"/><rect class="cls-5" x="142.53" y="130.95" width="224.3" height="153.91"/><path class="cls-6" d="M272.07,163.77V238.2a5,5,0,0,1-5,5H159.64a4.9,4.9,0,0,1-2.6-.74,5,5,0,0,1-2.37-4.23V163.77a5,5,0,0,1,5-5H267.1A5,5,0,0,1,272.07,163.77Z"/><path class="cls-7" d="M272.07,231.71v6.49a5,5,0,0,1-5,5H159.63a5,5,0,0,1-5-5V163.78a5,5,0,0,1,5-5h9.85v67.93a5,5,0,0,0,5,5Z"/><path class="cls-6" d="M354.78,163.1V284.86H285.36V163.1a4.31,4.31,0,0,1,4.3-4.3h60.82A4.3,4.3,0,0,1,354.78,163.1Z"/><path class="cls-7" d="M354.78,276.08v8.78H285.36V163.11a4.29,4.29,0,0,1,4.3-4.3h6.12v95.43a21.84,21.84,0,0,0,21.84,21.84Z"/><path class="cls-8" d="M154.31,48.49H358a8.38,8.38,0,0,1,8.38,8.38V69.36a0,0,0,0,1,0,0H145.93a0,0,0,0,1,0,0V56.88A8.38,8.38,0,0,1,154.31,48.49Z"/><path class="cls-9" d="M366.34,62.12v7.24H145.93V56c0-4.12,4.21-7.47,9.4-7.47H162a1.69,1.69,0,0,0,0,.23v1.37c0,6.64,6.78,12,15.14,12Z"/><path class="cls-9" d="M129.6,134.32h50.56a0,0,0,0,1,0,0v0a13,13,0,0,1-13,13H142.59a13,13,0,0,1-13-13v0A0,0,0,0,1,129.6,134.32Z"/><path class="cls-10" d="M180.16,134.32h50.56a0,0,0,0,1,0,0v0a13,13,0,0,1-13,13H193.15a13,13,0,0,1-13-13v0A0,0,0,0,1,180.16,134.32Z"/><path class="cls-11" d="M230.72,134.32h50.56a0,0,0,0,1,0,0v0a13,13,0,0,1-13,13H243.71a13,13,0,0,1-13-13v0a0,0,0,0,1,0,0Z"/><path class="cls-10" d="M281.28,134.32h50.56a0,0,0,0,1,0,0v0a13,13,0,0,1-13,13H294.27a13,13,0,0,1-13-13v0A0,0,0,0,1,281.28,134.32Z"/><path class="cls-12" d="M331.84,134.32H382.4a0,0,0,0,1,0,0v0a13,13,0,0,1-13,13H344.83a13,13,0,0,1-13-13v0A0,0,0,0,1,331.84,134.32Z"/><polygon class="cls-8" points="275.81 69.36 236.19 69.36 230.72 134.32 281.28 134.32 275.81 69.36"/><polygon class="cls-5" points="236.19 69.36 191.11 69.36 180.16 134.32 230.72 134.32 236.19 69.36"/><polygon class="cls-11" points="191.11 69.36 146.02 69.36 129.6 134.32 180.16 134.32 191.11 69.36"/><polygon class="cls-5" points="320.89 69.36 275.81 69.36 281.28 134.32 331.84 134.32 320.89 69.36"/><polygon class="cls-13" points="365.98 69.36 320.89 69.36 331.84 134.32 382.4 134.32 365.98 69.36"/><rect class="cls-14" x="129.33" y="284.86" width="253.34" height="17.01" rx="4.32"/><path class="cls-15" d="M240.67,158.8,157,242.43a5,5,0,0,1-2.37-4.23V224.54l65.74-65.74Z"/><path class="cls-15" d="M272.07,163.77V175l-68.14,68.15H168.48l84.38-84.37H267.1A5,5,0,0,1,272.07,163.77Z"/><path class="cls-15" d="M354.78,163.1v6.41l-69.42,69.41V218.67l59.85-59.87h5.27A4.3,4.3,0,0,1,354.78,163.1Z"/><polygon class="cls-15" points="354.78 181.68 354.78 217.12 287.06 284.86 285.36 284.86 285.36 251.1 354.78 181.68"/></g></svg>