<svg xmlns="http://www.w3.org/2000/svg" viewBox="0 0 512 512"><defs><style>.cls-1{fill:#934cf5;}.cls-2{fill:#f6c752;}.cls-3{fill:#fcc8bc;}.cls-4{fill:#fab3a7;}.cls-5{fill:#e88032;}.cls-6{fill:#27273d;}.cls-7{fill:#f58d89;}.cls-8{fill:#fff;}.cls-9{fill:#c5e8fc;}.cls-10{fill:#accedd;}.cls-11{fill:#7cc8fb;}.cls-12{fill:#f6d372;}.cls-13{fill:#32314b;}.cls-14{fill:#db1b1b;}</style></defs><title>Insurance</title><g id="BULINE"><circle class="cls-1" cx="256" cy="256" r="256"/></g><g id="Icons"><path class="cls-2" d="M278.89,21H236.68a81.89,81.89,0,0,0-81.85,84.74l2.34,67.3H358.4l2.34-67.3A81.89,81.89,0,0,0,278.89,21Z"/><path class="cls-3" d="M400.43,467.74c-86.67,59.22-205,58.42-290.86-2.11,9.46-59.08,23.55-118.11,82-146.59,6.07-3,14-2.38,19.69-5.85,30.25-18.55,13.9-27,19.13-51.09,3.21-14.8,52-6.27,57.53,2.15,5.09,7.7-3,24.31,1.3,33.35,6.76,14.07,15.62,12.19,27.18,19.86,58.36,38.73,74.86,81.19,84.06,150.28C397.21,469.94,392.52,408.27,400.43,467.74Z"/><path class="cls-3" d="M352.68,122.43v64.12c0,47.84-38.07,63.16-65.82,87.49A42.73,42.73,0,0,1,230,274c-27.75-24.33-65.82-39.65-65.82-87.49V122.43c0-47.05,35-85.41,78.92-87.3,1.13-.06,2.28-.08,3.42-.08h23.87C315.81,35.05,352.68,74.17,352.68,122.43Z"/><path class="cls-4" d="M201.75,186.56V122.43c0-45.79,33.2-83.37,75.46-87.07-2.27-.22-4.56-.31-6.88-.31H246.47c-45.48,0-82.34,39.12-82.34,87.38v31.74a18.87,18.87,0,0,0,0,37.73h.18c2.74,43.67,38.95,58.76,65.64,82.14a42.55,42.55,0,0,0,47.26,6.45,43.43,43.43,0,0,1-9.64-6.45C239.82,249.72,201.75,234.39,201.75,186.56Z"/><circle class="cls-3" cx="352.68" cy="173.04" r="18.87"/><path class="cls-5" d="M189.49,150.63a3.5,3.5,0,0,1-1.71-6.56c1.05-.59,25.87-14.11,47.92.11a3.5,3.5,0,1,1-3.79,5.89c-18.56-12-40.5,0-40.72.11A3.49,3.49,0,0,1,189.49,150.63Z"/><ellipse class="cls-6" cx="211.33" cy="170.76" rx="7.88" ry="11.35"/><path class="cls-5" d="M325.43,150.63a3.59,3.59,0,0,1-1.9-.56c-18.47-11.92-40.5,0-40.72.12a3.5,3.5,0,0,1-3.4-6.12c1-.59,25.87-14.11,47.92.11a3.51,3.51,0,0,1-1.9,6.45Z"/><ellipse class="cls-6" cx="302.96" cy="170.76" rx="7.88" ry="11.35"/><rect class="cls-4" x="244.35" y="191.9" width="27.41" height="10.39" rx="4.76"/><path class="cls-6" d="M225.66,165.9a3.48,3.48,0,0,1-1.73-.46,25.41,25.41,0,0,0-25.08-.07,3.5,3.5,0,0,1-3.72-5.93c.63-.39,15.59-9.61,32.27-.08a3.5,3.5,0,0,1-1.74,6.54Z"/><path class="cls-6" d="M317.29,165.9a3.54,3.54,0,0,1-1.74-.46c-13.07-7.47-24.94-.15-25.06-.08a3.5,3.5,0,0,1-3.74-5.92c.63-.39,15.59-9.61,32.28-.08a3.5,3.5,0,0,1-1.74,6.54Z"/><path class="cls-7" d="M164.67,165.53a7.51,7.51,0,0,0,0,15Z"/><path class="cls-4" d="M352.68,180.54a7.51,7.51,0,0,0,0-15Z"/><path class="cls-8" d="M236.18,221.47a1.85,1.85,0,0,0-1.85,2c1,12.42,11.25,23.92,23.73,23.92h0c12.48,0,22.72-11.5,23.73-23.92a1.86,1.86,0,0,0-1.85-2Z"/><path class="cls-2" d="M347.15,74.53,318.57,41.6,258.06,26.07v-.14l-.28.07-.27-.07v.14L197,41.6,168.41,74.53l-11.24,50.71,7,28.93s17.21-11,20.62-35.75a46,46,0,0,1,6.59-18.6C200.42,85.59,219.9,65.61,250.55,86a13.58,13.58,0,0,0,15,0c30.66-20.45,49.9-.38,58.81,13.85a45.58,45.58,0,0,1,6.4,18.31c3.34,24.92,20.65,36,20.65,36l7-28.93Z"/><path class="cls-9" d="M400.43,467.74c-86.67,59.22-205,58.42-290.86-2.11,10.78-67.34,25-136,101.66-152.44l33.13,33c3.86-1.34,10.52-5.11,14.76-5.11l6.49,5.11c18.43-8.22,33.68-35.46,52.52-27.91,64.4,25.79,74.46,90.56,82.3,149.43C397.21,469.94,392.52,408.27,400.43,467.74Z"/><path class="cls-10" d="M259.11,348.72l-31.3,42.45a5.7,5.7,0,0,1-9.95-1.41l-26-69.56a4.39,4.39,0,0,1-.29-1.16c1.42-.56,3.31-1.16,5.47-1.8,4.13-1.22,9.28-2.57,14.23-4.05l33.12,33,9.53-3.3Z"/><path class="cls-6" d="M282.48,510.7a260,260,0,0,1-54.13-.23l21.93-134-7.91-5-4.24-2.68L256,345.24l3.14-4.13,20.62,27.64L266.08,377Z"/><rect class="cls-11" x="287.51" y="400.09" width="58.39" height="16.68" rx="3.79"/><path class="cls-12" d="M300.62,32.31c.91,10.4-.14,25.48-10.76,36.84A2.66,2.66,0,0,0,292,73.64c7-.49,17.37-2,23.07-6.22a2.67,2.67,0,0,1,4.13,1.11c1.43,3.72,3.21,9.77,2.44,15.54a2.66,2.66,0,0,0,4.73,2c5.1-6.22,9.38-17.33,3-35.86a2.67,2.67,0,0,0-4.67-.7l-1,1.34a2.67,2.67,0,0,1-4.34-.07L305.46,30.57A2.66,2.66,0,0,0,300.62,32.31Z"/><path class="cls-8" d="M220.33,304.35l-15.86,7.55a4.38,4.38,0,0,0-2.22,5.53l21.86,57.73a4.81,4.81,0,0,0,8.36,1.17l26.29-35.22s-25.37-27.87-33.43-35.91A4.39,4.39,0,0,0,220.33,304.35Z"/><path class="cls-8" d="M292.55,305.2c-8.07,8-33.44,35.91-33.44,35.91l26.29,35.22a4.81,4.81,0,0,0,8.36-1.17l21.87-57.73a4.4,4.4,0,0,0-2.23-5.53l-15.86-7.55A4.38,4.38,0,0,0,292.55,305.2Z"/><path class="cls-10" d="M250.28,376.45l-21.93,134q-7-.77-13.76-1.89l27.78-137.15Z"/><path class="cls-13" d="M165.66,164.5h-15V130.38C150.66,71.69,194.33,24,248,24h23.27c53.67,0,97.33,47.74,97.33,106.43v33.67h-15V130.38C353.6,80,316.66,39,271.27,39H248c-45.4,0-82.34,41-82.34,91.43Z"/><path class="cls-14" d="M380.1,139.75h16a0,0,0,0,1,0,0v66.67a0,0,0,0,1,0,0h-16a10.64,10.64,0,0,1-10.64-10.64V150.39A10.64,10.64,0,0,1,380.1,139.75Z" transform="translate(765.59 346.16) rotate(180)"/><rect class="cls-8" x="347.79" y="128.33" width="24.67" height="89.5" rx="12.33" transform="translate(720.25 346.16) rotate(-180)"/><path class="cls-13" d="M209,243.11H158.16a5,5,0,0,1-5-5V195.28h10v37.83H209Z"/><path class="cls-14" d="M133.81,139.75h16a0,0,0,0,1,0,0v66.67a0,0,0,0,1,0,0h-16a10.64,10.64,0,0,1-10.64-10.64V150.39A10.64,10.64,0,0,1,133.81,139.75Z"/><rect class="cls-8" x="146.83" y="128.33" width="24.67" height="89.5" rx="12.33"/><ellipse class="cls-8" cx="215.01" cy="238.61" rx="17.85" ry="12.83"/></g></svg>