<svg xmlns="http://www.w3.org/2000/svg" viewBox="0 0 512 512"><defs><style>.cls-1{fill:#fc4581;}.cls-2{fill:#a65c3b;}.cls-3{fill:#9e4830;}.cls-4{fill:#f6c752;}.cls-5{fill:#b56748;}.cls-6{fill:#e88032;}.cls-7{fill:#fcc8bc;}.cls-8{fill:#fab3a7;}.cls-9{fill:#fff9f8;}.cls-10{fill:#b0d46c;}.cls-11{fill:#a0c157;}.cls-12{fill:#cfea94;}.cls-13{fill:#e4efc2;}</style></defs><title>Insurance</title><g id="BULINE"><circle class="cls-1" cx="256" cy="256" r="256"/></g><g id="Icons"><path class="cls-2" d="M308.79,78,329,57.83a10,10,0,0,0-7.05-17H188.73a10,10,0,0,0-7,17L201.88,78a28.35,28.35,0,0,1,1.19,38.81c-38.33,43.46-83.73,104.08-83.73,147.48a136,136,0,1,0,272,0c0-43.4-45.4-104-83.74-147.48A28.35,28.35,0,0,1,308.79,78Z"/><path class="cls-3" d="M300.16,100.45v3.62a8.25,8.25,0,0,1-.09,1.22,8.75,8.75,0,0,1-8.66,7.53H253.47v88.5a8.75,8.75,0,0,1-8.75,8.75h-3.63a8.75,8.75,0,0,1-8.75-8.75V134.89l-51,51a8.75,8.75,0,0,1-12.38,0l-2.56-2.56a8.77,8.77,0,0,1,0-12.38l58.15-58.15H204.67a28.32,28.32,0,0,0,3.42-21.12h83.32a8.74,8.74,0,0,1,8.75,8.75Z"/><path class="cls-3" d="M380.13,318.48a136,136,0,0,1-260.79-54.16c0-27,17.59-60.71,40.14-92.78-11.24,20.75-18.56,40.94-18.56,58.36a136,136,0,0,0,239.21,88.58Z"/><path class="cls-3" d="M314.34,40.82,290.11,96.4A7.42,7.42,0,0,1,276,94.74l-9.67-53.92Z"/><path class="cls-3" d="M196.34,40.82,220.56,96.4a7.42,7.42,0,0,0,14.1-1.66l9.68-53.92Z"/><path class="cls-4" d="M303.59,91.7h-97a8.74,8.74,0,0,0-8.75,8.75v3.62a8.75,8.75,0,0,0,8.75,8.75h30.14L178.57,171a8.77,8.77,0,0,0,0,12.38l2.57,2.56a8.76,8.76,0,0,0,12.37,0l51-51v66.43a8.75,8.75,0,0,0,8.75,8.75h3.63a8.75,8.75,0,0,0,8.75-8.75v-88.5h37.94a8.75,8.75,0,0,0,8.75-8.75v-3.62A8.75,8.75,0,0,0,303.59,91.7Z"/><circle class="cls-5" cx="343.02" cy="199.79" r="14.25"/><circle class="cls-5" cx="328.29" cy="174.02" r="10.09"/><circle class="cls-6" cx="254.17" cy="293.12" r="55.48"/><path class="cls-4" d="M256.49,338h-7.88v-9.77A27.76,27.76,0,0,1,234,322q-5.9-5-6.73-16.83H241c0,.41-.05.71-.05.89a11.64,11.64,0,0,0,2,6.81,9.54,9.54,0,0,0,5.63,3.86V293.07q-11.84-5.47-16-10.81a18.62,18.62,0,0,1-4.13-11.69A17.89,17.89,0,0,1,234,257.39q5.53-5.47,14.57-6.2v-2.9h7.88v2.9q9.7.8,15.46,6.26t5.75,14.29H263.91q-.95-8.76-7.42-9.49v18.59l7.59,3.41a35.66,35.66,0,0,1,10.24,6.61,21.15,21.15,0,0,1,5.31,7.73,23.6,23.6,0,0,1,1.48,8.15,19.59,19.59,0,0,1-6.68,15.08q-6.66,6.07-17.94,6.36Zm-7.88-75.65q-6.3,1.18-6.3,6.59,0,4.64,6.3,8.38Zm7.88,54.94a11.3,11.3,0,0,0,7.9-2.68,8.43,8.43,0,0,0,3.09-6.53q0-7.32-11-11.56Z"/><path class="cls-7" d="M370.65,384.37a14.94,14.94,0,0,1-.48,3.25c-1.24,4.84-4.72,10.07-9,15.17-7.28,8.72-42,49-61.22,50-3.24.17-129.9-.51-208.88-1a257.2,257.2,0,0,1-53.9-62.87c46,.09,100.06-.47,109.74-4.33,8.56-3.41,15.73-11.23,24.65-14.82a65.77,65.77,0,0,1,29.22-4.72c11.72.83,15.74,5.72,25.45,10.59,5.64,2.83,33.34,2.69,41.08,2.78,7.28.09,17.12-1.34,23.59,2.65a16.42,16.42,0,0,1-8.61,30.4c5,.08,10.52.71,15.48.21,9.26-.92,39.14-29.35,48.55-38.06C355.44,365.26,371.11,371.74,370.65,384.37Z"/><path class="cls-8" d="M298.71,395.83a16.43,16.43,0,0,1-16.65,16.22l-55.44-.7c.21-.28.44-.56.65-.85A14.15,14.15,0,0,1,238.74,405l43.41.55A16.41,16.41,0,0,0,298,394.19a12.92,12.92,0,0,0,.44-1.62A16,16,0,0,1,298.71,395.83Z"/><path class="cls-9" d="M281.89,386h8.05a2.82,2.82,0,0,1,2.82,2.82v13.77a2.82,2.82,0,0,1-2.82,2.82h-8.05a6.55,6.55,0,0,1-6.55-6.55v-6.31A6.55,6.55,0,0,1,281.89,386Z" transform="translate(5.03 -3.57) rotate(0.73)"/><path class="cls-9" d="M361.18,402.79,357.75,400a6.54,6.54,0,0,1-.87-9.22l5.13-6.2a2.82,2.82,0,0,1,4-.38l4.19,3.47C368.93,392.46,365.45,397.69,361.18,402.79Z"/><path class="cls-10" d="M458.6,232.94l-4.84,58c-1.3,15.58-30.27,28.39-41.94,32.94a13.33,13.33,0,0,1-9.63,0c-11.68-4.55-40.65-17.36-41.95-32.94l-4.84-58a10.44,10.44,0,0,1,6.92-10.55c10.95-4.13,31-12.58,40.67-22.32a5.72,5.72,0,0,1,8,0c9.72,9.74,29.72,18.19,40.67,22.32A10.44,10.44,0,0,1,458.6,232.94Z"/><path class="cls-11" d="M407,198.43V324.74a13.24,13.24,0,0,1-4.81-.9c-11.68-4.55-40.65-17.36-41.95-32.94l-4.84-58a10.44,10.44,0,0,1,6.92-10.55c10.95-4.13,31-12.58,40.67-22.32A5.66,5.66,0,0,1,407,198.43Z"/><path class="cls-12" d="M410.3,211a4.71,4.71,0,0,0-6.6,0c-8,8-24.46,15-33.47,18.37a8.58,8.58,0,0,0-5.69,8.68l4,47.7c1.07,12.82,24.91,23.37,34.52,27.11a10.93,10.93,0,0,0,7.92,0c9.62-3.74,33.46-14.29,34.53-27.11l4-47.7a8.58,8.58,0,0,0-5.7-8.68C434.76,225.92,418.3,219,410.3,211Z"/><path class="cls-10" d="M407,209.61v104a10.79,10.79,0,0,1-4-.75c-9.61-3.74-33.45-14.29-34.52-27.11l-4-47.7a8.6,8.6,0,0,1,5.7-8.68c9-3.4,25.47-10.36,33.47-18.37A4.65,4.65,0,0,1,407,209.61Z"/><circle class="cls-13" cx="438.7" cy="237.98" r="5.21"/><circle class="cls-13" cx="429.43" cy="232.34" r="3.69"/></g></svg>