<svg xmlns="http://www.w3.org/2000/svg" viewBox="0 0 512 512"><defs><style>.cls-1{fill:#27273d;}.cls-2{fill:#db1b1b;}.cls-3{fill:#c11a1a;}.cls-4{fill:#f55b4b;}.cls-5{fill:#fcc8bc;}.cls-6{fill:#fab3a7;}.cls-7{fill:#fff9f8;}</style></defs><title>Insurance</title><g id="BULINE"><circle class="cls-1" cx="256" cy="256" r="256"/></g><g id="Icons"><path class="cls-2" d="M273,70.27,257.11,86.2,241.19,70.27a80,80,0,0,0-113.07,0h0a80,80,0,0,0,0,113.07L233.88,289.1a32.85,32.85,0,0,0,46.46,0L386.1,183.34a80,80,0,0,0,0-113.07h0A80,80,0,0,0,273,70.27Z"/><path class="cls-3" d="M275.69,293a32.85,32.85,0,0,1-41.81-3.85L128.13,183.33A80,80,0,0,1,203.25,49a79.93,79.93,0,0,0-38,134.29L271,289.1A31.67,31.67,0,0,0,275.69,293Z"/><circle class="cls-4" cx="365.04" cy="135.55" r="14.06"/><circle class="cls-4" cx="365.04" cy="106.25" r="9.96"/><path class="cls-5" d="M193.43,504.29a253.93,253.93,0,0,1-68.74-28.5C99.33,415.25,56.1,312,55.17,309.36c-5.36-15.18,14.73-55,19.16-63.39,2.59-4.93,5.53-9.3,8.88-11.8a12.27,12.27,0,0,1,2.36-1.41c9.64-4.39,19.67,5.68,16.09,15.41-3.74,10.07-16.22,42.29-14,49.76,1.2,4,3.44,8.06,5.11,11.92a14,14,0,0,1,2.14-14,13.86,13.86,0,0,1,18.66-2.34c5.16,3.73,7.19,11.81,9.59,17.42,2.54,6,11.28,27.47,15.27,30.94,6.87,6,11.94,7.52,16.33,16.33a55.23,55.23,0,0,1,5.68,24.14c.06,8.06-3.7,16.11-3.61,23.83C157,415.86,177.79,466.82,193.43,504.29Z"/><path class="cls-6" d="M134.67,481.46c-3.37-1.81-6.7-3.71-10-5.67C99.33,415.25,56.1,312,55.17,309.36c-5.36-15.18,14.73-55,19.16-63.39,2.59-4.93,5.53-9.3,8.88-11.8a11.67,11.67,0,0,1,11.27-1.66,4.74,4.74,0,0,1,1.51.72,12.24,12.24,0,0,0-4.64,2.19c-3.36,2.5-6.3,6.87-8.88,11.8C78,255.65,58,295.43,63.31,310.61,64.26,313.31,109.64,421.69,134.67,481.46Z"/><path class="cls-6" d="M99.68,292.14a13.76,13.76,0,0,0-7.25,18.07l18.25,42.73c.14-.26.29-.52.44-.77a11.84,11.84,0,0,0,.61-10.65L97.44,308.07a13.75,13.75,0,0,1,3.74-15.89,10.28,10.28,0,0,1,1.11-.86A14.07,14.07,0,0,0,99.68,292.14Z"/><path class="cls-7" d="M102.65,295.33h6.75a2.36,2.36,0,0,1,2.36,2.36v11.54a2.36,2.36,0,0,1-2.36,2.36h-6.75a5.49,5.49,0,0,1-5.49-5.49v-5.29a5.49,5.49,0,0,1,5.49-5.49Z" transform="translate(-133.57 518.72) rotate(-113.13)"/><path class="cls-7" d="M74.33,246l3.3,1.75a5.48,5.48,0,0,0,7.42-2.27l3.16-5.95a2.37,2.37,0,0,0-1-3.2l-4-2.13C79.86,236.67,76.92,241,74.33,246Z"/><path class="cls-5" d="M459.38,303.81c-.73,2.57-34.35,99-56.2,161.67a254.75,254.75,0,0,1-67.29,33.8c12.9-37.33,28.36-83.57,27.91-92.66-.38-7.71-4.63-15.52-5.06-23.56a55.08,55.08,0,0,1,4.2-24.45c3.84-9.06,8.8-10.92,15.3-17.29,3.77-3.71,11.18-25.7,13.36-31.81,2-5.75,3.58-13.94,8.5-18a13.76,13.76,0,0,1,21.76,15.08c1.43-4,3.42-8.15,4.37-12.22,1.79-7.59-12.64-39-17-48.82-4.16-9.49,5.23-20.15,15.12-16.36a12.65,12.65,0,0,1,2.45,1.26c3.5,2.3,6.7,6.48,9.58,11.25C441.33,249.86,463.8,288.34,459.38,303.81Z"/><path class="cls-6" d="M416.75,290.91a13.63,13.63,0,0,0-9.51,3.06c-4.92,4-6.46,12.23-8.51,18-2.17,6.11-9.58,28.11-13.36,31.81-6.49,6.37-11.46,8.23-15.3,17.3a55.15,55.15,0,0,0-4.19,24.44c.42,8.05,4.67,15.85,5.05,23.56.43,8.64-13.51,50.84-26,87.05q-4.5,1.67-9.07,3.17c12.9-37.33,28.36-83.57,27.91-92.66-.38-7.71-4.63-15.52-5.06-23.56a55.08,55.08,0,0,1,4.2-24.45c3.84-9.06,8.8-10.92,15.3-17.29,3.77-3.71,11.18-25.7,13.36-31.81,2-5.75,3.58-13.94,8.5-18A13.88,13.88,0,0,1,416.75,290.91Z"/><path class="cls-6" d="M413.91,289.35a13.76,13.76,0,0,1,8.34,17.59l-15.61,43.77c-.17-.25-.33-.51-.49-.75a11.86,11.86,0,0,1-1.26-10.59l12.22-34.26a13.76,13.76,0,0,0-4.7-15.64,13.05,13.05,0,0,0-1.16-.78A12.78,12.78,0,0,1,413.91,289.35Z"/><path class="cls-7" d="M408,292.8h6.75a2.36,2.36,0,0,1,2.36,2.36V306.7a2.36,2.36,0,0,1-2.36,2.36H408a5.49,5.49,0,0,1-5.49-5.49v-5.29A5.49,5.49,0,0,1,408,292.8Z" transform="translate(-11.31 585.82) rotate(-70.37)"/><path class="cls-7" d="M436.39,241.72l-3.18,1.95a5.49,5.49,0,0,1-7.55-1.82l-3.52-5.75a2.37,2.37,0,0,1,.78-3.25l3.89-2.38C430.31,232.77,433.51,237,436.39,241.72Z"/><path class="cls-7" d="M174.06,242.48a5,5,0,0,1-4.83-3.73l-15.72-59.63H138.07a5,5,0,0,1-4.37-2.56l-21.5-38.43L85.48,175.69a5,5,0,0,1-4.07,2.1H54.27a5,5,0,0,1,0-10H78.83l29.8-41.9a5,5,0,0,1,8.44.46L141,169.12h16.36a5,5,0,0,1,4.84,3.73l10.14,38.46,12.9-102a5,5,0,0,1,9.86-.36l12,60.15h10.93l10.59-20a5,5,0,0,1,8.6-.41l12.52,19.08h13.3a5,5,0,0,1,4.23,2.35l12.5,20,10.89-19.73a5,5,0,0,1,4.38-2.58h12.78l18.66-41.07A5,5,0,0,1,336,128.1l10.07,73,4-29a5,5,0,0,1,4.95-4.31h17.43L387,148.45a5,5,0,0,1,4.22-2,5,5,0,0,1,4,2.37l11.7,19h44.1a5,5,0,0,1,0,10H404.18a5,5,0,0,1-4.25-2.38l-9.32-15.09L379,175.79a5,5,0,0,1-4,2H359.44L351,238.17a5,5,0,0,1-4.95,4.31h0a5,5,0,0,1-4.95-4.32l-12.64-91.59-12.85,28.29a5,5,0,0,1-4.55,2.93H298l-13.58,24.58A5,5,0,0,1,280.2,205a5,5,0,0,1-4.37-2.34L260.3,177.79H247.07a5,5,0,0,1-4.18-2.26l-9.36-14.26-8,15.19a5,5,0,0,1-4.42,2.66H203a5,5,0,0,1-4.9-4L191.31,141,179,238.1a5,5,0,0,1-4.63,4.37Z"/></g></svg>