<svg xmlns="http://www.w3.org/2000/svg" viewBox="0 0 512 512"><defs><style>.cls-1{fill:#fcc8bc;}.cls-2{fill:#3e436d;}.cls-3{fill:#f6c752;}.cls-4{fill:#00b564;}.cls-5{fill:#029b51;}.cls-6{fill:#fff;}.cls-7{fill:#cecccc;}.cls-8{fill:#e5e5e5;}.cls-9{fill:#32314b;}.cls-10{fill:#db1b1b;}.cls-11{fill:#bc1b1b;}.cls-12{fill:#f7bb38;}</style></defs><title>Insurance</title><g id="BULINE"><circle class="cls-1" cx="256" cy="256" r="256"/></g><g id="Icons"><path class="cls-2" d="M106.9,403.66a2.44,2.44,0,0,1-2.45-2.45v-9.39a2.45,2.45,0,1,1,4.9,0v9.39A2.45,2.45,0,0,1,106.9,403.66Z"/><path class="cls-3" d="M129.22,253.45a4.08,4.08,0,0,1-4.08-4.08V193H115.06a4.08,4.08,0,0,1,0-8.16h14.16a4.07,4.07,0,0,1,4.08,4.08v60.44A4.08,4.08,0,0,1,129.22,253.45Z"/><rect class="cls-4" x="94.64" y="181.89" width="24.5" height="73.2"/><rect class="cls-5" x="94.64" y="181.89" width="8.58" height="73.2"/><path class="cls-3" d="M104.85,170.14h4.09a10.21,10.21,0,0,1,10.21,10.21v1.54a0,0,0,0,1,0,0H94.64a0,0,0,0,1,0,0v-1.54A10.21,10.21,0,0,1,104.85,170.14Z"/><path class="cls-3" d="M94.64,255.09h24.5a0,0,0,0,1,0,0v5.17a1.36,1.36,0,0,1-1.36,1.36H96a1.36,1.36,0,0,1-1.36-1.36v-5.17A0,0,0,0,1,94.64,255.09Z"/><rect class="cls-4" x="96.38" y="261.62" width="21.03" height="114.07"/><path class="cls-3" d="M96.38,375.69l8,18.83a2.73,2.73,0,0,0,5,0l8-18.83Z"/><rect class="cls-5" x="96.38" y="261.62" width="21.03" height="8.85"/><path class="cls-6" d="M410.84,421.57H179a26.75,26.75,0,0,1-26.75-26.75V111.91H110.81a7.59,7.59,0,0,1-7.58-7.59V89.16a23.59,23.59,0,0,1,23.58-23.59H379.65a23.59,23.59,0,0,1,23.58,23.59V377.87A60,60,0,0,0,410.78,407l4.2,7.54A4.74,4.74,0,0,1,410.84,421.57Z"/><path class="cls-7" d="M152.48,89.15V111.9H110.82a7.58,7.58,0,0,1-7.59-7.58V89.15a23.41,23.41,0,0,1,23.23-23.58h2.8A23.41,23.41,0,0,1,152.48,89.15Z"/><path class="cls-8" d="M259.37,386.1c-7,6.32-12.93,4.31-17,14.46v21h-49.5v-21c-2.07-5.13-3.62-7.85-8.37-10.58-3.19-1.83-8.32-2.35-10.69-5.44-5.3-7,3.93-18.48,1.21-27.31-3.74-12.16-3.1-13.71,8.07-19.37,8.52-4.31,7-13,13.63-18.05,6.88-5.26,14.73,3.28,22.23,2.71,8.83-.67,15.31-9.21,21.8.61,2.36,3.56,2.69,8.4,5.86,11.5s7.92,3.48,11.51,5.87c10.28,6.8.5,13.73.5,23.12C258.59,372.51,267.64,378.66,259.37,386.1Z"/><path class="cls-9" d="M321.23,144.24h-83a3,3,0,0,1,0-6h83a3,3,0,0,1,0,6Z"/><path class="cls-9" d="M369.23,186.35h-174a3,3,0,0,1,0-6h174a3,3,0,0,1,0,6Z"/><path class="cls-9" d="M369.23,210.91h-174a3,3,0,0,1,0-6h174a3,3,0,0,1,0,6Z"/><path class="cls-9" d="M369.23,235.46h-174a3,3,0,0,1,0-6h174a3,3,0,0,1,0,6Z"/><path class="cls-9" d="M305.23,260h-110a3,3,0,0,1,0-6h110a3,3,0,1,1,0,6Z"/><path class="cls-10" d="M260,373.63v67.43a5.51,5.51,0,0,1-8.05,4.9l-14.16-7.34a5.55,5.55,0,0,0-5.08,0L218.54,446a5.52,5.52,0,0,1-8.06-4.9V373.63Z"/><path class="cls-10" d="M194.23,363.63c0,6.11-6.48,13.46-4.28,18.76,2.28,5.5,12.15,6.09,16.29,10.24s4.74,14,10.24,16.28c5.3,2.2,12.65-4.28,18.75-4.28s13.46,6.48,18.76,4.28c5.5-2.28,6.09-12.14,10.24-16.28s14-4.74,16.28-10.24c2.2-5.3-4.28-12.65-4.28-18.76s6.48-13.45,4.28-18.75c-2.28-5.5-12.14-6.09-16.29-10.24s-4.73-14-10.23-16.29c-5.3-2.2-12.65,4.28-18.76,4.28s-13.45-6.48-18.75-4.28c-5.5,2.28-6.09,12.15-10.24,16.29s-14,4.74-16.29,10.24C187.75,350.18,194.23,357.53,194.23,363.63Z"/><path class="cls-11" d="M260,400.56v10c-1.46,3.6-3,7.1-6,8.35-5.3,2.2-12.65-4.28-18.75-4.28s-13.46,6.48-18.76,4.28c-3-1.24-4.54-4.74-6-8.33v-10c1.45,3.59,3,7.09,6,8.33,5.3,2.2,12.65-4.28,18.76-4.28s13.45,6.48,18.75,4.28C257,407.66,258.52,404.16,260,400.56Z"/><path class="cls-11" d="M234.23,398.12a66.05,66.05,0,0,0,3,6.7,10.91,10.91,0,0,0-2-.19c-6.1,0-13.45,6.48-18.76,4.28-5.5-2.28-6.09-12.14-10.23-16.29s-14-4.73-16.29-10.23c-2.2-5.31,4.28-12.66,4.28-18.76s-6.48-13.45-4.28-18.76c2.28-5.5,12.14-6.09,16.29-10.23s4.73-14,10.23-16.29c5.31-2.2,12.66,4.28,18.76,4.28a10.91,10.91,0,0,0,2-.19,66.05,66.05,0,0,0-3,6.7,17.18,17.18,0,0,1-3.24,5.5c-4.15,4.14-14,4.73-16.29,10.23-2.2,5.31,4.28,12.66,4.28,18.76s-6.48,13.45-4.28,18.76c2.28,5.5,12.14,6.09,16.29,10.23A17.18,17.18,0,0,1,234.23,398.12Z"/><circle class="cls-3" cx="235.23" cy="363.63" r="34.5"/><path class="cls-12" d="M231,392.62a17.18,17.18,0,0,1,3.24,5.5,34.5,34.5,0,0,1,0-69,17.18,17.18,0,0,1-3.24,5.5c-4.15,4.14-14,4.73-16.29,10.23-2.2,5.31,4.28,12.66,4.28,18.76s-6.48,13.45-4.28,18.76C217,387.89,226.84,388.48,231,392.62Z"/><path class="cls-9" d="M361.12,393.47h-.23c-4.9-.22-7.83-8.55-9.46-15.75a3.65,3.65,0,0,0-.77-.82c-1.13.71-3.07,4.64-4,8.24a3,3,0,0,1-5.35,1l-5-7.13-2.83,2.54a12.84,12.84,0,0,1-12.54,2.63,12.16,12.16,0,0,1-6.91-5.59l-.67.63a3,3,0,0,1-4.09-4.39c1.05-1,2.09-2,3.1-3-.12-8.68,5.84-17.9,9.71-23a6.53,6.53,0,0,1,8.54-1.72,5.53,5.53,0,0,1,2.61,4.25c.57,5.9-8.15,16-14.6,22.64a6.1,6.1,0,0,0,4.17,4.42,6.73,6.73,0,0,0,6.67-1.39l5.34-4.8a3,3,0,0,1,4.45.5l3.68,5.2c1.49-3.21,3.76-6.51,6.92-7,1.79-.3,4.44.14,7,3.9a3,3,0,0,1,.43,1c1,4.45,2.63,9.09,3.86,11a18.51,18.51,0,0,0,1.35-3.36,3,3,0,0,1,2.86-2.1h20a3,3,0,0,1,0,6H367.37C366.35,390,364.46,393.47,361.12,393.47ZM327.2,352.2a.84.84,0,0,0-.44.28A55.69,55.69,0,0,0,320.41,363C324.53,358.09,327.2,354,327.2,352.2Z"/></g></svg>