<svg xmlns="http://www.w3.org/2000/svg" viewBox="0 0 512 512"><defs><style>.cls-1{fill:#7cc8fb;}.cls-2{fill:#b0d46c;}.cls-3{fill:#a0c157;}.cls-4{fill:#cfea94;}.cls-5{fill:#e4efc2;}.cls-6{fill:#3e436d;}.cls-7{fill:#fff;}</style></defs><title>Insurance</title><g id="BULINE"><circle class="cls-1" cx="256" cy="256" r="256"/></g><g id="Icons"><path class="cls-2" d="M442.79,153.67,425.27,363.48c-4.71,56.4-109.57,102.79-151.84,119.26a48.23,48.23,0,0,1-34.86,0C196.3,466.27,91.44,419.88,86.73,363.48L69.21,153.67c-1.37-16.55,8.76-32,25.06-38.19,39.63-15,112-45.53,147.21-80.8a20.72,20.72,0,0,1,29,0C305.69,70,378.1,100.51,417.73,115.48,434,121.63,444.16,137.12,442.79,153.67Z"/><path class="cls-3" d="M256,28.74V486a48.32,48.32,0,0,1-17.43-3.26C196.3,466.27,91.44,419.88,86.73,363.48L69.21,153.67c-1.37-16.55,8.76-32,25.06-38.19,39.63-15,112-45.53,147.21-80.8A20.47,20.47,0,0,1,256,28.74Z"/><path class="cls-4" d="M268,74.09a17.07,17.07,0,0,0-23.9,0c-29,29-88.54,54.19-121.16,66.5-13.41,5.06-21.75,17.81-20.62,31.43L116.68,344.7c3.88,46.42,90.18,84.6,125,98.15a39.69,39.69,0,0,0,28.7,0c34.79-13.55,121.09-51.73,125-98.15L409.73,172c1.13-13.62-7.21-26.37-20.62-31.43C356.49,128.28,296.9,103.12,268,74.09Z"/><path class="cls-2" d="M256,69.21V445.54a39.33,39.33,0,0,1-14.35-2.69c-34.79-13.55-121.1-51.72-125-98.15L102.27,172c-1.13-13.61,7.21-26.37,20.62-31.43,32.62-12.31,92.21-37.47,121.16-66.49A16.78,16.78,0,0,1,256,69.21Z"/><circle class="cls-5" cx="370.73" cy="171.94" r="18.86"/><circle class="cls-5" cx="337.19" cy="151.49" r="13.36"/><path class="cls-3" d="M228.31,212.91v123h-44.9V348a7.67,7.67,0,0,1-7.66,7.67H159a7.68,7.68,0,0,1-7.68-7.67V335.87h-9.41a8.19,8.19,0,0,1-8.18-8.18V284.26a8.18,8.18,0,0,1,8.18-8.18H152.4l7.31-40.37a27.76,27.76,0,0,1,27.3-22.8Z"/><path class="cls-6" d="M214.7,212.91a27.75,27.75,0,0,0-27.3,22.8l-7.31,40.37H169.58a8.18,8.18,0,0,0-8.18,8.18v43.42a8.19,8.19,0,0,0,8.18,8.19H179V348a7.66,7.66,0,0,0,7.66,7.66h16.79A7.66,7.66,0,0,0,211.1,348V335.87h89v11.66a7.66,7.66,0,0,0,7.66,7.66h16.79a7.66,7.66,0,0,0,7.66-7.66V335.87h10.24a8.19,8.19,0,0,0,8.18-8.19V284.26a8.18,8.18,0,0,0-8.18-8.18H331.91l-7.31-40.37a27.75,27.75,0,0,0-27.3-22.8"/><path class="cls-7" d="M287.38,224.73H225.46a23.31,23.31,0,0,0-22.92,19.1l-5.9,32.25H315.36l-5-31.66A23.29,23.29,0,0,0,287.38,224.73Z"/><circle class="cls-7" cx="181.01" cy="314.25" r="10.42"/><circle class="cls-7" cx="207.47" cy="314.25" r="10.42"/><circle class="cls-7" cx="303.54" cy="314.25" r="10.42"/><circle class="cls-7" cx="330.01" cy="314.25" r="10.42"/><rect class="cls-7" x="230.57" y="298.62" width="50.86" height="10.42" rx="5.21"/><rect class="cls-7" x="230.57" y="314.25" width="50.86" height="10.42" rx="5.21"/></g></svg>