<svg xmlns="http://www.w3.org/2000/svg" viewBox="0 0 512 512"><defs><style>.cls-1{fill:#934cf5;}.cls-2{fill:#32314b;}.cls-3{fill:#27273d;}.cls-4{fill:#fff;}.cls-5{fill:#e6e6e8;}.cls-6{fill:#f55b4b;}.cls-7{fill:#fc715a;}.cls-8{fill:#b0d46c;}.cls-9{fill:#3e436d;}.cls-10{fill:#f6c752;}.cls-11{fill:#db1b1b;}.cls-12{fill:#c11a1a;}</style></defs><title>Insurance</title><g id="BULINE"><circle class="cls-1" cx="256" cy="256" r="256"/></g><g id="Icons"><rect class="cls-2" x="117.61" y="48.61" width="274" height="369.83" rx="11.42"/><path class="cls-3" d="M280.6,100.9v.54a10.67,10.67,0,0,1-10.67,10.67h-58a10.67,10.67,0,0,1-10.67-10.67v-1h-6.83a12,12,0,0,1-12-12V60.61a12,12,0,0,1,12-12h14c0,.26,0,.53,0,.79V77.23a12,12,0,0,0,12,12h6.83v1a10.67,10.67,0,0,0,10.67,10.67Z"/><rect class="cls-4" x="138.11" y="67.19" width="233" height="332.66" rx="6.92"/><path class="cls-5" d="M280.6,100.9v.54a10.67,10.67,0,0,1-10.67,10.67h-58a10.67,10.67,0,0,1-10.67-10.67v-1h-6.83a12,12,0,0,1-12-12V67.19h26v10a12,12,0,0,0,12,12h6.83v1a10.67,10.67,0,0,0,10.67,10.67Z"/><rect class="cls-6" x="196.11" y="37.4" width="117" height="51.83" rx="12"/><rect class="cls-7" x="214.94" y="65.57" width="79.33" height="35.33" rx="10.67"/><path class="cls-2" d="M168.51,138.82v4.67h-14.6v-4.67h3.53V120.48h-3.53V115.8h14.6q5.1,0,7.87,2.39a8.06,8.06,0,0,1,2.78,6.43,9,9,0,0,1-1,4.19,7.42,7.42,0,0,1-2.5,2.89,9.23,9.23,0,0,1-3.48,1.37,26.84,26.84,0,0,1-4.91.37h-2.64v5.38Zm-3.86-10h1.07q3.71,0,4.77-1.2a4.37,4.37,0,0,0,1.06-3,4.43,4.43,0,0,0-.73-2.58,3,3,0,0,0-1.7-1.31,13.43,13.43,0,0,0-3.12-.25h-1.35Z"/><path class="cls-2" d="M197.3,115.36q7.15,0,11.27,4.14a14.45,14.45,0,0,1,0,20.2q-4.11,4.14-11.26,4.13-7.44,0-11.41-4.25a14.09,14.09,0,0,1-4-10A13.83,13.83,0,0,1,186,119.51Q190.08,115.37,197.3,115.36Zm0,5.06a7.11,7.11,0,0,0-5.41,2.39q-2.22,2.39-2.22,7a9.44,9.44,0,0,0,2.19,6.53,7,7,0,0,0,5.44,2.45,7.12,7.12,0,0,0,5.41-2.4q2.23-2.4,2.23-6.92a9.76,9.76,0,0,0-2.13-6.55A6.91,6.91,0,0,0,197.3,120.42Z"/><path class="cls-2" d="M215.85,143.49v-4.67h4V120.48h-4V115.8h15.21v4.68h-4v18.34h8.18v-8.56h5.4v13.23Z"/><path class="cls-2" d="M242,143.49v-4.67h4.2V120.48H242V115.8H257.6v4.68h-4.24v18.34h4.24v4.67Z"/><path class="cls-2" d="M283.36,115.8H288v9.76h-4.68q-2-5.27-6.91-5.26a7.19,7.19,0,0,0-6.14,2.77,10.68,10.68,0,0,0-2.08,6.63,9.53,9.53,0,0,0,2.2,6.54,7.15,7.15,0,0,0,5.6,2.5,7,7,0,0,0,4.88-1.9,9.58,9.58,0,0,0,2.83-5.25l5.45,2.6q-3.1,9.65-13.67,9.64-7.47,0-11.26-4a14.22,14.22,0,0,1-3.79-10.17,14.57,14.57,0,0,1,2-7.67,12.61,12.61,0,0,1,5.3-4.94,16.14,16.14,0,0,1,7.32-1.67,13.2,13.2,0,0,1,8.3,2.59Z"/><path class="cls-2" d="M291.18,143.49v-4.67h4.2V120.48h-4.2V115.8h15.65v4.68h-4.24v18.34h4.24v4.67Z"/><path class="cls-2" d="M309,143.49v-4.67h3.33V120.48H309V115.8h24.41v8.78h-5.3v-4.1h-8.58v6.39h6.93v4.68h-6.93v7.27h8.58v-4.14h5.3v8.81Z"/><path class="cls-2" d="M336.81,143.49v-9.43h4.7a5.31,5.31,0,0,0,1.36,3.81,4,4,0,0,0,2.9,1.22,2.9,2.9,0,0,0,2.15-.88,2.85,2.85,0,0,0,.88-2.08,2.93,2.93,0,0,0-.86-2.14,11.72,11.72,0,0,0-3.13-2,24.53,24.53,0,0,1-6.52-4.09,6.63,6.63,0,0,1-1.72-4.79,7.09,7.09,0,0,1,2.27-5.62,7.63,7.63,0,0,1,5.16-2,5.9,5.9,0,0,1,5.12,2.58v-2.3h4.68v8.42h-4.68a4.73,4.73,0,0,0-1.35-3,3.69,3.69,0,0,0-2.62-1.07,3.11,3.11,0,0,0-1.95.62,1.94,1.94,0,0,0-.79,1.61,2.48,2.48,0,0,0,.65,1.62,12.94,12.94,0,0,0,3.85,2.18,31.44,31.44,0,0,1,4.71,2.47,8,8,0,0,1,2.59,2.87,8.36,8.36,0,0,1,1,4.07q0,4.11-2.39,6.18a8.35,8.35,0,0,1-5.65,2.07,6.57,6.57,0,0,1-5.62-2.69v2.35Z"/><path class="cls-2" d="M177.91,190.57h-24a3,3,0,0,1-3-3v-24a3,3,0,0,1,3-3h24a3,3,0,0,1,3,3v24A3,3,0,0,1,177.91,190.57Zm-21-6h18v-18h-18Z"/><path class="cls-8" d="M167.4,182.77a3,3,0,0,1-2.12-.88l-7-7a3,3,0,0,1,4.24-4.24l4.87,4.86,12.91-13.56a3,3,0,0,1,4.35,4.14l-15,15.79a3,3,0,0,1-2.13.93Z"/><path class="cls-2" d="M352,172.23H197.31a3,3,0,0,1,0-6H352a3,3,0,0,1,0,6Z"/><path class="cls-2" d="M276,185.57H197.31a3,3,0,0,1,0-6H276a3,3,0,0,1,0,6Z"/><path class="cls-2" d="M177.91,238.32h-24a3,3,0,0,1-3-3v-24a3,3,0,0,1,3-3h24a3,3,0,0,1,3,3v24A3,3,0,0,1,177.91,238.32Zm-21-6h18v-18h-18Z"/><path class="cls-8" d="M167.4,230.52a3,3,0,0,1-2.12-.87l-7-7a3,3,0,0,1,4.24-4.24l4.87,4.86,12.91-13.56a3,3,0,0,1,4.35,4.14l-15,15.78a3,3,0,0,1-2.13.93Z"/><path class="cls-2" d="M352,220H197.31a3,3,0,0,1,0-6H352a3,3,0,0,1,0,6Z"/><path class="cls-2" d="M276,233.32H197.31a3,3,0,0,1,0-6H276a3,3,0,0,1,0,6Z"/><path class="cls-2" d="M177.91,286.08h-24a3,3,0,0,1-3-3v-24a3,3,0,0,1,3-3h24a3,3,0,0,1,3,3v24A3,3,0,0,1,177.91,286.08Zm-21-6h18v-18h-18Z"/><path class="cls-8" d="M167.4,278.28a3,3,0,0,1-2.12-.88l-7-7a3,3,0,0,1,4.24-4.25l4.87,4.86,12.91-13.56a3,3,0,0,1,4.35,4.14l-15,15.79a3,3,0,0,1-2.13.93Z"/><path class="cls-2" d="M352,267.74H197.31a3,3,0,0,1,0-6H352a3,3,0,0,1,0,6Z"/><path class="cls-2" d="M276,281.08H197.31a3,3,0,0,1,0-6H276a3,3,0,0,1,0,6Z"/><path class="cls-2" d="M177.91,333.83h-24a3,3,0,0,1-3-3v-24a3,3,0,0,1,3-3h24a3,3,0,0,1,3,3v24A3,3,0,0,1,177.91,333.83Zm-21-6h18v-18h-18Z"/><path class="cls-2" d="M352,315.5H197.31a3,3,0,0,1,0-6H352a3,3,0,0,1,0,6Z"/><path class="cls-2" d="M276,328.83H197.31a3,3,0,0,1,0-6H276a3,3,0,0,1,0,6Z"/><path class="cls-2" d="M177.91,381.59h-24a3,3,0,0,1-3-3v-24a3,3,0,0,1,3-3h24a3,3,0,0,1,3,3v24A3,3,0,0,1,177.91,381.59Zm-21-6h18v-18h-18Z"/><path class="cls-2" d="M352,363.25H197.31a3,3,0,1,1,0-6H352a3,3,0,0,1,0,6Z"/><path class="cls-2" d="M276,376.59H197.31a3,3,0,0,1,0-6H276a3,3,0,0,1,0,6Z"/><path class="cls-9" d="M371.37,458.33a2.45,2.45,0,0,1-2.45,2.45h-9.39a2.45,2.45,0,1,1,0-4.9h9.39A2.45,2.45,0,0,1,371.37,458.33Z"/><path class="cls-10" d="M221.16,436a4.09,4.09,0,0,1-4.08,4.09H160.72v10.07a4.09,4.09,0,0,1-8.17,0V436a4.09,4.09,0,0,1,4.09-4.08h60.44A4.08,4.08,0,0,1,221.16,436Z"/><rect class="cls-11" x="173.94" y="421.73" width="24.5" height="73.2" transform="translate(-272.13 644.52) rotate(-90)"/><rect class="cls-12" x="149.59" y="462" width="73.2" height="8.58"/><path class="cls-10" d="M141.68,452.46h4.09A10.21,10.21,0,0,1,156,462.66v1.54a0,0,0,0,1,0,0h-24.5a0,0,0,0,1,0,0v-1.54A10.21,10.21,0,0,1,141.68,452.46Z" transform="translate(-314.6 602.05) rotate(-90)"/><path class="cls-10" d="M213.81,455.06h24.5a0,0,0,0,1,0,0v5.17a1.36,1.36,0,0,1-1.36,1.36H215.17a1.36,1.36,0,0,1-1.36-1.36v-5.17A0,0,0,0,1,213.81,455.06Z" transform="translate(-232.27 684.39) rotate(-90)"/><rect class="cls-11" x="275.85" y="401.29" width="21.03" height="114.07" transform="translate(-171.97 744.69) rotate(-90)"/><path class="cls-10" d="M343.4,468.84l18.83-8a2.72,2.72,0,0,0,0-5l-18.83-8Z"/><rect class="cls-12" x="223.24" y="453.9" width="21.03" height="8.85" transform="translate(-224.58 692.08) rotate(-90)"/></g></svg>