<svg xmlns="http://www.w3.org/2000/svg" viewBox="0 0 512 512"><defs><style>.cls-1{fill:#fcc8bc;}.cls-2{fill:#9e4830;}.cls-3{fill:#fff;}.cls-4{fill:#dfe0de;}.cls-5{fill:#3586cb;}.cls-6{fill:#a65c3b;}.cls-7{fill:#366fca;}.cls-8{fill:#41c0e3;}</style></defs><title>Insurance</title><g id="BULINE"><circle class="cls-1" cx="256" cy="256" r="256"/></g><g id="Icons"><path class="cls-2" d="M511.05,278.25C499.77,409.21,389.88,512,256,512,114.62,512,0,397.38,0,256A255.49,255.49,0,0,1,92.94,58.64a39.38,39.38,0,0,1,14.33,21,26.08,26.08,0,0,1,33.51,25,26.79,26.79,0,0,1-.36,4.32,40.72,40.72,0,0,1,37.86,63.52,39.33,39.33,0,0,1,18.94,63.64,128.27,128.27,0,0,1,27.7,39,128.21,128.21,0,0,1,52.89,22.82A128.32,128.32,0,0,1,338,283a129.83,129.83,0,0,1,23.23,2.09,91,91,0,0,1,26.45-27.78,26.09,26.09,0,0,1,42.79-29.86,40.71,40.71,0,0,1,70.17,39.12A91.43,91.43,0,0,1,511.05,278.25Z"/><rect class="cls-3" x="212.34" y="46.96" width="32.79" height="49.61" transform="translate(23.47 -52.07) rotate(13.68)"/><path class="cls-3" d="M425.81,149,385.16,316,157.84,260.64l40.65-167L320,61.72a13.83,13.83,0,0,1,12.57,3.06Z"/><path class="cls-4" d="M423,160.55l-7.09,29.14-91.55-87a14.91,14.91,0,0,0-14.48-3.52L188.59,134.35l7.09-29.15L318.06,69.73a13.35,13.35,0,0,1,5-.43,14.69,14.69,0,0,1,3.28.8c.19.08.4.16.58.25.39.17.77.35,1.13.55a13.88,13.88,0,0,1,2.56,1.89Z"/><path class="cls-5" d="M450.66,178.05a13,13,0,0,1-18.37.48L421.19,168,329.64,81a14.94,14.94,0,0,0-14.48-3.53L193.87,112.66l-14.7,4.25A13,13,0,0,1,163.08,108a13,13,0,0,1,8.85-16.11l29-8.42L323.34,48a13.14,13.14,0,0,1,12.57,3.06l92.38,87.75,21.9,20.82A13,13,0,0,1,450.66,178.05Z"/><rect class="cls-6" x="160.13" y="241.55" width="15.16" height="21.18" transform="translate(64.4 -32.52) rotate(13.68)"/><rect class="cls-6" x="169.81" y="201.79" width="15.16" height="21.18" transform="translate(55.27 -35.93) rotate(13.68)"/><rect class="cls-6" x="179.49" y="162.04" width="15.16" height="21.18" transform="translate(46.14 -39.35) rotate(13.68)"/><rect class="cls-6" x="372.95" y="293.36" width="15.16" height="21.18" transform="translate(82.7 -81.39) rotate(13.68)"/><rect class="cls-6" x="382.63" y="253.61" width="15.16" height="21.18" transform="translate(73.57 -84.8) rotate(13.68)"/><rect class="cls-6" x="392.31" y="213.85" width="15.16" height="21.18" transform="translate(64.44 -88.22) rotate(13.68)"/><path class="cls-5" d="M261.76,183.9h44.53A4.69,4.69,0,0,1,311,188.6V289.81a0,0,0,0,1,0,0H257.07a0,0,0,0,1,0,0V188.6a4.69,4.69,0,0,1,4.69-4.69Z" transform="translate(64.09 -60.46) rotate(13.68)"/><path class="cls-7" d="M284.39,182.45a4.69,4.69,0,0,0-5.67,3.45l-23.94,98.34-9.47-2.31,23.94-98.34a4.7,4.7,0,0,1,5.67-3.45Z"/><rect class="cls-5" x="196.9" y="168.17" width="51.03" height="55.36" rx="5.54" transform="translate(52.64 -47.05) rotate(13.68)"/><rect class="cls-5" x="328.81" y="200.28" width="51.03" height="55.36" rx="5.54" transform="translate(63.98 -77.34) rotate(13.68)"/><rect class="cls-6" x="209.42" y="31.8" width="54.16" height="16.09" rx="4.44" transform="translate(16.14 -54.81) rotate(13.68)"/><path class="cls-5" d="M315.06,109.39a25.5,25.5,0,1,0,18.75,30.81A25.5,25.5,0,0,0,315.06,109.39ZM305,150.9a17.22,17.22,0,1,1,20.79-12.66A17.21,17.21,0,0,1,305,150.9Z"/><rect class="cls-4" x="144.3" y="287.04" width="250.47" height="16.47" rx="3.9" transform="translate(77.49 -55.38) rotate(13.68)"/><circle class="cls-8" cx="365.95" cy="229.74" r="7.1"/><circle class="cls-8" cx="369.45" cy="215.37" r="5.03"/><path class="cls-6" d="M247.74,295.64a15.32,15.32,0,0,0-3.79.48,21.4,21.4,0,0,0-28.65-9.75A33.25,33.25,0,0,0,196.12,272c0-.69.06-1.38.06-2.08a49.29,49.29,0,0,0-20.13-39.76,31.19,31.19,0,0,0-57-25.11,37.24,37.24,0,1,0-23.35,66.25c.6,0,1.2,0,1.79-.05a49.37,49.37,0,0,0,59.48,47A33.27,33.27,0,0,0,213.61,324a21.32,21.32,0,0,0,23.62-.92,15.74,15.74,0,1,0,10.51-27.45Z"/></g></svg>