<svg xmlns="http://www.w3.org/2000/svg" viewBox="0 0 512 512"><defs><style>.cls-1{fill:#27273d;}.cls-2{fill:#fff;}.cls-3{fill:#e0dfde;}.cls-4{fill:#f9eac5;}.cls-5{fill:#d16c28;}.cls-6{fill:#ba6024;}.cls-7{fill:#e88032;}.cls-8{fill:#f2a36d;}</style></defs><title>Insurance</title><g id="BULINE"><circle class="cls-1" cx="256" cy="256" r="256"/></g><g id="Icons"><path class="cls-2" d="M341.32,424.15A50,50,0,0,1,266,415.63c-12.16-17.81,0-46.73-7.6-93.51a15.18,15.18,0,0,0-15-12.75H243a15.19,15.19,0,0,0-15,12.74c-7.75,47.48,4.21,76.57-8.12,94.3a49.71,49.71,0,0,1-74,8.52c-72.75-65.8-73.6-229.35-73.6-229.35.75-63.2,44.28-115,98-116.58a86.89,86.89,0,0,1,34.53,6.06,93.45,93.45,0,0,1,18.87,10.1,34.15,34.15,0,0,0,38.93,0A88.76,88.76,0,0,1,316.06,79c53.74,1.57,97.26,53.38,98,116.58C414.07,195.58,413.1,357.85,341.32,424.15Z"/><path class="cls-3" d="M196.82,424.93a49.65,49.65,0,0,0,7.75,5.75,49.67,49.67,0,0,1-58.65-5.75c-72.75-65.8-73.6-229.35-73.6-229.35.75-63.2,44.28-115,98-116.58a86.31,86.31,0,0,1,28.07,3.81C155.68,96,123.86,141.62,123.22,195.58,123.22,195.58,124.08,359.13,196.82,424.93Z"/><path class="cls-4" d="M358.5,141.8c0-6.16-14.34-11.35-33.94-13-1.62-19.6-6.82-34-13-34s-11.35,14.35-13,34c-19.6,1.62-33.95,6.81-33.95,13s14.35,11.35,33.95,13c1.62,19.6,6.81,33.95,13,33.95s11.36-14.35,13-33.95C344.16,153.15,358.5,148,358.5,141.8Z"/><path class="cls-4" d="M399.1,221.5c0-3.42-8-6.3-18.85-7.2-.9-10.89-3.78-18.85-7.2-18.85s-6.31,8-7.2,18.85c-10.89.9-18.85,3.78-18.85,7.2s8,6.3,18.85,7.2c.89,10.88,3.78,18.85,7.2,18.85s6.3-8,7.2-18.85C391.13,227.8,399.1,224.92,399.1,221.5Z"/><path class="cls-2" d="M440.12,94.88c0-3.42-8-6.3-18.85-7.2-.9-10.88-3.78-18.85-7.2-18.85s-6.3,8-7.2,18.85C396,88.58,388,91.46,388,94.88s8,6.3,18.85,7.2c.9,10.89,3.78,18.85,7.2,18.85s6.3-8,7.2-18.85C432.15,101.18,440.12,98.3,440.12,94.88Z"/><path class="cls-5" d="M441.67,322l-6.1,73c-1.64,19.63-38.14,35.78-52.85,41.51a16.73,16.73,0,0,1-12.14,0c-14.71-5.73-51.22-21.88-52.86-41.51l-6.09-73a13.15,13.15,0,0,1,8.72-13.29c13.8-5.21,39-15.85,51.25-28.13a7.2,7.2,0,0,1,10.1,0C394,292.86,419.15,303.5,433,308.71A13.15,13.15,0,0,1,441.67,322Z"/><path class="cls-6" d="M376.65,278.51V437.69a16.68,16.68,0,0,1-6.07-1.14c-14.71-5.73-51.22-21.88-52.86-41.51l-6.09-73a13.15,13.15,0,0,1,8.72-13.29c13.8-5.21,39-15.85,51.25-28.13A7.1,7.1,0,0,1,376.65,278.51Z"/><path class="cls-7" d="M380.81,294.3a5.93,5.93,0,0,0-8.32,0c-10.08,10.1-30.82,18.86-42.18,23.15a10.82,10.82,0,0,0-7.17,10.94l5,60.11c1.35,16.16,31.39,29.45,43.5,34.17a13.88,13.88,0,0,0,10,0c12.11-4.72,42.16-18,43.5-34.17l5-60.11A10.82,10.82,0,0,0,423,317.45C411.63,313.16,390.89,304.4,380.81,294.3Z"/><path class="cls-5" d="M376.65,292.6v131a13.85,13.85,0,0,1-5-.93c-12.11-4.72-42.15-18-43.5-34.17l-5-60.11a10.84,10.84,0,0,1,7.18-10.94c11.36-4.29,32.1-13.05,42.18-23.15A5.86,5.86,0,0,1,376.65,292.6Z"/><circle class="cls-8" cx="416.59" cy="328.36" r="6.56"/><circle class="cls-8" cx="404.91" cy="321.24" r="4.65"/></g></svg>