<svg xmlns="http://www.w3.org/2000/svg" viewBox="0 0 512 512"><defs><style>.cls-1{fill:#a99bd4;}.cls-2{fill:#b0d46c;}.cls-3{fill:#a0c157;}.cls-4{fill:#cfea94;}.cls-5{fill:#e4efc2;}.cls-6{fill:#fff;}</style></defs><title>Insurance</title><g id="BULINE"><circle class="cls-1" cx="256" cy="256" r="256"/></g><g id="Icons"><path class="cls-2" d="M442.62,151.94l-17.5,209.62c-4.71,56.35-109.47,102.7-151.71,119.15a48.12,48.12,0,0,1-34.82,0c-42.24-16.45-147-62.8-151.71-119.15L69.38,151.94c-1.37-16.53,8.75-32,25-38.16C134,98.83,206.35,68.3,241.5,33.06a20.69,20.69,0,0,1,29,0C305.65,68.3,378,98.83,417.58,113.78,433.87,119.93,444,135.41,442.62,151.94Z"/><path class="cls-3" d="M256,27.13V484a48.22,48.22,0,0,1-17.41-3.26c-42.24-16.45-147-62.8-151.71-119.15L69.38,151.94c-1.37-16.53,8.75-32,25-38.16C134,98.83,206.35,68.3,241.5,33.06A20.42,20.42,0,0,1,256,27.13Z"/><path class="cls-4" d="M267.94,72.43a17,17,0,0,0-23.88,0c-28.92,29-88.46,54.14-121,66.44-13.4,5.06-21.73,17.8-20.6,31.4l14.4,172.53c3.87,46.38,90.1,84.52,124.86,98.06a39.58,39.58,0,0,0,28.66,0c34.76-13.54,121-51.68,124.86-98.06l14.4-172.53c1.13-13.6-7.2-26.34-20.6-31.4C356.4,126.57,296.86,101.43,267.94,72.43Z"/><path class="cls-2" d="M256,67.55v376a39.42,39.42,0,0,1-14.33-2.68c-34.76-13.54-121-51.68-124.86-98.06l-14.4-172.53c-1.13-13.6,7.21-26.34,20.6-31.4,32.59-12.3,92.13-37.44,121.05-66.43A16.82,16.82,0,0,1,256,67.55Z"/><circle class="cls-5" cx="370.63" cy="170.19" r="18.84"/><circle class="cls-5" cx="337.12" cy="149.76" r="13.34"/><path class="cls-3" d="M256,162.19s-12.22,189.56-12.67,189.75l-35.05,15.43a3.46,3.46,0,0,1-4.85-3.17V349.42a3.49,3.49,0,0,1,1.41-2.78l21.71-15.95a3.48,3.48,0,0,0,1.39-3.16l-5-46a3.45,3.45,0,0,0-4.29-3l-64.31,16.37a3.46,3.46,0,0,1-4.32-3.35V274.81a3.48,3.48,0,0,1,1.57-2.9c9.41-6.1,58.12-37.64,69-42.68a3.46,3.46,0,0,0,2-3l2.11-47.94a15.48,15.48,0,0,1,6.07-11.42C234.41,164,250.6,162.19,256,162.19Z"/><path class="cls-6" d="M350.69,291.53V274.82a3.44,3.44,0,0,0-1.58-2.9c-9.4-6.11-58.11-37.65-69-42.69a3.47,3.47,0,0,1-2-3L276,178.29c-.33-9-9.19-16.1-20-16.1h0c-10.8,0-19.66,7.13-20,16.1l-2.11,47.94a3.47,3.47,0,0,1-2,3c-10.88,5-59.59,36.58-69,42.69a3.44,3.44,0,0,0-1.58,2.9v16.71a3.46,3.46,0,0,0,4.32,3.35l64.31-16.37a3.45,3.45,0,0,1,4.29,3l5,46a3.48,3.48,0,0,1-1.39,3.16l-21.71,15.95a3.45,3.45,0,0,0-1.41,2.79V364.2a3.45,3.45,0,0,0,4.85,3.16l35.06-15.42a3.45,3.45,0,0,1,2.78,0l35.06,15.42a3.45,3.45,0,0,0,4.85-3.16V349.43a3.45,3.45,0,0,0-1.41-2.79l-21.71-15.95a3.48,3.48,0,0,1-1.39-3.16l5-46a3.45,3.45,0,0,1,4.29-3l64.31,16.37A3.46,3.46,0,0,0,350.69,291.53Z"/></g></svg>