<svg xmlns="http://www.w3.org/2000/svg" viewBox="0 0 512 512"><defs><style>.cls-1{fill:#27273d;}.cls-2{fill:#fff;}.cls-3{fill:#e8e8e8;}.cls-4{fill:#f55b4b;}.cls-5{fill:#dd5045;}.cls-6{fill:#32314b;}.cls-7{fill:#a65c3b;}.cls-8{fill:#fc715a;}.cls-9{fill:#fcc8bc;}.cls-10{fill:#fab3a7;}.cls-11{fill:#fff9f8;}</style></defs><title>Insurance</title><g id="BULINE"><circle class="cls-1" cx="256" cy="256" r="256"/></g><g id="Icons"><path class="cls-2" d="M153.57,76.65H359.72a0,0,0,0,1,0,0V330.26a1.13,1.13,0,0,1-1.13,1.13H154.7a1.13,1.13,0,0,1-1.13-1.13V76.65A0,0,0,0,1,153.57,76.65Z"/><path class="cls-3" d="M359.72,76.66v20H193.9a21.83,21.83,0,0,0-21.83,21.83v212.9H154.7a1.13,1.13,0,0,1-1.13-1.12V76.66Z"/><rect class="cls-4" x="146.63" y="48.39" width="219.84" height="29.76" rx="6.94"/><path class="cls-5" d="M366.48,63.58v7.63a7,7,0,0,1-6.94,7h-206a7,7,0,0,1-6.94-7V63.58a6.94,6.94,0,0,0,6.94,6.94h206A6.94,6.94,0,0,0,366.48,63.58Z"/><path class="cls-6" d="M271.67,107.36h73.19a2.55,2.55,0,0,1,2.55,2.55v43.85a0,0,0,0,1,0,0H269.12a0,0,0,0,1,0,0V109.9A2.55,2.55,0,0,1,271.67,107.36Z"/><polygon class="cls-2" points="349.62 127.79 328.08 127.79 328.08 106.98 320.68 106.98 320.68 127.79 297.16 127.79 297.16 106.98 289.76 106.98 289.76 127.79 266.91 127.79 266.91 135.19 289.76 135.19 289.76 156 297.16 156 297.16 135.19 320.68 135.19 320.68 156 328.08 156 328.08 135.19 349.62 135.19 349.62 127.79"/><rect class="cls-7" x="265.68" y="153.75" width="85.16" height="13.01" rx="3"/><path class="cls-6" d="M271.67,178.43h73.19a2.55,2.55,0,0,1,2.55,2.55v43.85a0,0,0,0,1,0,0H269.12a0,0,0,0,1,0,0V181A2.55,2.55,0,0,1,271.67,178.43Z"/><polygon class="cls-2" points="349.62 198.86 328.08 198.86 328.08 178.05 320.68 178.05 320.68 198.86 297.16 198.86 297.16 178.05 289.76 178.05 289.76 198.86 266.91 198.86 266.91 206.26 289.76 206.26 289.76 227.07 297.16 227.07 297.16 206.26 320.68 206.26 320.68 227.07 328.08 227.07 328.08 206.26 349.62 206.26 349.62 198.86"/><rect class="cls-7" x="265.68" y="224.82" width="85.16" height="13.01" rx="3"/><path class="cls-6" d="M168.63,178.43h73.19a2.55,2.55,0,0,1,2.55,2.55v43.85a0,0,0,0,1,0,0H166.08a0,0,0,0,1,0,0V181A2.55,2.55,0,0,1,168.63,178.43Z"/><polygon class="cls-2" points="246.58 198.86 225.04 198.86 225.04 178.05 217.64 178.05 217.64 198.86 194.12 198.86 194.12 178.05 186.72 178.05 186.72 198.86 163.86 198.86 163.86 206.26 186.72 206.26 186.72 227.07 194.12 227.07 194.12 206.26 217.64 206.26 217.64 227.07 225.04 227.07 225.04 206.26 246.58 206.26 246.58 198.86"/><rect class="cls-7" x="162.64" y="224.82" width="85.16" height="13.01" rx="3"/><path class="cls-6" d="M271.67,249.5h73.19a2.55,2.55,0,0,1,2.55,2.55v43.85a0,0,0,0,1,0,0H269.12a0,0,0,0,1,0,0V252A2.55,2.55,0,0,1,271.67,249.5Z"/><polygon class="cls-2" points="349.62 269.93 328.08 269.93 328.08 249.12 320.68 249.12 320.68 269.93 297.16 269.93 297.16 249.12 289.76 249.12 289.76 269.93 266.91 269.93 266.91 277.33 289.76 277.33 289.76 298.14 297.16 298.14 297.16 277.33 320.68 277.33 320.68 298.14 328.08 298.14 328.08 277.33 349.62 277.33 349.62 269.93"/><rect class="cls-7" x="265.68" y="295.89" width="85.16" height="13.01" rx="3"/><path class="cls-6" d="M168.63,107.36h73.19a2.55,2.55,0,0,1,2.55,2.55v43.85a0,0,0,0,1,0,0H166.08a0,0,0,0,1,0,0V109.9A2.55,2.55,0,0,1,168.63,107.36Z"/><polygon class="cls-2" points="246.58 127.79 225.04 127.79 225.04 106.98 217.64 106.98 217.64 127.79 194.12 127.79 194.12 106.98 186.72 106.98 186.72 127.79 163.86 127.79 163.86 135.19 186.72 135.19 186.72 156 194.12 156 194.12 135.19 217.64 135.19 217.64 156 225.04 156 225.04 135.19 246.58 135.19 246.58 127.79"/><rect class="cls-7" x="162.64" y="153.75" width="85.16" height="13.01" rx="3"/><path class="cls-4" d="M179.46,246.29H231a5.25,5.25,0,0,1,5.25,5.25v79.85a0,0,0,0,1,0,0h-62a0,0,0,0,1,0,0V251.54A5.25,5.25,0,0,1,179.46,246.29Z"/><circle class="cls-8" cx="352.46" cy="59.59" r="7.26"/><circle class="cls-8" cx="337.34" cy="59.59" r="5.14"/><rect class="cls-3" x="144.88" y="331.39" width="223.6" height="15.94" rx="3.25"/><path class="cls-9" d="M192.1,504a254.4,254.4,0,0,1-69-29.12c-25.57-61-66.59-159-67.49-161.57-5.35-15.18,14.73-55,19.16-63.39,2.59-4.93,5.53-9.3,8.88-11.81A13.83,13.83,0,0,1,86,236.66c9.63-4.39,19.66,5.68,16.08,15.41-3.74,10.08-16.22,42.3-14,49.77,1.19,4,3.44,8.06,5.1,11.92A13.76,13.76,0,0,1,114,297.38c5.16,3.74,7.19,11.82,9.59,17.43,2.54,6,11.28,27.47,15.27,30.94,6.87,6,12,7.51,16.33,16.33a55.09,55.09,0,0,1,5.68,24.14c.07,8.06-3.7,16.11-3.61,23.83C157.4,419.4,176.71,467,192.1,504Z"/><path class="cls-10" d="M133.14,480.63q-5.1-2.78-10-5.79c-25.57-61-66.59-159-67.49-161.57-5.35-15.18,14.73-55,19.16-63.39,2.59-4.93,5.53-9.3,8.88-11.81a11.7,11.7,0,0,1,11.27-1.65,4.74,4.74,0,0,1,1.51.72,12.44,12.44,0,0,0-4.64,2.18c-3.35,2.51-6.29,6.88-8.88,11.81-4.43,8.43-24.52,48.21-19.16,63.38C64.68,317.14,107.76,420.05,133.14,480.63Z"/><path class="cls-10" d="M100.12,296.05a13.76,13.76,0,0,0-7.25,18.07l18.25,42.73c.15-.26.29-.52.44-.77a11.84,11.84,0,0,0,.61-10.65L97.88,312a13.74,13.74,0,0,1,3.74-15.89,10.28,10.28,0,0,1,1.11-.86A13.36,13.36,0,0,0,100.12,296.05Z"/><path class="cls-11" d="M103.09,299.24h6.75a2.36,2.36,0,0,1,2.36,2.36v11.54a2.36,2.36,0,0,1-2.36,2.36h-6.75A5.49,5.49,0,0,1,97.6,310v-5.29A5.49,5.49,0,0,1,103.09,299.24Z" transform="translate(-136.55 524.57) rotate(-113.13)"/><path class="cls-11" d="M74.77,249.88l3.3,1.75a5.48,5.48,0,0,0,7.42-2.27l3.16-6a2.36,2.36,0,0,0-1-3.2l-4-2.14C80.3,240.58,77.36,245,74.77,249.88Z"/><path class="cls-9" d="M459.82,307.72c-.71,2.49-32.39,93.4-54.23,156a254.94,254.94,0,0,1-67.67,34.85c12.55-36.44,26.76-79.36,26.32-88.08-.38-7.71-4.63-15.52-5.05-23.56a54.93,54.93,0,0,1,4.19-24.45c3.84-9.06,8.81-10.92,15.3-17.3,3.78-3.7,11.19-25.69,13.36-31.8,2-5.75,3.59-13.94,8.5-18a13.76,13.76,0,0,1,21.76,15.07c1.43-3.95,3.42-8.14,4.37-12.21,1.79-7.59-12.63-39-17-48.82-4.17-9.49,5.23-20.15,15.11-16.36a12.65,12.65,0,0,1,2.45,1.26c3.5,2.3,6.7,6.48,9.58,11.25C441.77,253.77,464.24,292.25,459.82,307.72Z"/><path class="cls-10" d="M417.2,294.81a13.68,13.68,0,0,0-9.52,3.07c-4.92,4-6.46,12.23-8.51,18C397,322,389.59,344,385.82,347.67c-6.5,6.37-11.47,8.23-15.31,17.3a55.15,55.15,0,0,0-4.19,24.44c.42,8,4.68,15.85,5.05,23.56.41,8.26-12.35,47.29-24.37,82.38q-4.5,1.71-9.08,3.26c12.55-36.44,26.76-79.36,26.32-88.08-.38-7.71-4.63-15.52-5.05-23.56a54.93,54.93,0,0,1,4.19-24.45c3.84-9.06,8.81-10.92,15.3-17.3,3.78-3.7,11.19-25.69,13.36-31.8,2-5.75,3.59-13.94,8.5-18A13.89,13.89,0,0,1,417.2,294.81Z"/><path class="cls-10" d="M414.35,293.26a13.75,13.75,0,0,1,8.34,17.59l-15.61,43.76c-.16-.24-.32-.5-.49-.74a11.87,11.87,0,0,1-1.26-10.59L417.55,309a13.76,13.76,0,0,0-4.7-15.64,11.82,11.82,0,0,0-1.16-.79A13.47,13.47,0,0,1,414.35,293.26Z"/><path class="cls-11" d="M408.46,296.71h6.75a2.36,2.36,0,0,1,2.36,2.36v11.54A2.36,2.36,0,0,1,415.2,313h-6.75a5.49,5.49,0,0,1-5.49-5.49V302.2a5.49,5.49,0,0,1,5.49-5.49Z" transform="translate(-14.7 588.84) rotate(-70.37)"/><path class="cls-11" d="M436.83,245.63l-3.18,2a5.48,5.48,0,0,1-7.54-1.82L422.58,240a2.37,2.37,0,0,1,.78-3.25l3.89-2.38C430.75,236.68,434,240.86,436.83,245.63Z"/></g></svg>