<svg xmlns="http://www.w3.org/2000/svg" viewBox="0 0 512 512"><defs><style>.cls-1{fill:#f55b4b;}.cls-2{fill:#00b564;}.cls-3{fill:#009950;}.cls-4{fill:#b0d46c;}.cls-5{fill:#fff;}.cls-6{fill:#dfe0de;}.cls-7{fill:#db1b1b;}.cls-8{fill:#a65c3b;}.cls-9{fill:#c41c1c;}</style></defs><title>Insurance</title><g id="BULINE"><circle class="cls-1" cx="256" cy="256" r="256"/></g><g id="Icons"><path class="cls-2" d="M226.84,214.48A37.3,37.3,0,0,0,271.29,165a41,41,0,0,0-34-63.11A52.24,52.24,0,0,0,221,80c-11.22-8.73-25.22-12.1-39.73-10.71a37.29,37.29,0,1,0-67.48,31.46A37.28,37.28,0,0,0,76,163.15a42.71,42.71,0,0,0-3.12,3.56A41,41,0,0,0,111,232.53a58.66,58.66,0,0,0,115.87-18.05Z"/><path class="cls-3" d="M182.32,278.93A58.65,58.65,0,0,1,111,232.53a41,41,0,0,1-38.14-65.82A42.82,42.82,0,0,1,76,163.15a37.28,37.28,0,0,1,37.79-62.37,37.29,37.29,0,0,1,46.55-52.33,37.3,37.3,0,0,0-19.14,52.33,37.28,37.28,0,0,0-37.79,62.37,42.71,42.71,0,0,0-3.12,3.56,41,41,0,0,0,38.14,65.82,58.69,58.69,0,0,0,43.94,46.4Z"/><path class="cls-4" d="M468.11,399.38a256.06,256.06,0,0,1-424.22,0Z"/><rect class="cls-5" x="211.51" y="163.19" width="32.79" height="49.61"/><path class="cls-5" d="M437.66,216.43V388.29h-234V216.43l110.51-59.78a13.84,13.84,0,0,1,12.94,0Z"/><path class="cls-6" d="M437.66,228.31v30L328.13,195.44a14.91,14.91,0,0,0-14.9,0L203.7,258.31v-30l110.51-63.42a13.51,13.51,0,0,1,4.78-1.6,14.7,14.7,0,0,1,3.38,0l.62.1a10.42,10.42,0,0,1,1.23.28,13.86,13.86,0,0,1,2.93,1.22Z"/><path class="cls-7" d="M468.67,238.78a13,13,0,0,1-17.74,4.81L437.66,236,328.13,173.11a14.91,14.91,0,0,0-14.9,0L203.7,236l-13.27,7.61A13,13,0,0,1,177.49,221L203.7,206l110.51-63.41a13.15,13.15,0,0,1,12.94,0L437.66,206,463.87,221A13,13,0,0,1,468.67,238.78Z"/><rect class="cls-8" x="203.7" y="367.1" width="15.16" height="21.18"/><rect class="cls-8" x="203.7" y="326.18" width="15.16" height="21.18"/><rect class="cls-8" x="203.7" y="285.27" width="15.16" height="21.18"/><rect class="cls-8" x="422.74" y="367.1" width="15.16" height="21.18"/><rect class="cls-8" x="422.74" y="326.18" width="15.16" height="21.18"/><rect class="cls-8" x="422.74" y="285.27" width="15.16" height="21.18"/><path class="cls-7" d="M298.41,282.38h44.53a4.69,4.69,0,0,1,4.69,4.69V388.29a0,0,0,0,1,0,0H293.72a0,0,0,0,1,0,0V287.07A4.69,4.69,0,0,1,298.41,282.38Z"/><path class="cls-9" d="M308.16,282.38a4.69,4.69,0,0,0-4.69,4.69V388.28h-9.75V287.07a4.69,4.69,0,0,1,4.7-4.69Z"/><rect class="cls-7" x="225.6" y="282.38" width="51.03" height="55.36" rx="5.54"/><rect class="cls-7" x="361.36" y="282.38" width="51.03" height="55.36" rx="5.54"/><rect class="cls-8" x="200.82" y="147.1" width="54.16" height="16.09" rx="4.44"/><path class="cls-7" d="M320.68,204.14a25.5,25.5,0,1,0,25.5,25.5A25.5,25.5,0,0,0,320.68,204.14Zm0,42.72a17.22,17.22,0,1,1,17.21-17.22A17.21,17.21,0,0,1,320.68,246.86Z"/><rect class="cls-6" x="195.18" y="387.29" width="250.47" height="16.47" rx="3.9"/><circle class="cls-1" cx="398.59" cy="309.03" r="7.1"/><circle class="cls-1" cx="398.59" cy="294.24" r="5.03"/><polygon class="cls-8" points="77.36 262.83 67.02 275.72 59.36 269.48 59.36 399.27 98.36 399.27 98.36 268.01 86.69 275.72 77.36 262.83"/><path class="cls-8" d="M161.84,124.24,79.59,229.94l1,11.14,18.51-7-3,19,15.4-.79L192.62,148.2a19.51,19.51,0,0,0-3.42-27.37h0A19.5,19.5,0,0,0,161.84,124.24Z"/></g></svg>