<svg xmlns="http://www.w3.org/2000/svg" viewBox="0 0 512 512"><defs><style>.cls-1{fill:#a99bd4;}.cls-2{fill:#a65c3b;}.cls-3{fill:#fff;}.cls-4{fill:#dfe0de;}.cls-5{fill:#db1b1b;}.cls-6{fill:#c41c1c;}.cls-7{fill:#f55b4b;}.cls-8{fill:#9e4830;}.cls-9{fill:#32314b;}</style></defs><title>Insurance</title><g id="BULINE"><circle class="cls-1" cx="256" cy="256" r="256"/></g><g id="Icons"><path class="cls-2" d="M512,257.37A255,255,0,0,1,486.3,367.92q-2.93,6-6.14,11.81A256.26,256.26,0,0,1,154.74,491.19q-2.9-1.24-5.75-2.57a256.94,256.94,0,0,1-114.94-105Q30.78,378,27.8,372.12A254.87,254.87,0,0,1,0,257.37Z"/><rect class="cls-3" x="156.14" y="52.38" width="29.99" height="45.38"/><path class="cls-3" d="M363,101.08v157.2H149V101.08L250.08,46.4a12.66,12.66,0,0,1,11.84,0Z"/><path class="cls-4" d="M363,112v27.44L262.82,81.88a13.67,13.67,0,0,0-13.64,0L149,139.39V112l101.09-58a12.16,12.16,0,0,1,4.37-1.47,13.39,13.39,0,0,1,3.1,0l.56.09a10.32,10.32,0,0,1,1.13.26,12.27,12.27,0,0,1,2.68,1.12Z"/><path class="cls-5" d="M391.37,121.52a11.87,11.87,0,0,1-16.22,4.4L363,119,262.82,61.46a13.62,13.62,0,0,0-13.64,0L149,119l-12.14,7A11.89,11.89,0,0,1,125,105.29l24-13.77,101.09-58a12,12,0,0,1,11.84,0L363,91.52l24,13.77A11.88,11.88,0,0,1,391.37,121.52Z"/><rect class="cls-2" x="148.99" y="238.91" width="13.87" height="19.38"/><rect class="cls-2" x="148.99" y="201.48" width="13.87" height="19.38"/><rect class="cls-2" x="148.99" y="164.05" width="13.87" height="19.38"/><rect class="cls-2" x="349.36" y="238.91" width="13.87" height="19.38"/><rect class="cls-2" x="349.36" y="201.48" width="13.87" height="19.38"/><rect class="cls-2" x="349.36" y="164.05" width="13.87" height="19.38"/><path class="cls-5" d="M235.63,161.4h40.73a4.29,4.29,0,0,1,4.29,4.29v92.58a0,0,0,0,1,0,0H231.34a0,0,0,0,1,0,0V165.7A4.29,4.29,0,0,1,235.63,161.4Z"/><path class="cls-6" d="M244.55,161.4a4.29,4.29,0,0,0-4.29,4.3v92.58h-8.92V165.7a4.29,4.29,0,0,1,4.3-4.3Z"/><rect class="cls-5" x="169.03" y="161.4" width="46.68" height="50.64" rx="5.06"/><rect class="cls-5" x="293.21" y="161.4" width="46.68" height="50.64" rx="5.06"/><rect class="cls-2" x="146.36" y="37.66" width="49.54" height="14.72" rx="4.06"/><path class="cls-5" d="M256,89.84a23.33,23.33,0,1,0,23.33,23.32A23.32,23.32,0,0,0,256,89.84Zm0,39.08a15.75,15.75,0,1,1,15.74-15.76A15.75,15.75,0,0,1,256,128.92Z"/><rect class="cls-4" x="141.2" y="257.37" width="229.11" height="15.07" rx="3.56"/><circle class="cls-7" cx="327.27" cy="185.79" r="6.49"/><circle class="cls-7" cx="327.27" cy="172.26" r="4.6"/><path class="cls-8" d="M244.55,355.7l17.19,37.5L169,437.7l-14.29,53.49q-2.9-1.24-5.75-2.57V432.53l82.35-47.83-4.6-33.5,29-22.67L238,301.2l46.79-28.34-23,28.34,27,18.33Z"/><path class="cls-8" d="M486.3,367.92q-2.93,6-6.14,11.81l-51.42-46-58.42,13,5.42-32.84L322.67,282.7l66.07,23v18.16l46-4.33Z"/><path class="cls-8" d="M142.84,313.86l5.42,32.84-58.42-13L34.05,383.64Q30.78,378,27.8,372.12l56-52.59,46,4.33V305.7l66.06-23Z"/><polygon class="cls-9" points="297.24 257.2 293.21 242.7 303.74 228.7 300.74 216.7 309.24 228.7 298.74 242.7 297.24 257.2"/><polygon class="cls-9" points="202.04 257.2 206.06 242.7 195.54 228.7 198.54 216.7 190.04 228.7 200.54 242.7 202.04 257.2"/><polygon class="cls-9" points="201.57 88.78 210.74 113.17 201.57 127.5 210.74 154.7 201.57 139.38 190.04 128.91 203.24 113.17 190.04 95.4 201.57 88.78"/><polygon class="cls-9" points="310.39 88.78 301.22 113.17 310.39 127.5 301.22 154.7 310.39 139.38 321.92 128.91 308.72 113.17 321.92 95.4 310.39 88.78"/><polygon class="cls-9" points="148.99 147.2 162.87 145.2 166.74 151.6 186.13 151.6 167.56 158.2 158.24 154.7 148.99 158.2 148.99 147.2"/><polygon class="cls-9" points="363.4 140.7 349.53 138.7 345.66 145.1 326.27 145.1 344.84 151.7 354.16 148.2 363.4 151.7 363.4 140.7"/></g></svg>