<svg xmlns="http://www.w3.org/2000/svg" viewBox="0 0 512 512"><defs><style>.cls-1{fill:#934cf5;}.cls-2{fill:#32314b;}.cls-3{fill:#27273d;}.cls-4{fill:#41c0e3;}.cls-5{fill:#7cc8fb;}.cls-6{fill:#db1b1b;}.cls-7{fill:#404060;}.cls-8{fill:#b0d46c;}.cls-9{fill:#a0c157;}.cls-10{fill:#cfea94;}.cls-11{fill:#e4efc2;}</style></defs><title>Insurance</title><g id="BULINE"><circle class="cls-1" cx="256" cy="256" r="256"/></g><g id="Icons"><path class="cls-2" d="M377.81,44.41V467.59a10.29,10.29,0,0,1-10.29,10.29H143.12c-1.07,0-10.29-7.46-10.29-10.29V44.39a10.29,10.29,0,0,1,10.29-10.28h224.4A10.3,10.3,0,0,1,377.81,44.41Z"/><path class="cls-3" d="M196.09,477.89h-53a10.3,10.3,0,0,1-10.3-10.3V44.4a10.29,10.29,0,0,1,10.3-10.29h53a10.29,10.29,0,0,0-10.3,10.29V467.59A10.3,10.3,0,0,0,196.09,477.89Z"/><circle class="cls-3" cx="255.32" cy="446.83" r="22.07"/><rect class="cls-3" x="132.81" y="120.26" width="0.01" height="110.45"/><path class="cls-3" d="M377.81,120.26h8a7.11,7.11,0,0,1,7.11,7.11v15.11a7.11,7.11,0,0,1-7.11,7.11h-8a0,0,0,0,1,0,0V120.26A0,0,0,0,1,377.81,120.26Z"/><path class="cls-3" d="M392.89,208.49V223.6a7.11,7.11,0,0,1-7.11,7.11h-8V201.37h8A7.11,7.11,0,0,1,392.89,208.49Z"/><rect class="cls-4" x="132.82" y="78.32" width="52.97" height="337.24"/><path class="cls-5" d="M377.81,78.32V415.56h-245V78.32h73.49v5.94a12.43,12.43,0,0,0,12.42,12.43h72.42a12.43,12.43,0,0,0,12.42-12.43V78.32Z"/><rect class="cls-4" x="132.81" y="78.32" width="52.97" height="337.24"/><circle class="cls-3" cx="254.95" cy="57.65" r="12.82"/><circle class="cls-6" cx="254.95" cy="57.65" r="5.23"/><circle class="cls-7" cx="357.72" cy="57.65" r="10.67"/><circle class="cls-7" cx="335.13" cy="57.65" r="8.8"/><path class="cls-8" d="M354.1,199.87l-9.48,113.56C342.07,344,285.31,369.07,262.43,378a26.14,26.14,0,0,1-18.86,0c-22.88-8.91-79.64-34-82.19-64.55L151.9,199.87a20.46,20.46,0,0,1,13.56-20.67c21.45-8.1,60.65-24.64,79.68-43.73a11.23,11.23,0,0,1,15.72,0c19,19.09,58.23,35.63,79.68,43.73A20.46,20.46,0,0,1,354.1,199.87Z"/><path class="cls-9" d="M253,132.26V379.74a26.07,26.07,0,0,1-9.43-1.76c-22.88-8.91-79.64-34-82.19-64.55L151.9,199.87a20.46,20.46,0,0,1,13.56-20.67c21.45-8.1,60.65-24.64,79.68-43.73A11,11,0,0,1,253,132.26Z"/><path class="cls-10" d="M259.47,156.8a9.23,9.23,0,0,0-12.94,0c-15.67,15.71-47.92,29.33-65.58,36a16.83,16.83,0,0,0-11.15,17l7.8,93.47c2.09,25.12,48.8,45.78,67.64,53.12a21.42,21.42,0,0,0,15.52,0c18.84-7.34,65.55-28,67.64-53.12l7.8-93.47a16.83,16.83,0,0,0-11.15-17C307.39,186.13,275.14,172.51,259.47,156.8Z"/><path class="cls-8" d="M253,154.16V357.84a21.41,21.41,0,0,1-7.77-1.45c-18.82-7.33-65.54-28-67.63-53.12l-7.81-93.47a16.85,16.85,0,0,1,11.16-17c17.66-6.66,49.91-20.28,65.58-36A9.13,9.13,0,0,1,253,154.16Z"/><circle class="cls-11" cx="315.1" cy="209.76" r="10.21"/><circle class="cls-11" cx="296.94" cy="198.69" r="7.23"/></g></svg>