<svg xmlns="http://www.w3.org/2000/svg" viewBox="0 0 512 512"><defs><style>.cls-1{fill:#00b564;}.cls-2{fill:#41c0e3;}.cls-3{fill:#fff;}.cls-4{fill:#dfe0de;}.cls-5{fill:#db1b1b;}.cls-6{fill:#a65c3b;}.cls-7{fill:#c41c1c;}.cls-8{fill:#f55b4b;}.cls-9{fill:#7cc8fb;}</style></defs><title>Insurance</title><g id="BULINE"><circle class="cls-1" cx="256" cy="256" r="256"/></g><g id="Icons"><path class="cls-2" d="M512,256c0,141.38-114.62,256-256,256S0,397.38,0,256a255.76,255.76,0,0,1,12.13-78.09c2.7,4,7.39,8.56,15.2,13.38,5-9.57,20.88-31.09,62.17-31.09,0,0-12.51,13.67,15.73,31.09,5-9.57,20.88-31.09,62.16-31.09,0,0-12.5,13.67,15.74,31.09,5-9.57,20.87-31.09,62.16-31.09,0,0-12.51,13.67,15.73,31.09,5-9.57,20.88-31.09,62.17-31.09,0,0-11.37,12.43,12.06,28.69,6.25-10.35,22.7-28.69,60.81-28.69,0,0-12.5,13.67,15.74,31.09,5-9.57,20.87-31.09,62.16-31.09,0,0-12.51,13.67,15.73,31.09A51.13,51.13,0,0,1,499.89,178,255.91,255.91,0,0,1,512,256Z"/><rect class="cls-3" x="147.17" y="64.75" width="32.79" height="49.61"/><path class="cls-3" d="M373.33,118V289.84h-234V118L249.87,58.21a13.84,13.84,0,0,1,12.94,0Z"/><path class="cls-4" d="M373.33,129.87v30L263.8,97a14.93,14.93,0,0,0-14.91,0L139.36,159.86v-30L249.87,66.45a13.3,13.3,0,0,1,4.79-1.6,14.61,14.61,0,0,1,3.37,0l.63.1c.41.07.82.16,1.22.27a13.68,13.68,0,0,1,2.93,1.23Z"/><path class="cls-5" d="M404.33,140.34a13,13,0,0,1-17.73,4.81l-13.27-7.61L263.8,74.67a14.93,14.93,0,0,0-14.91,0L139.36,137.54l-13.27,7.61a13,13,0,0,1-12.94-22.56l26.21-15L249.87,44.12a13.2,13.2,0,0,1,12.94,0l110.52,63.42,26.21,15A13,13,0,0,1,404.33,140.34Z"/><rect class="cls-6" x="139.36" y="268.66" width="15.16" height="21.18"/><rect class="cls-6" x="139.36" y="227.74" width="15.16" height="21.18"/><rect class="cls-6" x="139.36" y="186.82" width="15.16" height="21.18"/><rect class="cls-6" x="358.4" y="268.66" width="15.16" height="21.18"/><rect class="cls-6" x="358.4" y="227.74" width="15.16" height="21.18"/><rect class="cls-6" x="358.4" y="186.82" width="15.16" height="21.18"/><path class="cls-5" d="M234.08,183.93h44.53a4.69,4.69,0,0,1,4.69,4.69V289.84a0,0,0,0,1,0,0H229.39a0,0,0,0,1,0,0V188.63A4.69,4.69,0,0,1,234.08,183.93Z"/><path class="cls-7" d="M243.83,183.94a4.69,4.69,0,0,0-4.7,4.69V289.84h-9.74V188.63a4.69,4.69,0,0,1,4.69-4.69Z"/><rect class="cls-5" x="161.27" y="183.93" width="51.03" height="55.36" rx="5.54"/><rect class="cls-5" x="297.02" y="183.93" width="51.03" height="55.36" rx="5.54"/><rect class="cls-6" x="136.49" y="48.66" width="54.16" height="16.09" rx="4.44"/><path class="cls-5" d="M256.34,105.7a25.5,25.5,0,1,0,25.51,25.5A25.5,25.5,0,0,0,256.34,105.7Zm0,42.72a17.22,17.22,0,1,1,17.22-17.22A17.21,17.21,0,0,1,256.34,148.42Z"/><rect class="cls-4" x="130.85" y="288.84" width="250.47" height="16.47" rx="3.9"/><circle class="cls-8" cx="334.26" cy="210.59" r="7.1"/><circle class="cls-8" cx="334.26" cy="195.8" r="5.03"/><path class="cls-9" d="M473.67,390.8A255.83,255.83,0,0,1,256,512C114.62,512,0,397.38,0,256a258.15,258.15,0,0,1,2.55-36.26c13.88-35.35,44-62.29,81.18-71.07a108.18,108.18,0,0,1,61.9,3.43,4.49,4.49,0,0,1,.43,8.31c-17.58,8.06-49.81,28.62-28.21,64.69,0,0,27.12-39.7,75.21-20a4.49,4.49,0,0,1,1.4,7.41c-9,8.62-24.91,28.84-6.69,51.43,0,0,28.94-33.87,78.71-21.32a4.48,4.48,0,0,1,2.53,7c-6.91,9.2-17.28,29.88,5.71,52.43,0,0,12.54-23.56,54.15-18a4.48,4.48,0,0,1,3.36,6.6c-4.44,7.87-8.72,23,12.09,36.77C344.32,327.41,394.82,368.86,473.67,390.8Z"/></g></svg>