<svg xmlns="http://www.w3.org/2000/svg" viewBox="0 0 512 512"><defs><style>.cls-1{fill:#934cf5;}.cls-2{fill:#fff;}.cls-3{fill:#e8e8e8;}.cls-4{fill:#f55b4b;}.cls-5{fill:#dd5045;}.cls-6{fill:#32314b;}.cls-7{fill:#a65c3b;}.cls-8{fill:#fc715a;}.cls-9{fill:#b0d46c;}.cls-10{fill:#a0c157;}.cls-11{fill:#cfea94;}.cls-12{fill:#e4efc2;}</style></defs><title>Insurance</title><g id="BULINE"><circle class="cls-1" cx="256" cy="256" r="256"/></g><g id="Icons"><path class="cls-2" d="M118.55,92.7H396.41a0,0,0,0,1,0,0V434.53A1.52,1.52,0,0,1,394.9,436H120.07a1.52,1.52,0,0,1-1.52-1.52V92.7A0,0,0,0,1,118.55,92.7Z"/><path class="cls-3" d="M396.41,92.71v27H172.91a29.42,29.42,0,0,0-29.42,29.42v287H120.07a1.52,1.52,0,0,1-1.52-1.52V92.71Z"/><rect class="cls-4" x="109.2" y="54.61" width="296.32" height="40.12" rx="9.35"/><path class="cls-5" d="M405.52,75.09V85.37a9.36,9.36,0,0,1-9.36,9.36H118.55a9.36,9.36,0,0,1-9.35-9.36V75.09a9.35,9.35,0,0,0,9.35,9.35H396.16A9.36,9.36,0,0,0,405.52,75.09Z"/><path class="cls-6" d="M277.73,134.08h98.65a3.43,3.43,0,0,1,3.43,3.43v59.1a0,0,0,0,1,0,0H274.3a0,0,0,0,1,0,0v-59.1A3.43,3.43,0,0,1,277.73,134.08Z"/><polygon class="cls-2" points="382.8 161.63 353.77 161.63 353.77 133.58 343.8 133.58 343.8 161.63 312.1 161.63 312.1 133.58 302.12 133.58 302.12 161.63 271.31 161.63 271.31 171.6 302.12 171.6 302.12 199.65 312.1 199.65 312.1 171.6 343.8 171.6 343.8 199.65 353.77 199.65 353.77 171.6 382.8 171.6 382.8 161.63"/><rect class="cls-7" x="269.66" y="196.62" width="114.79" height="17.53" rx="4.05"/><path class="cls-6" d="M277.73,229.88h98.65a3.43,3.43,0,0,1,3.43,3.43v59.1a0,0,0,0,1,0,0H274.3a0,0,0,0,1,0,0v-59.1A3.43,3.43,0,0,1,277.73,229.88Z"/><polygon class="cls-2" points="382.8 257.42 353.77 257.42 353.77 229.37 343.8 229.37 343.8 257.42 312.1 257.42 312.1 229.37 302.12 229.37 302.12 257.42 271.31 257.42 271.31 267.39 302.12 267.39 302.12 295.44 312.1 295.44 312.1 267.39 343.8 267.39 343.8 295.44 353.77 295.44 353.77 267.39 382.8 267.39 382.8 257.42"/><rect class="cls-7" x="269.66" y="292.41" width="114.79" height="17.53" rx="4.05"/><path class="cls-6" d="M138.84,229.88h98.65a3.43,3.43,0,0,1,3.43,3.43v59.1a0,0,0,0,1,0,0H135.41a0,0,0,0,1,0,0v-59.1A3.43,3.43,0,0,1,138.84,229.88Z"/><polygon class="cls-2" points="243.91 257.42 214.88 257.42 214.88 229.37 204.91 229.37 204.91 257.42 173.21 257.42 173.21 229.37 163.23 229.37 163.23 257.42 132.42 257.42 132.42 267.39 163.23 267.39 163.23 295.44 173.21 295.44 173.21 267.39 204.91 267.39 204.91 295.44 214.88 295.44 214.88 267.39 243.91 267.39 243.91 257.42"/><rect class="cls-7" x="130.77" y="292.41" width="114.79" height="17.53" rx="4.05"/><path class="cls-6" d="M277.73,325.67h98.65a3.43,3.43,0,0,1,3.43,3.43v59.1a0,0,0,0,1,0,0H274.3a0,0,0,0,1,0,0V329.1A3.43,3.43,0,0,1,277.73,325.67Z"/><polygon class="cls-2" points="382.8 353.21 353.77 353.21 353.77 325.17 343.8 325.17 343.8 353.21 312.1 353.21 312.1 325.17 302.12 325.17 302.12 353.21 271.31 353.21 271.31 363.19 302.12 363.19 302.12 391.24 312.1 391.24 312.1 363.19 343.8 363.19 343.8 391.24 353.77 391.24 353.77 363.19 382.8 363.19 382.8 353.21"/><rect class="cls-7" x="269.66" y="388.2" width="114.79" height="17.53" rx="4.05"/><path class="cls-6" d="M138.84,134.08h98.65a3.43,3.43,0,0,1,3.43,3.43v59.1a0,0,0,0,1,0,0H135.41a0,0,0,0,1,0,0v-59.1A3.43,3.43,0,0,1,138.84,134.08Z"/><polygon class="cls-2" points="243.91 161.63 214.88 161.63 214.88 133.58 204.91 133.58 204.91 161.63 173.21 161.63 173.21 133.58 163.23 133.58 163.23 161.63 132.42 161.63 132.42 171.6 163.23 171.6 163.23 199.65 173.21 199.65 173.21 171.6 204.91 171.6 204.91 199.65 214.88 199.65 214.88 171.6 243.91 171.6 243.91 161.63"/><rect class="cls-7" x="130.77" y="196.62" width="114.79" height="17.53" rx="4.05"/><path class="cls-4" d="M153.44,321.35h69.44a7.08,7.08,0,0,1,7.08,7.08V436.05a0,0,0,0,1,0,0h-83.6a0,0,0,0,1,0,0V328.43A7.08,7.08,0,0,1,153.44,321.35Z"/><circle class="cls-8" cx="386.63" cy="69.7" r="9.79"/><circle class="cls-8" cx="366.24" cy="69.7" r="6.93"/><rect class="cls-3" x="106.84" y="436.05" width="301.37" height="21.49" rx="4.38"/><path class="cls-9" d="M450.32,226.15l-5.05,60.55c-1.36,16.28-31.63,29.67-43.82,34.42a14,14,0,0,1-10.07,0c-12.2-4.75-42.46-18.14-43.82-34.42l-5.05-60.55a10.9,10.9,0,0,1,7.23-11c11.44-4.32,32.33-13.14,42.49-23.32a6,6,0,0,1,8.37,0c10.16,10.18,31,19,42.49,23.32A10.9,10.9,0,0,1,450.32,226.15Z"/><path class="cls-10" d="M396.41,190.09v132a14,14,0,0,1-5-.94c-12.2-4.75-42.46-18.14-43.82-34.42l-5.05-60.55a10.9,10.9,0,0,1,7.23-11c11.44-4.32,32.33-13.14,42.49-23.32A5.89,5.89,0,0,1,396.41,190.09Z"/><path class="cls-11" d="M399.86,203.18a4.91,4.91,0,0,0-6.89,0c-8.36,8.37-25.56,15.64-35,19.19a9,9,0,0,0-5.95,9.07l4.16,49.84c1.11,13.4,26,24.41,36.06,28.33a11.48,11.48,0,0,0,8.28,0c10.05-3.92,34.95-14.93,36.07-28.33l4.16-49.84a9,9,0,0,0-5.95-9.07C425.42,218.82,408.22,211.55,399.86,203.18Z"/><path class="cls-9" d="M396.41,201.77V310.38a11.59,11.59,0,0,1-4.14-.77c-10-3.91-34.95-14.93-36.06-28.33l-4.16-49.84a9,9,0,0,1,5.95-9.07c9.41-3.55,26.61-10.82,35-19.19A4.83,4.83,0,0,1,396.41,201.77Z"/><circle class="cls-12" cx="429.53" cy="231.42" r="5.44"/><circle class="cls-12" cx="419.85" cy="225.52" r="3.85"/></g></svg>