<svg xmlns="http://www.w3.org/2000/svg" viewBox="0 0 512 512"><defs><style>.cls-1{fill:#3586cb;}.cls-2{fill:#e88032;}.cls-3{fill:#a65c3b;}.cls-4{fill:#f7bb38;}.cls-5{fill:#9e4830;}.cls-6{fill:#d36e2a;}.cls-7{fill:#ef9050;}.cls-8{fill:#b0d46c;}.cls-9{fill:#a0c157;}.cls-10{fill:#cfea94;}.cls-11{fill:#e4efc2;}</style></defs><title>Insurance</title><g id="BULINE"><circle class="cls-1" cx="256" cy="256.05" r="256"/></g><g id="Icons"><path class="cls-2" d="M458.3,119.79V391.43a12.75,12.75,0,0,1-12.75,12.76H64.5a12.75,12.75,0,0,1-12.75-12.76V119.79A12.74,12.74,0,0,1,64.5,107.05H445.55A12.74,12.74,0,0,1,458.3,119.79Z"/><rect class="cls-3" x="338.7" y="92.85" width="31.11" height="325.03" rx="9.39"/><rect class="cls-4" x="199.51" y="83.2" width="13.68" height="23.85"/><rect class="cls-4" x="294.31" y="83.2" width="13.68" height="23.85"/><path class="cls-3" d="M85.92,106v1a34.36,34.36,0,0,1-34.36,34.36h-.89V118.72A12.75,12.75,0,0,1,63.43,106Z"/><path class="cls-3" d="M85.89,405.26H63.43a12.76,12.76,0,0,1-12.76-12.75V372.45h.89A34.35,34.35,0,0,1,85.89,405.26Z"/><path class="cls-3" d="M459.38,372.45v20.06a12.76,12.76,0,0,1-12.76,12.75H423.74a34.36,34.36,0,0,1,34.33-32.81Z"/><path class="cls-3" d="M459.38,118.72v22.62h-1.31A34.36,34.36,0,0,1,423.71,107v-1h22.91A12.75,12.75,0,0,1,459.38,118.72Z"/><rect class="cls-3" x="140.25" y="92.85" width="31.11" height="325.03" rx="9.39"/><path class="cls-5" d="M162.15,417.89H149.63a9.39,9.39,0,0,1-9.38-9.39V102.24a9.39,9.39,0,0,1,9.38-9.39h12.52a9.39,9.39,0,0,0-9.21,9.39V408.5A9.39,9.39,0,0,0,162.15,417.89Z"/><rect class="cls-6" x="129.29" y="107.05" width="12.69" height="297.14"/><rect class="cls-6" x="326.36" y="107.05" width="12.69" height="297.14"/><path class="cls-5" d="M360.6,417.89H348.08a9.39,9.39,0,0,1-9.38-9.39V102.24a9.39,9.39,0,0,1,9.38-9.39H360.6a9.39,9.39,0,0,0-9.21,9.39V408.5A9.39,9.39,0,0,0,360.6,417.89Z"/><path class="cls-4" d="M180.47,146.58H131.13a4.29,4.29,0,0,0-4.29,4.29v42.9a4.29,4.29,0,0,0,4.29,4.3h49.34a4.29,4.29,0,0,0,4.29-4.3v-42.9A4.29,4.29,0,0,0,180.47,146.58Zm-6.64,39.11a2.67,2.67,0,0,1-2.67,2.67H140.44a2.67,2.67,0,0,1-2.67-2.67V159a2.67,2.67,0,0,1,2.67-2.68h30.72a2.67,2.67,0,0,1,2.67,2.68Z"/><path class="cls-4" d="M378.92,146.58H329.58a4.29,4.29,0,0,0-4.29,4.29v42.9a4.29,4.29,0,0,0,4.29,4.3h49.34a4.29,4.29,0,0,0,4.29-4.3v-42.9A4.29,4.29,0,0,0,378.92,146.58Zm-6.64,39.11a2.67,2.67,0,0,1-2.67,2.67H338.89a2.67,2.67,0,0,1-2.67-2.67V159a2.67,2.67,0,0,1,2.67-2.68h30.72a2.67,2.67,0,0,1,2.67,2.68Z"/><path class="cls-4" d="M180.47,316.06H131.13a4.29,4.29,0,0,0-4.29,4.3v42.9a4.29,4.29,0,0,0,4.29,4.29h49.34a4.29,4.29,0,0,0,4.29-4.29v-42.9A4.29,4.29,0,0,0,180.47,316.06Zm-6.64,39.12a2.68,2.68,0,0,1-2.67,2.67H140.44a2.68,2.68,0,0,1-2.67-2.67V328.45a2.66,2.66,0,0,1,2.67-2.67h30.72a2.66,2.66,0,0,1,2.67,2.67Z"/><path class="cls-4" d="M378.92,316.06H329.58a4.29,4.29,0,0,0-4.29,4.3v42.9a4.29,4.29,0,0,0,4.29,4.29h49.34a4.29,4.29,0,0,0,4.29-4.29v-42.9A4.29,4.29,0,0,0,378.92,316.06Zm-6.64,39.12a2.68,2.68,0,0,1-2.67,2.67H338.89a2.68,2.68,0,0,1-2.67-2.67V328.45a2.66,2.66,0,0,1,2.67-2.67h30.72a2.66,2.66,0,0,1,2.67,2.67Z"/><rect class="cls-3" x="193.61" y="60.14" width="122.83" height="24.67" rx="5.9"/><path class="cls-5" d="M316.44,70.86v8a5.9,5.9,0,0,1-5.9,5.9h-111a5.9,5.9,0,0,1-5.9-5.9v-8a5.9,5.9,0,0,0,5.9,5.9h111A5.9,5.9,0,0,0,316.44,70.86Z"/><circle class="cls-7" cx="432.02" cy="259.26" r="12.67"/><circle class="cls-7" cx="432.02" cy="232.87" r="8.97"/><path class="cls-8" d="M307.67,229l-5.1,61c-1.37,16.4-31.87,29.9-44.17,34.69a14.14,14.14,0,0,1-10.14,0C236,319.88,205.47,306.38,204.1,290L199,229a11,11,0,0,1,7.29-11.11c11.53-4.35,32.59-13.24,42.82-23.5a6,6,0,0,1,8.45,0c10.23,10.26,31.29,19.15,42.82,23.5A11,11,0,0,1,307.67,229Z"/><path class="cls-9" d="M253.33,192.61v133a14.06,14.06,0,0,1-5.07-.94C236,319.88,205.47,306.38,204.1,290L199,229a11,11,0,0,1,7.29-11.11c11.53-4.35,32.59-13.24,42.82-23.5A6,6,0,0,1,253.33,192.61Z"/><path class="cls-10" d="M256.81,205.8a5,5,0,0,0-6.95,0c-8.42,8.44-25.75,15.76-35.24,19.34a9.07,9.07,0,0,0-6,9.15l4.19,50.23c1.13,13.5,26.23,24.6,36.35,28.54a11.46,11.46,0,0,0,8.35,0c10.12-3.94,35.22-15,36.35-28.54l4.19-50.23a9.07,9.07,0,0,0-6-9.15C282.56,221.56,265.23,214.24,256.81,205.8Z"/><path class="cls-8" d="M253.33,204.38V313.85a11.35,11.35,0,0,1-4.17-.79c-10.12-3.94-35.22-15-36.35-28.55l-4.19-50.22a9.07,9.07,0,0,1,6-9.15c9.49-3.58,26.82-10.9,35.24-19.34A4.87,4.87,0,0,1,253.33,204.38Z"/><circle class="cls-11" cx="286.71" cy="234.26" r="5.48"/><circle class="cls-11" cx="276.95" cy="228.31" r="3.89"/></g></svg>