<svg xmlns="http://www.w3.org/2000/svg" viewBox="0 0 512 512"><defs><style>.cls-1{fill:#7cc8fb;}.cls-2{fill:#fff;}.cls-3{fill:#ddd;}.cls-4{fill:#3e436d;}.cls-5{fill:#fc4581;}.cls-6{fill:#ebeded;}.cls-7{fill:#b0d46c;}.cls-8{fill:#a0c157;}.cls-9{fill:#cfea94;}</style></defs><title>Insurance</title><g id="BULINE"><circle class="cls-1" cx="256" cy="256" r="256"/></g><g id="Icons"><path class="cls-2" d="M484.31,341.92c-1.38.71-20.83,4.27-20.83,4.27a167,167,0,0,1-28.66,2.48H206.22a100.7,100.7,0,0,1-42.11-9.23L89.38,305s-16.61-14.35-18.72-16.65a76.34,76.34,0,0,1-17.49-31.74l-8.76-32.48-1.53-5.64-3.24-12H62l8.14,12L74,224.16l19.17,28.32,47.35,17.28a161.26,161.26,0,0,0,55.31,9.78H410.66a40,40,0,0,1,23.71,7.72,40.47,40.47,0,0,1,9.91,10.35l2.26.86,36.24,13.73a15.91,15.91,0,0,1,6.77,4.73A16.57,16.57,0,0,1,484.31,341.92Z"/><path class="cls-3" d="M491.21,335.1c-1.15,2.19-6.21,6.47-6.9,6.82-1.38.71-20.83,4.27-20.83,4.27a167,167,0,0,1-28.66,2.48H206.22a100.61,100.61,0,0,1-39.16-7.93c-1-.42-2-.85-2.95-1.3l-9.43-4.34L89.38,305s-16.32-14.09-18.32-16.24l-.4-.41a76.34,76.34,0,0,1-17.49-31.74L39.64,206.5h5.94l7.59,28.14a76.34,76.34,0,0,0,17.49,31.74c1.53,1.67,10.67,9.66,15.59,13.93L108.1,269,93.25,284.81l70.86,32.63a100.7,100.7,0,0,0,42.11,9.23h228.6a167,167,0,0,0,28.66-2.48l16.41-2.86c1.53-.26,7.83-3.59,9.11-5,.19.2.37.41.55.63A16.62,16.62,0,0,1,491.21,335.1Z"/><path class="cls-2" d="M370.62,315.36s-28.79,20.91-75,0L192.15,264.22l-11.41-5.64-8.7-4.3a2.33,2.33,0,0,1,1-4.42h35.28a2.24,2.24,0,0,1,.52.06c2,.46,15.23,3.57,33.51,8.66,6,1.67,12.56,3.56,19.43,5.64C301.85,276.34,352.78,294.94,370.62,315.36Z"/><polygon class="cls-2" points="65.85 269.01 16.52 304.45 39.65 304.45 108.1 269.01 65.85 269.01"/><ellipse class="cls-4" cx="170.18" cy="304.45" rx="10.5" ry="11.47"/><ellipse class="cls-4" cx="200.18" cy="304.45" rx="10.5" ry="11.47"/><ellipse class="cls-4" cx="230.18" cy="304.45" rx="10.5" ry="11.47"/><ellipse class="cls-4" cx="260.18" cy="304.45" rx="10.5" ry="11.47"/><ellipse class="cls-4" cx="290.18" cy="304.45" rx="10.5" ry="11.47"/><ellipse class="cls-4" cx="320.18" cy="304.45" rx="10.5" ry="11.47"/><ellipse class="cls-4" cx="350.18" cy="304.45" rx="10.5" ry="11.47"/><rect class="cls-4" x="401.68" y="287.26" width="18" height="14" rx="2.08"/><path class="cls-4" d="M446.54,298.47a13.61,13.61,0,0,1-8.28,2.79h-8.87a2,2,0,0,1-2-1.95V289.22a2,2,0,0,1,2-2h5a40.47,40.47,0,0,1,9.91,10.35Z"/><path class="cls-3" d="M388.37,324.09H374.92a8.16,8.16,0,0,1-8.15-8.15V298a8.16,8.16,0,0,1,8.15-8.15h13.45a8.16,8.16,0,0,1,8.15,8.15v17.95A8.16,8.16,0,0,1,388.37,324.09Zm-13.45-31.25a5.16,5.16,0,0,0-5.15,5.15v17.95a5.16,5.16,0,0,0,5.15,5.15h13.45a5.16,5.16,0,0,0,5.15-5.15V298a5.16,5.16,0,0,0-5.15-5.15Z"/><path class="cls-2" d="M240.68,361.67h77.25a8.25,8.25,0,0,0,8.25-8.25v-18.5a8.25,8.25,0,0,0-8.25-8.25H270.68Z"/><path class="cls-5" d="M326.18,334.92h.36a4.14,4.14,0,0,1,4.14,4.14v11.58a4.14,4.14,0,0,1-4.14,4.14h-.36a0,0,0,0,1,0,0V334.92A0,0,0,0,1,326.18,334.92Z"/><path class="cls-2" d="M312.68,326.67c-15.76,18.06-57.39,34.69-94.5,46.67-6.25,2-12.37,3.9-18.21,5.64-25.95,7.73-46.53,12.55-49,13.13a2.39,2.39,0,0,1-.53.06H115.14a2.32,2.32,0,0,1-1-4.41L131.87,379l11.41-5.64,94.4-46.67C283.89,305.77,312.68,326.67,312.68,326.67Z"/><path class="cls-6" d="M324.82,330.38c-12.23,11.38-34.13,22.08-57.82,31.29H251.25c26.25-10.2,50.29-22.24,61.43-35h5.25A8.24,8.24,0,0,1,324.82,330.38Z"/><polygon class="cls-6" points="223.15 279.54 212.75 274.4 293.04 274.4 307.05 279.54 223.15 279.54"/><path class="cls-2" d="M242.84,244.12c-9.37,0-17-8.37-17-18.65v-3.8a5,5,0,0,1,10,0v3.8c0,4.77,3.14,8.65,7,8.65s7-3.88,7-8.65v-91a5,5,0,1,1,10,0v91C259.84,235.75,252.21,244.12,242.84,244.12Z"/><path class="cls-7" d="M348.94,173.28h0a1.13,1.13,0,0,1-1.12-1.09c-.59-11.82-10.76-21.24-23.22-21.24a23.23,23.23,0,0,0-22,15,1.37,1.37,0,0,1-2.59,0,23.59,23.59,0,0,0-43.91,0,1.37,1.37,0,0,1-2.59,0,23.59,23.59,0,0,0-43.91,0,1.37,1.37,0,0,1-2.59,0,23.21,23.21,0,0,0-21.95-15c-12.46,0-22.63,9.42-23.23,21.24a1.13,1.13,0,0,1-1.12,1.09h0a1.14,1.14,0,0,1-1.13-1.14,95.24,95.24,0,0,1,190.46,0A1.13,1.13,0,0,1,348.94,173.28Z"/><path class="cls-8" d="M254.84,78.05v88.78a1.37,1.37,0,0,1-1.3-.92,23.58,23.58,0,0,0-43.9,0,1.38,1.38,0,0,1-2.6,0,23.2,23.2,0,0,0-21.95-15c-12.46,0-22.63,9.42-23.22,21.24a1.13,1.13,0,0,1-2.25,0v0A95.23,95.23,0,0,1,254.84,78.05Z"/><circle class="cls-9" cx="317.99" cy="125.73" r="9.14"/><circle class="cls-9" cx="304.52" cy="112.26" r="6.48"/></g></svg>