<svg xmlns="http://www.w3.org/2000/svg" viewBox="0 0 512 512"><defs><style>.cls-1{fill:#fcc8bc;}.cls-2{fill:#ccc;}.cls-3{fill:#e2e2e2;}.cls-4{fill:#fff;}.cls-5{fill:#3e436d;}.cls-6{fill:#dfe0de;}.cls-7{fill:#cecece;}.cls-8{fill:#db1b1b;}</style></defs><title>Insurance</title><g id="BULINE"><circle class="cls-1" cx="256" cy="256" r="256"/></g><g id="Icons"><path class="cls-2" d="M369,52.33v368a7.66,7.66,0,0,1-7.66,7.66H106.92a7.66,7.66,0,0,1-7.66-7.66V110.21L164.8,44.67H361.35A7.66,7.66,0,0,1,369,52.33Z"/><path class="cls-3" d="M164.8,44.67V80.22a30,30,0,0,1-30,30H99.26Z"/><path class="cls-4" d="M412.74,77.38v368a7.66,7.66,0,0,1-7.66,7.66H150.64a7.66,7.66,0,0,1-7.66-7.66V135.26l65.55-65.54H405.08A7.66,7.66,0,0,1,412.74,77.38Z"/><path class="cls-5" d="M378,256.67H189.13a5.38,5.38,0,1,1,0-10.76H378a5.38,5.38,0,0,1,0,10.76Z"/><path class="cls-5" d="M287.2,288.78H189.13a5.38,5.38,0,0,1,0-10.76H287.2a5.38,5.38,0,0,1,0,10.76Z"/><path class="cls-5" d="M378,288.78H304.26a5.38,5.38,0,0,1,0-10.76H378a5.38,5.38,0,0,1,0,10.76Z"/><path class="cls-5" d="M378,356.43H276.23a5.38,5.38,0,0,1,0-10.76H378a5.38,5.38,0,0,1,0,10.76Z"/><path class="cls-5" d="M378,324.31H189.13a5.38,5.38,0,1,1,0-10.75H378a5.38,5.38,0,1,1,0,10.75Z"/><path class="cls-5" d="M255.78,356.43H189.13a5.38,5.38,0,0,1,0-10.76h66.65a5.38,5.38,0,1,1,0,10.76Z"/><path class="cls-5" d="M378,392H189.13a5.38,5.38,0,0,1,0-10.76H378A5.38,5.38,0,0,1,378,392Z"/><path class="cls-3" d="M208.52,69.72v35.55a30,30,0,0,1-30,30H143Z"/><path class="cls-6" d="M335,142.45V218H232.17V142.45l48.56-26.27a6.09,6.09,0,0,1,5.69,0Z"/><path class="cls-7" d="M335,147.67v13.18l-48.13-27.62a6.55,6.55,0,0,0-6.55,0l-48.13,27.62V147.67l48.56-27.86a5.94,5.94,0,0,1,2.1-.71,6.19,6.19,0,0,1,1.49,0l.27.05a3.49,3.49,0,0,1,.54.12,5.79,5.79,0,0,1,1.29.54Z"/><path class="cls-8" d="M348.61,152.27a5.73,5.73,0,0,1-7.8,2.12L335,151l-48.13-27.62a6.55,6.55,0,0,0-6.55,0L232.17,151l-5.83,3.35a5.72,5.72,0,0,1-5.69-9.92l11.52-6.61L280.73,110a5.82,5.82,0,0,1,5.69,0L335,137.86l11.52,6.61A5.72,5.72,0,0,1,348.61,152.27Z"/><path class="cls-8" d="M273.79,171.43h19.57a2.06,2.06,0,0,1,2.06,2.06V218a0,0,0,0,1,0,0H271.73a0,0,0,0,1,0,0V173.49A2.06,2.06,0,0,1,273.79,171.43Z"/><rect class="cls-7" x="228.43" y="217.53" width="110.07" height="7.24" rx="1.71"/></g></svg>