<svg xmlns="http://www.w3.org/2000/svg" viewBox="0 0 512 512"><defs><style>.cls-1{fill:#a99bd4;}.cls-2{fill:#fcc8bc;}.cls-3{fill:#fab3a7;}.cls-4{fill:#fff9f8;}.cls-5{fill:#f7bb38;}.cls-6{fill:#f6c752;}.cls-7{fill:#e0a42d;}.cls-8{fill:#f6d372;}.cls-9{fill:#f7e3b5;}</style></defs><title>Insurance</title><g id="BULINE"><circle class="cls-1" cx="256" cy="256" r="256"/></g><g id="Icons"><path class="cls-2" d="M193.88,504.41a254.47,254.47,0,0,1-68.64-28.29C100.17,416.25,55,308.41,54.06,305.71c-5.36-15.17,14.73-55,19.16-63.38,2.59-4.94,5.53-9.3,8.88-11.81a12.27,12.27,0,0,1,2.36-1.41c9.64-4.39,19.66,5.68,16.09,15.41-3.74,10.07-16.22,42.3-14,49.76,1.2,4,3.44,8.07,5.11,11.93a13.76,13.76,0,0,1,20.8-16.38c5.15,3.74,7.19,11.82,9.58,17.43,2.55,6,11.28,27.47,15.28,30.93,6.87,6,11.94,7.52,16.33,16.34a55.08,55.08,0,0,1,5.67,24.14c.07,8.05-3.7,16.11-3.6,23.83C155.86,412.55,178.12,466.68,193.88,504.41Z"/><path class="cls-3" d="M135.21,481.74q-5.06-2.69-10-5.62C100.17,416.25,55,308.41,54.06,305.71c-5.36-15.17,14.73-55,19.16-63.38,2.59-4.94,5.53-9.3,8.88-11.81a11.7,11.7,0,0,1,11.27-1.65,4.53,4.53,0,0,1,1.51.71,12.47,12.47,0,0,0-4.64,2.19c-3.36,2.51-6.3,6.87-8.88,11.81C76.93,252,56.84,291.79,62.2,307,63.17,309.72,110.58,422.93,135.21,481.74Z"/><path class="cls-3" d="M98.57,288.5a13.76,13.76,0,0,0-7.26,18.07l18.26,42.73c.14-.26.29-.52.44-.78a11.88,11.88,0,0,0,.61-10.64L96.33,304.43a13.86,13.86,0,0,1,4.85-16.76A13.88,13.88,0,0,0,98.57,288.5Z"/><path class="cls-4" d="M101.53,291.68h6.75a2.36,2.36,0,0,1,2.36,2.36v11.54a2.36,2.36,0,0,1-2.36,2.36h-6.75A5.49,5.49,0,0,1,96,302.46v-5.29A5.49,5.49,0,0,1,101.53,291.68Z" transform="translate(-131.77 512.62) rotate(-113.13)"/><path class="cls-4" d="M73.22,242.33l3.29,1.75a5.48,5.48,0,0,0,7.42-2.27l3.17-5.95a2.37,2.37,0,0,0-1-3.2l-4-2.14C78.75,233,75.81,237.39,73.22,242.33Z"/><path class="cls-2" d="M458.27,300.17c-.75,2.65-36.5,105.18-58.23,167.49a254.88,254.88,0,0,1-66.82,32.48c13.18-38,29.94-87.71,29.47-97.16-.38-7.71-4.63-15.52-5.06-23.57A55.17,55.17,0,0,1,361.82,355c3.84-9.07,8.81-10.92,15.31-17.3,3.77-3.7,11.18-25.7,13.36-31.81,2-5.74,3.58-13.93,8.5-18A13.76,13.76,0,0,1,420.75,303c1.43-4,3.42-8.15,4.37-12.21,1.79-7.59-12.64-39-17-48.82-4.16-9.5,5.23-20.16,15.12-16.36a12.3,12.3,0,0,1,2.44,1.26c3.5,2.3,6.71,6.48,9.59,11.24C440.21,246.21,462.69,284.7,458.27,300.17Z"/><path class="cls-3" d="M415.64,287.26a13.64,13.64,0,0,0-9.51,3.07c-4.92,4-6.46,12.23-8.51,18-2.17,6.11-9.58,28.1-13.36,31.8-6.49,6.38-11.46,8.24-15.3,17.3a54.93,54.93,0,0,0-4.19,24.45c.42,8,4.67,15.85,5.05,23.56.45,9-14.74,54.53-27.57,91.69q-4.49,1.59-9,3c13.18-38,29.94-87.71,29.47-97.16-.38-7.71-4.63-15.52-5.06-23.57A55.17,55.17,0,0,1,361.82,355c3.84-9.07,8.81-10.92,15.31-17.3,3.77-3.7,11.18-25.7,13.36-31.81,2-5.74,3.58-13.93,8.5-18A13.88,13.88,0,0,1,415.64,287.26Z"/><path class="cls-3" d="M412.79,285.7a13.78,13.78,0,0,1,8.35,17.6l-15.61,43.76c-.17-.25-.33-.5-.5-.74a11.89,11.89,0,0,1-1.25-10.59L416,301.46a13.75,13.75,0,0,0-4.7-15.63,13.15,13.15,0,0,0-1.16-.79A13.88,13.88,0,0,1,412.79,285.7Z"/><path class="cls-4" d="M406.91,289.16h6.75a2.36,2.36,0,0,1,2.36,2.36v11.54a2.36,2.36,0,0,1-2.36,2.36h-6.75a5.49,5.49,0,0,1-5.49-5.49v-5.29a5.49,5.49,0,0,1,5.49-5.49Z" transform="translate(-8.61 582.36) rotate(-70.37)"/><path class="cls-4" d="M435.28,238.07l-3.18,2a5.48,5.48,0,0,1-7.55-1.81L421,232.46a2.37,2.37,0,0,1,.78-3.25l3.88-2.38C429.19,229.13,432.4,233.31,435.28,238.07Z"/><circle class="cls-5" cx="256" cy="170.28" r="140.9"/><circle class="cls-6" cx="256" cy="170.28" r="123.14"/><path class="cls-7" d="M231,290.87a140,140,0,0,0,49,18.28,140.9,140.9,0,1,1,0-277.74,140.91,140.91,0,0,0-71.3,242.71A141.73,141.73,0,0,0,231,290.87Z"/><path class="cls-5" d="M231,290.87a123.16,123.16,0,0,1,0-241.17,140.92,140.92,0,0,0-22.3,224.42A141.73,141.73,0,0,0,231,290.87Z"/><circle class="cls-8" cx="256" cy="170.28" r="114.11"/><path class="cls-6" d="M208.64,274.12a114.15,114.15,0,0,1,0-207.67,140.9,140.9,0,0,0,0,207.67Z"/><path class="cls-5" d="M261.19,270.79H243.55V248.88q-19.65-2.62-32.86-13.83t-15.08-37.73h30.91c-.08.91-.12,1.58-.12,2a26.12,26.12,0,0,0,4.51,15.27,21.31,21.31,0,0,0,12.64,8.63V170.16q-26.53-12.27-35.8-24.22a41.83,41.83,0,0,1-9.26-26.22,40.06,40.06,0,0,1,12.39-29.54q12.39-12.27,32.67-13.9v-6.5h17.64v6.5Q283,78,295.86,90.3t12.9,32H277.84q-2.11-19.65-16.65-21.27v41.68l17,7.63q14.38,6.51,23,14.83t11.89,17.34a52.54,52.54,0,0,1,3.32,18.27,43.89,43.89,0,0,1-15,33.79q-15,13.65-40.24,14.27Zm-17.64-169.6Q229.41,103.82,229.4,116q0,10.4,14.15,18.77Zm17.64,123.16q10.77.14,17.71-6t7-14.64q0-16.39-24.66-25.91Z"/><circle class="cls-9" cx="346.92" cy="148.08" r="12.87"/><circle class="cls-9" cx="336.16" cy="123.53" r="9.12"/></g></svg>