<svg xmlns="http://www.w3.org/2000/svg" viewBox="0 0 512 512"><defs><style>.cls-1{fill:#f7bb38;}.cls-2{fill:#fcc8bc;}.cls-3{fill:#fab3a7;}.cls-4{fill:#fff9f8;}.cls-5{fill:#3586cb;}.cls-6{fill:#366fca;}.cls-7{fill:#4f4f74;}.cls-8{fill:#9e4830;}.cls-9{fill:#fff;}.cls-10{fill:#3e436d;}.cls-11{fill:#fc715a;}.cls-12{fill:#f6c752;}.cls-13{fill:#e88032;}.cls-14{fill:#696993;}</style></defs><title>Insurance</title><g id="BULINE"><circle class="cls-1" cx="256" cy="256" r="256"/></g><g id="Icons"><path class="cls-2" d="M194,504.44a254,254,0,0,1-68.62-28.21c-24.71-59-71.73-171.29-72.7-174-5.36-15.18,14.73-55,19.16-63.38,2.59-4.94,5.53-9.31,8.88-11.81a12.27,12.27,0,0,1,2.36-1.41c9.64-4.39,19.67,5.68,16.09,15.41-3.74,10.07-16.22,42.29-14,49.76,1.2,4,3.44,8.06,5.11,11.92a14,14,0,0,1,2.14-14,13.86,13.86,0,0,1,18.66-2.34c5.16,3.73,7.19,11.81,9.59,17.42,2.54,6,11.27,27.47,15.27,30.94,6.87,6,11.94,7.52,16.33,16.33A55.23,55.23,0,0,1,158,375.14c.06,8.06-3.71,16.11-3.61,23.83C154.52,409.34,178.22,466.65,194,504.44Z"/><path class="cls-3" d="M135.38,481.84q-5-2.68-9.95-5.61h0c-24.71-59-71.73-171.29-72.7-174-5.36-15.18,14.73-55,19.16-63.38,2.59-4.94,5.53-9.31,8.88-11.81A11.69,11.69,0,0,1,92,225.34a5.6,5.6,0,0,1,1.5.72,12.17,12.17,0,0,0-4.64,2.19c-3.36,2.5-6.3,6.87-8.88,11.81-4.43,8.42-24.52,48.2-19.16,63.38C61.85,306.26,111.24,424.19,135.38,481.84Z"/><path class="cls-3" d="M97.23,285A13.77,13.77,0,0,0,90,303l18.26,42.73c.14-.25.29-.52.44-.77a11.84,11.84,0,0,0,.61-10.65L95,300.9A13.75,13.75,0,0,1,98.73,285a11.72,11.72,0,0,1,1.11-.86A13.84,13.84,0,0,0,97.23,285Z"/><path class="cls-4" d="M100.2,288.16h6.75a2.36,2.36,0,0,1,2.36,2.36v11.54a2.36,2.36,0,0,1-2.36,2.36H100.2a5.49,5.49,0,0,1-5.49-5.49v-5.29a5.49,5.49,0,0,1,5.49-5.49Z" transform="translate(-130.39 506.48) rotate(-113.13)"/><path class="cls-4" d="M71.88,238.81l3.3,1.75a5.49,5.49,0,0,0,7.42-2.27l3.16-6a2.37,2.37,0,0,0-1-3.2l-4-2.13C77.41,229.5,74.47,233.87,71.88,238.81Z"/><path class="cls-2" d="M456.93,296.65c-.78,2.72-38.79,111.75-60.24,173.26A254.91,254.91,0,0,1,330.34,501c13.38-38.47,31.49-91.75,31-101.58-.38-7.71-4.63-15.52-5.06-23.56a55.15,55.15,0,0,1,4.19-24.44c3.84-9.07,8.81-10.93,15.31-17.3,3.77-3.71,11.18-25.7,13.36-31.81,2-5.75,3.58-13.94,8.5-18a13.76,13.76,0,0,1,21.76,15.08c1.43-4,3.42-8.15,4.37-12.22,1.79-7.59-12.64-39-17-48.82-4.16-9.49,5.23-20.15,15.12-16.36a12.17,12.17,0,0,1,2.45,1.27c3.5,2.29,6.7,6.47,9.58,11.24C438.88,242.69,461.35,281.17,456.93,296.65Z"/><path class="cls-3" d="M414.3,283.74a13.68,13.68,0,0,0-9.51,3.06c-4.92,4.05-6.46,12.24-8.51,18-2.17,6.11-9.58,28.11-13.36,31.81-6.49,6.37-11.46,8.23-15.3,17.3a55.15,55.15,0,0,0-4.19,24.44c.42,8.05,4.67,15.85,5.05,23.57.47,9.37-16,58.33-29.14,96.22-3,1-6,2-9,2.91,13.38-38.47,31.49-91.75,31-101.58-.38-7.71-4.63-15.52-5.06-23.56a55.15,55.15,0,0,1,4.19-24.44c3.84-9.07,8.81-10.93,15.31-17.3,3.77-3.71,11.18-25.7,13.36-31.81,2-5.75,3.58-13.94,8.5-18A13.88,13.88,0,0,1,414.3,283.74Z"/><path class="cls-3" d="M411.45,282.18a13.76,13.76,0,0,1,8.35,17.59l-15.61,43.77c-.17-.25-.33-.51-.49-.75a11.86,11.86,0,0,1-1.26-10.59l12.22-34.26a13.74,13.74,0,0,0-4.7-15.63,11.29,11.29,0,0,0-1.16-.79A12.54,12.54,0,0,1,411.45,282.18Z"/><path class="cls-4" d="M405.57,285.63h6.75a2.36,2.36,0,0,1,2.36,2.36v11.54a2.36,2.36,0,0,1-2.36,2.36h-6.75a5.49,5.49,0,0,1-5.49-5.49v-5.29a5.49,5.49,0,0,1,5.49-5.49Z" transform="translate(-6.18 578.76) rotate(-70.37)"/><path class="cls-4" d="M433.94,234.55l-3.18,1.95a5.49,5.49,0,0,1-7.55-1.82l-3.52-5.75a2.37,2.37,0,0,1,.78-3.25l3.89-2.37C427.86,225.6,431.06,229.78,433.94,234.55Z"/><path class="cls-5" d="M438.63,172.58h-.8V145.27a8.66,8.66,0,0,0-8.14-8.65l-102-6.28-47.65-45a22.78,22.78,0,0,0-15.65-6.23h-78.8a47.86,47.86,0,0,0-41.84,24.63L129,130.34l-48.3,2.91A9.23,9.23,0,0,0,72,142.47v30.11H70.69A10.37,10.37,0,0,0,60.32,183v3.44a10.36,10.36,0,0,0,10.37,10.36H438.63A10.36,10.36,0,0,0,449,186.39V183A10.37,10.37,0,0,0,438.63,172.58Z"/><path class="cls-6" d="M438.63,172.58H385.74a46.65,46.65,0,0,0-79.78,0H187.08a46.64,46.64,0,0,0-79.77,0H70.69A10.37,10.37,0,0,0,60.32,183v3.44a10.36,10.36,0,0,0,10.37,10.36H438.63A10.36,10.36,0,0,0,449,186.39V183A10.37,10.37,0,0,0,438.63,172.58Z"/><path class="cls-7" d="M183.62,196.75H110.77a36.43,36.43,0,0,1,72.85,0Z"/><circle class="cls-8" cx="147.2" cy="196.75" r="29.06"/><circle class="cls-9" cx="147.2" cy="196.75" r="13.56"/><path class="cls-7" d="M382.27,196.75H309.42a36.43,36.43,0,0,1,72.85,0Z"/><circle class="cls-8" cx="345.85" cy="196.75" r="29.06"/><circle class="cls-9" cx="345.85" cy="196.75" r="13.56"/><path class="cls-7" d="M177.4,89.17H216a2.69,2.69,0,0,1,2.69,2.68v36.56a2.69,2.69,0,0,1-2.69,2.68H148.86a3.9,3.9,0,0,1-3.34-5.93L162.35,97.6A17.62,17.62,0,0,1,177.4,89.17Z"/><path class="cls-10" d="M188.32,89.17a17.63,17.63,0,0,0-15,8.43l-16.83,27.56a3.9,3.9,0,0,0,3.34,5.93H148.86a3.9,3.9,0,0,1-3.34-5.93L162.35,97.6a17.62,17.62,0,0,1,15.05-8.43Z"/><path class="cls-7" d="M302.39,131.09H235.28a2.68,2.68,0,0,1-2.69-2.68V91.85a2.68,2.68,0,0,1,2.69-2.68h27.45a24.07,24.07,0,0,1,17.91,8l24.65,27.43A3.9,3.9,0,0,1,302.39,131.09Z"/><path class="cls-10" d="M244.3,131.09h-9a2.68,2.68,0,0,1-2.69-2.68V91.86a2.69,2.69,0,0,1,2.69-2.69h9a2.69,2.69,0,0,0-2.69,2.69v36.55A2.68,2.68,0,0,0,244.3,131.09Z"/><path class="cls-11" d="M72,145.16H86.12a6.21,6.21,0,0,1,6.21,6.21v2.74a6.21,6.21,0,0,1-6.21,6.21H72a0,0,0,0,1,0,0V145.16A0,0,0,0,1,72,145.16Z"/><path class="cls-12" d="M419.62,150.05h18.21a0,0,0,0,1,0,0v13.56a0,0,0,0,1,0,0H419.62a6.78,6.78,0,0,1-6.78-6.78v0A6.78,6.78,0,0,1,419.62,150.05Z"/><circle class="cls-13" cx="419.43" cy="156.83" r="3.77"/><rect class="cls-7" x="232.59" y="137.91" width="18.05" height="7.87" rx="3.94"/><rect class="cls-7" x="147.2" y="137.91" width="18.05" height="7.87" rx="3.94"/><circle class="cls-14" cx="277.09" cy="106.77" r="4.39"/><circle class="cls-14" cx="270.53" cy="100.4" r="3.11"/><circle class="cls-14" cx="208.23" cy="106.77" r="4.39"/><circle class="cls-14" cx="201.67" cy="100.4" r="3.11"/></g></svg>