<svg xmlns="http://www.w3.org/2000/svg" viewBox="0 0 512 512"><defs><style>.cls-1{fill:#7cc8fb;}.cls-2{fill:#db1b1b;}.cls-3{fill:#b71a1a;}.cls-4{fill:#fc715a;}.cls-5{fill:#fff;}.cls-6{fill:#e3e3e5;}.cls-7{fill:#32314b;}.cls-8{fill:#3586cb;}</style></defs><title>Insurance</title><g id="BULINE"><circle class="cls-1" cx="256" cy="256" r="256"/></g><g id="Icons"><path class="cls-2" d="M268.4,420.25a38.47,38.47,0,0,1-5.23,15.13,44.59,44.59,0,0,1-16.76,16c-12.7,8.36-28.91,9.67-40.18,9.32a58.68,58.68,0,0,1-22.6-5.28c-131.95-60.16-145.06-189-145.06-189-11.41-60,32.55-86.22,32.55-86.22a29.07,29.07,0,0,1,11.38-3.56A51.53,51.53,0,0,1,99.93,178a13.63,13.63,0,0,1,9.54,8.43l19.32,50.86c4.1,10.77-5.93,18.83-13.54,23.18a56.7,56.7,0,0,1-7.59,3.65,30.21,30.21,0,0,0-11.18,5.79,13.57,13.57,0,0,0-4.85,13.9C108,351,164.2,389.72,164.2,389.72c10.59,10.19,23.52-2.61,30.05-10.77,2.61-3.27,4.2-5.79,4.2-5.79,12-10.28,22.84-3.42,22.84-3.42l43,39.39A12.88,12.88,0,0,1,268.4,420.25Z"/><path class="cls-3" d="M195.41,455.42a59.05,59.05,0,0,0,20.07,5.15c-3.3.2-6.43.22-9.25.13a58.68,58.68,0,0,1-22.6-5.28c-131.95-60.16-145.06-189-145.06-189-11.41-60,32.55-86.22,32.55-86.22a29.07,29.07,0,0,1,11.38-3.56,45.79,45.79,0,0,1,10.69.14,28.49,28.49,0,0,0-10.29,3.42s-44,26.26-32.55,86.22C50.35,266.39,63.46,395.26,195.41,455.42Z"/><path class="cls-4" d="M115.25,260.45,82.5,176.61A51.53,51.53,0,0,1,99.93,178a13.63,13.63,0,0,1,9.54,8.43l19.32,50.86C132.89,248,122.86,256.1,115.25,260.45Z"/><path class="cls-4" d="M268.4,420.25a38.47,38.47,0,0,1-5.23,15.13L194.25,379c2.61-3.27,4.2-5.79,4.2-5.79,12-10.28,22.84-3.42,22.84-3.42l43,39.39A12.88,12.88,0,0,1,268.4,420.25Z"/><circle class="cls-4" cx="235.39" cy="436.36" r="10.19"/><circle class="cls-4" cx="211.97" cy="441.22" r="8.56"/><path class="cls-5" d="M330.71,51.25a144.81,144.81,0,0,0-51.57,280.12c-.19,20.81-5,56.52-5,56.52,27.66-2,56.61-47.06,56.61-47.06a144.79,144.79,0,1,0,0-289.58Z"/><path class="cls-6" d="M315.07,331.37c-.08,9.26-1.1,21.45-2.18,32.13-10.71,11.56-24.91,23.41-38.79,24.39,0,0,4.85-35.7,5-56.52a144.82,144.82,0,0,1,69.52-279,144.82,144.82,0,0,0-33.6,279Z"/><path class="cls-7" d="M254.52,208.3H242.08V180c0-48.65,36.2-88.24,80.7-88.24h19.29c44.49,0,80.69,39.59,80.69,88.24v27.92H410.32V180c0-41.8-30.62-75.8-68.25-75.8H322.78c-37.64,0-68.26,34-68.26,75.8Z"/><path class="cls-2" d="M432.3,187.77h13.28a0,0,0,0,1,0,0V243a0,0,0,0,1,0,0H432.3a8.82,8.82,0,0,1-8.82-8.82V196.6A8.82,8.82,0,0,1,432.3,187.77Z" transform="translate(869.05 430.82) rotate(180)"/><rect class="cls-8" x="405.51" y="178.31" width="20.45" height="74.2" rx="10.22" transform="translate(831.47 430.82) rotate(180)"/><path class="cls-7" d="M290.43,273.47H248.3a4.14,4.14,0,0,1-4.14-4.15V233.81h8.29v31.37h38Z"/><path class="cls-2" d="M228.11,187.77h13.28a0,0,0,0,1,0,0V243a0,0,0,0,1,0,0H228.11a8.82,8.82,0,0,1-8.82-8.82V196.6A8.82,8.82,0,0,1,228.11,187.77Z"/><rect class="cls-8" x="238.91" y="178.31" width="20.45" height="74.2" rx="10.22"/><ellipse class="cls-8" cx="295.43" cy="269.74" rx="14.8" ry="10.64"/></g></svg>