<svg xmlns="http://www.w3.org/2000/svg" viewBox="0 0 512 512"><defs><style>.cls-1{fill:#fc4581;}.cls-2{fill:#fff;}.cls-3{fill:#e4e5e3;}.cls-4{fill:#3e436d;}.cls-5{fill:#32314b;}.cls-6{fill:#d6d8d8;}.cls-7{fill:#4f4f74;}.cls-8{fill:#a99bd4;}.cls-9{fill:#b0d46c;}.cls-10{fill:#a0c157;}.cls-11{fill:#cfea94;}.cls-12{fill:#e4efc2;}</style></defs><title>Insurance</title><g id="BULINE"><circle class="cls-1" cx="256" cy="256" r="256"/></g><g id="Icons"><rect class="cls-2" x="94.2" y="132.11" width="301.06" height="269.41"/><path class="cls-3" d="M395.26,138.89v33H149.1a20.17,20.17,0,0,0-20.16,20.16V408.3H94.19V138.89Z"/><path class="cls-4" d="M268,239v99.9a6.67,6.67,0,0,1-6.67,6.67H117.07a6.46,6.46,0,0,1-3.48-1,6.67,6.67,0,0,1-3.19-5.68V239a6.67,6.67,0,0,1,6.67-6.67H261.31A6.67,6.67,0,0,1,268,239Z"/><path class="cls-5" d="M268,330.18v8.71a6.68,6.68,0,0,1-6.68,6.67H117.07a6.67,6.67,0,0,1-6.67-6.67V239a6.67,6.67,0,0,1,6.67-6.67h13.21v91.18a6.67,6.67,0,0,0,6.67,6.67Z"/><path class="cls-4" d="M379,238.1V401.52H285.82V238.1a5.78,5.78,0,0,1,5.78-5.78h81.63A5.77,5.77,0,0,1,379,238.1Z"/><path class="cls-5" d="M379,389.73v11.79H285.82V238.1a5.77,5.77,0,0,1,5.77-5.77h8.22V360.42a29.32,29.32,0,0,0,29.32,29.31Z"/><rect class="cls-6" x="74.71" y="401.52" width="340.04" height="22.83" rx="5.8"/><path class="cls-7" d="M225.84,232.32,113.59,344.57a6.67,6.67,0,0,1-3.19-5.68V320.56l88.24-88.24Z"/><path class="cls-7" d="M268,239v15.1l-91.46,91.47H128.94L242.19,232.32h19.12A6.67,6.67,0,0,1,268,239Z"/><path class="cls-7" d="M379,238.1v8.59l-93.18,93.17V312.67l80.34-80.35h7.07A5.77,5.77,0,0,1,379,238.1Z"/><polygon class="cls-7" points="379 263.03 379 310.6 288.1 401.52 285.82 401.52 285.82 356.21 379 263.03"/><rect class="cls-8" x="76.39" y="86.28" width="340.04" height="59.98" rx="11.82"/><path class="cls-2" d="M148.82,138v-7.49h5.45V101.18h-5.45V93.7h20.23a47,47,0,0,1,10,.78,10.14,10.14,0,0,1,5.67,3.79,11,11,0,0,1,2.39,7.06q0,6.47-6.25,9.14,8,3,8,10.61a11.81,11.81,0,0,1-2.47,7.54,12.31,12.31,0,0,1-6.37,4.27A41.4,41.4,0,0,1,169.05,138Zm17-26.83h3.25a8.54,8.54,0,0,0,5-1.15c1.07-.76,1.6-2.11,1.6-4a4.23,4.23,0,0,0-1.55-3.73c-1-.72-2.83-1.09-5.4-1.09H165.8Zm0,19.34h3.25c2.95,0,5-.42,6.18-1.27s1.76-2.35,1.76-4.5-.64-3.83-1.9-4.73-3.28-1.35-6-1.35H165.8Z"/><path class="cls-2" d="M237.85,130.53V138h-21.8v-7.49h5.67l-2.1-7.62h-11.5l-2.36,7.62h5.93V138H192.06v-7.49h5.48l8.63-29.35h-5.89V93.7h28.93v7.48h-6l9.31,29.35Zm-20-14.12-3.69-13.35-4,13.35Z"/><path class="cls-2" d="M239.53,138v-7.49h5.93V101.18h-5.93V93.7h18.62l16.31,27.63V101.18h-5.77V93.7h19.88v7.48h-6.21v37.16h-9.88l-19.12-32.85v25h5.58V138Z"/><path class="cls-2" d="M290.77,138v-7.49h6V101.18h-6V93.7h23.1v7.48h-5.61v29.35h5.17V138Zm26.1,0v-7.49h5.18l-13.44-15.79,14.52-13.56h-5.34V93.7h21.64v7.48H334l-12.5,12.22,14.54,17.13h4.59V138Z"/><path class="cls-9" d="M463.43,248.25,457,324.81c-1.72,20.59-40,37.52-55.42,43.52a17.45,17.45,0,0,1-12.72,0c-15.43-6-53.69-22.93-55.41-43.52l-6.39-76.56a13.77,13.77,0,0,1,9.14-13.94c14.46-5.46,40.89-16.62,53.72-29.49a7.56,7.56,0,0,1,10.6,0c12.84,12.87,39.26,24,53.72,29.49A13.79,13.79,0,0,1,463.43,248.25Z"/><path class="cls-10" d="M395.26,202.65V369.53a17.42,17.42,0,0,1-6.36-1.2c-15.43-6-53.69-22.93-55.41-43.52l-6.39-76.56a13.77,13.77,0,0,1,9.14-13.94c14.46-5.46,40.89-16.62,53.72-29.49A7.48,7.48,0,0,1,395.26,202.65Z"/><path class="cls-11" d="M399.62,219.2a6.24,6.24,0,0,0-8.72,0c-10.56,10.6-32.31,19.78-44.22,24.27a11.36,11.36,0,0,0-7.52,11.47l5.26,63c1.41,16.94,32.91,30.87,45.61,35.82a14.44,14.44,0,0,0,10.47,0c12.69-4.95,44.19-18.88,45.6-35.82l5.26-63a11.34,11.34,0,0,0-7.52-11.47C431.93,239,410.19,229.8,399.62,219.2Z"/><path class="cls-9" d="M395.26,217.42V354.76a14.44,14.44,0,0,1-5.23-1c-12.7-4.95-44.2-18.88-45.61-35.82l-5.26-63a11.36,11.36,0,0,1,7.52-11.47c11.91-4.49,33.66-13.67,44.22-24.27A6.13,6.13,0,0,1,395.26,217.42Z"/><circle class="cls-12" cx="437.13" cy="254.91" r="6.88"/><circle class="cls-12" cx="424.89" cy="247.45" r="4.87"/></g></svg>