<svg xmlns="http://www.w3.org/2000/svg" viewBox="0 0 512 512"><defs><style>.cls-1{fill:#27273d;}.cls-2{fill:#ccc;}.cls-3{fill:#e2e2e2;}.cls-4{fill:#fff;}.cls-5{fill:#3e436d;}.cls-6{fill:#b0d46c;}.cls-7{fill:#a0c157;}.cls-8{fill:#cfea94;}.cls-9{fill:#e4efc2;}</style></defs><title>Insurance</title><g id="BULINE"><circle class="cls-1" cx="256" cy="256" r="256"/></g><g id="Icons"><path class="cls-2" d="M337,65.43v342a7.12,7.12,0,0,1-7.12,7.12H93.39a7.12,7.12,0,0,1-7.12-7.12V119.23l60.91-60.92H329.87A7.12,7.12,0,0,1,337,65.43Z"/><path class="cls-3" d="M147.18,58.31v33a27.88,27.88,0,0,1-27.87,27.88h-33Z"/><path class="cls-4" d="M377.64,88.71v342a7.12,7.12,0,0,1-7.12,7.12H134a7.12,7.12,0,0,1-7.12-7.12V142.51l60.92-60.92H370.52A7.12,7.12,0,0,1,377.64,88.71Z"/><path class="cls-5" d="M337,203.32H161.44a5,5,0,0,1,0-10H337a5,5,0,0,1,0,10Z"/><path class="cls-5" d="M252.58,233.16H161.44a5,5,0,0,1,0-10h91.14a5,5,0,0,1,0,10Z"/><path class="cls-5" d="M337,233.16H268.44a5,5,0,0,1,0-10H337a5,5,0,0,1,0,10Z"/><path class="cls-5" d="M337,296H242.38a5,5,0,0,1,0-10H337a5,5,0,0,1,0,10Z"/><path class="cls-5" d="M294.79,155H203.64a5,5,0,0,1,0-10h91.15a5,5,0,0,1,0,10Z"/><path class="cls-5" d="M337,266.19H161.44a5,5,0,0,1,0-10H337a5,5,0,0,1,0,10Z"/><path class="cls-5" d="M223.38,296H161.44a5,5,0,0,1,0-10h61.94a5,5,0,1,1,0,10Z"/><path class="cls-5" d="M337,329.07H161.44a5,5,0,0,1,0-10H337a5,5,0,0,1,0,10Z"/><path class="cls-5" d="M252.58,358.91H161.44a5,5,0,0,1,0-10h91.14a5,5,0,0,1,0,10Z"/><path class="cls-3" d="M187.83,81.59v33A27.87,27.87,0,0,1,160,142.5h-33Z"/><path class="cls-5" d="M195.88,415.49l-.44,0a5,5,0,0,1-3.76-2.28l-6.39-9.94-7.65,4.54a5,5,0,0,1-4.91.11,44,44,0,0,1-4.91-3,40.37,40.37,0,0,1-3.66,2.78,5,5,0,1,1-5.46-8.38h0s.85-.56,2-1.52a14.2,14.2,0,0,1-2.22-7.51c0-10.36,11.66-17,13-17.68a5,5,0,0,1,7,2.49c3.67,8.85.55,16.69-3.71,22.46l.25.16,9.29-5.51a5,5,0,0,1,6.76,1.59l5.51,8.58,6.74-7.27a5,5,0,0,1,5.2-1.36L218.67,397h18.71a5,5,0,0,1,0,10h-19.5a5,5,0,0,1-1.53-.24l-7.84-2.53-9,9.67A5,5,0,0,1,195.88,415.49Z"/><path class="cls-3" d="M377.64,349.75v81a7.12,7.12,0,0,1-7.12,7.12H330.85c-4.77-4.08-8.22-8.68-8.63-13.59l-.81-9.69L317.86,372a9.42,9.42,0,0,1,6.24-9.51c3.53-1.33,8.09-3.15,12.9-5.35,8.66-3.95,18.12-9.11,23.75-14.76a5.15,5.15,0,0,1,7.23,0A53.62,53.62,0,0,0,377.64,349.75Z"/><path class="cls-6" d="M424.14,372l-4.36,52.23c-1.18,14-27.28,25.59-37.8,29.69a12,12,0,0,1-8.68,0c-10.53-4.1-36.63-15.65-37.8-29.69L331.14,372a9.4,9.4,0,0,1,6.23-9.51c9.87-3.73,27.9-11.33,36.65-20.11a5.15,5.15,0,0,1,7.23,0C390,351.17,408,358.77,417.9,362.5A9.41,9.41,0,0,1,424.14,372Z"/><path class="cls-7" d="M377.64,340.91V454.74a12,12,0,0,1-4.34-.81c-10.53-4.1-36.63-15.65-37.8-29.69L331.14,372a9.4,9.4,0,0,1,6.23-9.51c9.87-3.73,27.9-11.33,36.65-20.11A5.09,5.09,0,0,1,377.64,340.91Z"/><path class="cls-8" d="M380.61,352.2a4.23,4.23,0,0,0-5.95,0c-7.21,7.22-22,13.49-30.16,16.55a7.74,7.74,0,0,0-5.13,7.83l3.58,43c1,11.55,22.45,21.05,31.11,24.43a9.91,9.91,0,0,0,7.15,0c8.66-3.38,30.14-12.88,31.11-24.43l3.59-43a7.76,7.76,0,0,0-5.14-7.83C402.65,365.69,387.82,359.42,380.61,352.2Z"/><path class="cls-6" d="M377.64,351v93.69a9.8,9.8,0,0,1-3.58-.67c-8.66-3.37-30.14-12.88-31.11-24.44l-3.59-43a7.76,7.76,0,0,1,5.14-7.83c8.12-3.06,22.95-9.33,30.16-16.55A4.16,4.16,0,0,1,377.64,351Z"/><circle class="cls-9" cx="406.2" cy="376.55" r="4.69"/><circle class="cls-9" cx="397.85" cy="371.46" r="3.33"/></g></svg>