<svg xmlns="http://www.w3.org/2000/svg" viewBox="0 0 512 512"><defs><style>.cls-1{fill:#a99bd4;}.cls-2{fill:#f6d372;}.cls-3{fill:#f7bb38;}.cls-4{fill:#3586cb;}.cls-5{fill:#366fca;}.cls-6{fill:#4f4f74;}.cls-7{fill:#9e4830;}.cls-8{fill:#fff;}.cls-9{fill:#3e436d;}.cls-10{fill:#fc715a;}.cls-11{fill:#db1b1b;}.cls-12{fill:#696993;}.cls-13{fill:#934cf5;}.cls-14{fill:#32314b;}</style></defs><title>Insurance</title><g id="BULINE"><circle class="cls-1" cx="256" cy="256" r="256"/></g><g id="Icons"><path class="cls-2" d="M380.64,179.83,325.73,194.5a6.75,6.75,0,0,1-8.27-8.24l14.88-56.68a6.76,6.76,0,0,0-11.3-6.51L299.7,144.29A6.75,6.75,0,0,1,288.65,142l-27-68.45a6.76,6.76,0,0,0-12.57,0l-27,68.45a6.75,6.75,0,0,1-11,2.31l-21.34-21.22a6.76,6.76,0,0,0-11.3,6.51l14.89,56.68a6.75,6.75,0,0,1-8.28,8.24l-54.9-14.67a6.76,6.76,0,0,0-6.09,11.7l59.64,50A6.76,6.76,0,0,1,180,253.47l-38.3,3.17a6.76,6.76,0,0,0-1.94,13l55.4,22a6.84,6.84,0,0,0,2.49.47H313.21a6.84,6.84,0,0,0,2.49-.47l55.4-22a6.76,6.76,0,0,0-1.94-13l-38.29-3.17a6.76,6.76,0,0,1-3.79-11.91l59.64-50C392.26,186.89,387.62,178,380.64,179.83Z"/><path class="cls-3" d="M343.92,199.31l-38.81,12.12c-3.54,1.11-6.78-2.67-5.85-6.81l10.52-46.85c1.24-5.5-4.53-9.39-8-5.38l-15.08,17.54c-2.44,2.84-6.56,1.83-7.81-1.91l-19.06-56.57c-1.59-4.72-7.3-4.72-8.89,0L231.91,168c-1.26,3.74-5.38,4.75-7.81,1.91L209,152.39c-3.45-4-9.22-.12-8,5.38l10.52,46.85c.93,4.14-2.31,7.92-5.85,6.81l-38.81-12.12c-4.93-1.54-8.21,5.83-4.3,9.67l42.15,41.35c3.27,3.21,1.58,9.43-2.67,9.84L175,262.79c-5,.49-6.06,8.58-1.37,10.76l39.16,18.19a4.18,4.18,0,0,0,1.76.39h81.71a4.22,4.22,0,0,0,1.77-.39l39.15-18.19c4.69-2.18,3.66-10.27-1.37-10.76l-27.07-2.62c-4.25-.41-5.94-6.63-2.67-9.84L348.22,209C352.14,205.14,348.86,197.77,343.92,199.31Z"/><path class="cls-4" d="M255.41,279.4v4.25a12.76,12.76,0,0,1-12.77,12.76H3.17A255.84,255.84,0,0,1,.22,266.64Q0,261.35,0,256A255.06,255.06,0,0,1,22.24,151.49h5.88a28,28,0,0,1,19.26,7.68l58.68,55.45,125.57,7.73a10.69,10.69,0,0,1,10,10.66v33.63h1A12.76,12.76,0,0,1,255.41,279.4Z"/><path class="cls-5" d="M255.41,279.4v4.25a12.76,12.76,0,0,1-12.77,12.76H3.17A255.84,255.84,0,0,1,.22,266.64h79a57.44,57.44,0,0,1,98.24,0h65.14A12.76,12.76,0,0,1,255.41,279.4Z"/><path class="cls-6" d="M173.24,296.41H83.53a44.86,44.86,0,1,1,89.71,0Z"/><circle class="cls-7" cx="128.38" cy="296.41" r="35.79"/><circle class="cls-8" cx="128.38" cy="296.41" r="16.69"/><path class="cls-6" d="M74.87,215.55H3.18a254.59,254.59,0,0,1,13.88-51.62h9a29.67,29.67,0,0,1,22.06,9.83l30.36,33.77A4.81,4.81,0,0,1,74.87,215.55Z"/><path class="cls-9" d="M3.34,215.55h0Z"/><path class="cls-10" d="M219.23,238.9h22.42a0,0,0,0,1,0,0v16.7a0,0,0,0,1,0,0H219.23a8.35,8.35,0,0,1-8.35-8.35v0A8.35,8.35,0,0,1,219.23,238.9Z"/><circle class="cls-11" cx="219" cy="247.25" r="4.64"/><path class="cls-6" d="M11.14,228.8a4.85,4.85,0,0,1-4.84,4.84H1q.42-4.87,1-9.69H6.3A4.85,4.85,0,0,1,11.14,228.8Z"/><circle class="cls-12" cx="43.71" cy="185.6" r="5.41"/><circle class="cls-12" cx="35.63" cy="177.76" r="3.83"/><path class="cls-11" d="M512,256a257.54,257.54,0,0,1-3.17,40.41H275.9a12.76,12.76,0,0,1-12.77-12.76V279.4a12.76,12.76,0,0,1,12.77-12.76h1V233a10.69,10.69,0,0,1,10-10.66l125.57-7.73,58.68-55.45a28,28,0,0,1,18.6-7.67q2.75,6.13,5.17,12.42a254,254,0,0,1,13.89,51.63A258.14,258.14,0,0,1,512,256Z"/><path class="cls-13" d="M511.78,266.64a255.84,255.84,0,0,1-2.95,29.77c-.05.33-.11.67-.16,1H275.9c-7.06,0-12.77-6.71-12.77-13.76V279.4a12.76,12.76,0,0,1,12.77-12.76H341a57.44,57.44,0,0,1,98.24,0Z"/><path class="cls-6" d="M345.3,296.41H435a44.86,44.86,0,1,0-89.71,0Z"/><circle class="cls-7" cx="390.16" cy="296.41" r="35.79"/><circle class="cls-8" cx="390.16" cy="296.41" r="16.69"/><path class="cls-6" d="M508.82,215.55H443.66a4.81,4.81,0,0,1-3.56-8l30.35-33.77a29.71,29.71,0,0,1,22.06-9.83h2.42A254,254,0,0,1,508.82,215.55Z"/><path class="cls-10" d="M285.24,238.9h22.42a0,0,0,0,1,0,0v16.7a0,0,0,0,1,0,0H285.24a8.35,8.35,0,0,1-8.35-8.35v0A8.35,8.35,0,0,1,285.24,238.9Z" transform="translate(584.54 494.49) rotate(180)"/><circle class="cls-11" cx="299.54" cy="247.25" r="4.64"/><circle class="cls-12" cx="474.83" cy="185.6" r="5.41"/><circle class="cls-12" cx="482.91" cy="177.76" r="3.83"/><path class="cls-14" d="M500.46,332.2C468,436.37,370.84,512,256,512S44,436.37,11.54,332.2Z"/></g></svg>