<svg xmlns="http://www.w3.org/2000/svg" viewBox="0 0 512 512"><defs><style>.cls-1{fill:#934cf5;}.cls-2{fill:#fff;}.cls-3{fill:#cecece;}.cls-4{fill:#b0d46c;}.cls-5{fill:#a0c157;}.cls-6{fill:#96af51;}.cls-7{fill:#cfea94;}.cls-8{fill:#fcc8bc;}.cls-9{fill:#fab3a7;}.cls-10{fill:#fff9f8;}</style></defs><title>Insurance</title><g id="BULINE"><circle class="cls-1" cx="256" cy="256" r="256"/></g><g id="Icons"><path class="cls-2" d="M236.21,307.86c-15.46,0-28-13.79-28-30.75v-6.26a8.25,8.25,0,0,1,16.49,0v6.26c0,7.86,5.17,14.26,11.54,14.26s11.54-6.4,11.54-14.26V127a8.25,8.25,0,0,1,16.49,0v150.1C264.24,294.07,251.66,307.86,236.21,307.86Z"/><path class="cls-3" d="M238.82,307.73a25.06,25.06,0,0,1-2.61.14c-15.46,0-28-13.8-28-30.76v-6.26a8.25,8.25,0,0,1,8.24-8.25A8.13,8.13,0,0,1,219,263a8.23,8.23,0,0,0-5.63,7.82v6.26C213.41,293.1,224.58,306.28,238.82,307.73Z"/><path class="cls-3" d="M258.61,119.19A8.25,8.25,0,0,0,253,127v150.1c0,7.87-5.18,14.27-11.54,14.27a9.22,9.22,0,0,1-2.62-.38c5.11-1.46,8.93-7.14,8.93-13.89V127a8.23,8.23,0,0,1,8.24-8.24A8.36,8.36,0,0,1,258.61,119.19Z"/><path class="cls-4" d="M411.18,191.05h0a1.86,1.86,0,0,1-1.84-1.81c-1-19.49-17.74-35-38.3-35-16.74,0-31,10.31-36.2,24.67a2.27,2.27,0,0,1-4.28,0c-5.23-14.36-19.46-24.67-36.21-24.67s-31,10.31-36.2,24.67a2.27,2.27,0,0,1-4.28,0c-5.22-14.36-19.45-24.67-36.2-24.67s-31,10.31-36.2,24.67a2.27,2.27,0,0,1-4.28,0c-5.23-14.36-19.45-24.67-36.2-24.67-20.55,0-37.32,15.53-38.3,35a1.87,1.87,0,0,1-1.85,1.81h0A1.86,1.86,0,0,1,99,189.17a157.05,157.05,0,0,1,314.08,0A1.86,1.86,0,0,1,411.18,191.05Z"/><path class="cls-5" d="M256,34V180.41a2.26,2.26,0,0,1-2.14-1.52c-5.23-14.36-19.44-24.67-36.2-24.67s-31,10.31-36.2,24.67a2.28,2.28,0,0,1-4.29,0c-5.22-14.36-19.44-24.67-36.19-24.67-20.55,0-37.32,15.54-38.3,35A1.86,1.86,0,0,1,99,189.2v0A157.06,157.06,0,0,1,256,34Z"/><path class="cls-6" d="M413,189.6a1.85,1.85,0,0,1-1.86,1.88h0a1.87,1.87,0,0,1-1.86-1.8c-1-19.5-17.73-35-38.29-35-16.74,0-31,10.31-36.21,24.67a2.27,2.27,0,0,1-4.27,0c-5.23-14.36-19.45-24.67-36.2-24.67s-31,10.31-36.21,24.67a2.27,2.27,0,0,1-4.28,0c-5.23-14.36-19.45-24.67-36.2-24.67s-31,10.31-36.2,24.67a2.27,2.27,0,0,1-4.28,0c-5.23-14.36-19.45-24.67-36.2-24.67-20.55,0-37.32,15.52-38.3,35a1.86,1.86,0,0,1-3.71-.05v0a156.36,156.36,0,0,1,1.19-17.68,2.15,2.15,0,0,0,.67.12,1.86,1.86,0,0,0,1.85-1.8c1-19.51,17.75-35,38.3-35,16.75,0,31,10.31,36.2,24.67a2.27,2.27,0,0,0,4.28,0c5.23-14.36,19.46-24.67,36.2-24.67s31,10.31,36.2,24.67a2.27,2.27,0,0,0,4.28,0c5.24-14.36,19.47-24.67,36.21-24.67s31,10.31,36.2,24.67a2.27,2.27,0,0,0,4.27,0c5.24-14.36,19.47-24.67,36.21-24.67,20.56,0,37.32,15.52,38.29,35a1.87,1.87,0,0,0,1.86,1.8h0a2.15,2.15,0,0,0,.67-.12A158.72,158.72,0,0,1,413,189.6Z"/><circle class="cls-7" cx="360.15" cy="112.63" r="15.08"/><circle class="cls-7" cx="337.93" cy="90.42" r="10.68"/><path class="cls-8" d="M219.91,509.48a254.17,254.17,0,0,1-67.69-19.4c-25.56-61-76.4-182.44-77.43-185.38-5.62-15.91,15.44-57.63,20.09-66.46,2.71-5.18,5.79-9.75,9.31-12.38a13,13,0,0,1,2.48-1.48c10.1-4.6,20.61,6,16.86,16.16-3.92,10.56-17,44.35-14.65,52.18,1.25,4.2,3.61,8.45,5.35,12.5a14.68,14.68,0,0,1,2.25-14.71A14.53,14.53,0,0,1,136,288.05c5.41,3.92,7.54,12.39,10.06,18.27,2.66,6.26,11.82,28.81,16,32.44,7.21,6.26,12.53,7.89,17.13,17.13a57.88,57.88,0,0,1,5.95,25.32c.07,8.44-3.88,16.89-3.79,25C181.52,416.42,203.5,470.16,219.91,509.48Z"/><path class="cls-9" d="M161.91,494.14c-3.27-1.28-6.49-2.64-9.69-4.06-25.56-61-76.4-182.44-77.43-185.38-5.62-15.91,15.44-57.63,20.09-66.46,2.71-5.18,5.79-9.75,9.31-12.38A12.32,12.32,0,0,1,116,224.12a5.61,5.61,0,0,1,1.57.75,13.08,13.08,0,0,0-4.87,2.3c-3.52,2.63-6.6,7.2-9.31,12.38C98.76,248.38,77.7,290.1,83.32,306,84.37,309,136.76,434.09,161.91,494.14Z"/><path class="cls-9" d="M121.46,286.65a14.43,14.43,0,0,0-7.61,19L133,350.41c.15-.27.3-.55.47-.81a12.49,12.49,0,0,0,.64-11.17l-15-35.08A14.41,14.41,0,0,1,123,286.69a13,13,0,0,1,1.17-.9A14.26,14.26,0,0,0,121.46,286.65Z"/><path class="cls-10" d="M124.57,290h7.07a2.48,2.48,0,0,1,2.48,2.48v12.1a2.48,2.48,0,0,1-2.48,2.48h-7.07a5.75,5.75,0,0,1-5.75-5.75v-5.54a5.75,5.75,0,0,1,5.75-5.75Z" transform="translate(-98.38 532.08) rotate(-113.13)"/><path class="cls-10" d="M94.88,238.24l3.45,1.84a5.74,5.74,0,0,0,7.78-2.39l3.32-6.24a2.48,2.48,0,0,0-1-3.35l-4.22-2.24C100.67,228.49,97.59,233.06,94.88,238.24Z"/><path class="cls-8" d="M437.56,298.89c-.83,2.91-41.93,120.8-64.21,184.68A253.83,253.83,0,0,1,307,506.92c13.72-39.63,30.81-90.44,30.32-100.22-.4-8.09-4.86-16.28-5.3-24.71a57.71,57.71,0,0,1,4.4-25.63c4-9.51,9.23-11.46,16-18.14,4-3.89,11.73-27,14-33.36,2.15-6,3.76-14.61,8.92-18.85a14.53,14.53,0,0,1,19.68,1.26,14.7,14.7,0,0,1,3.14,14.55c1.49-4.15,3.58-8.54,4.58-12.81,1.87-8-13.25-40.89-17.81-51.19-4.37-10,5.48-21.14,15.85-17.16A13,13,0,0,1,403.4,222c3.67,2.41,7,6.79,10.05,11.79C418.63,242.31,442.2,282.67,437.56,298.89Z"/><path class="cls-9" d="M392.86,285.36a14.32,14.32,0,0,0-10,3.21c-5.16,4.24-6.77,12.83-8.92,18.85-2.28,6.41-10,29.48-14,33.36-6.82,6.68-12,8.63-16,18.14a57.71,57.71,0,0,0-4.4,25.63c.45,8.44,4.9,16.62,5.3,24.71.47,9.4-15.32,56.78-28.75,95.65-3,.73-6,1.4-9.05,2,13.72-39.63,30.81-90.44,30.32-100.22-.4-8.09-4.86-16.28-5.3-24.71a57.71,57.71,0,0,1,4.4-25.63c4-9.51,9.23-11.46,16-18.14,4-3.89,11.73-27,14-33.36,2.15-6,3.76-14.61,8.92-18.85A14.54,14.54,0,0,1,392.86,285.36Z"/><path class="cls-9" d="M389.87,283.72a14.43,14.43,0,0,1,8.75,18.45l-16.37,45.89-.51-.78a12.44,12.44,0,0,1-1.32-11.1l12.81-35.93A14.4,14.4,0,0,0,387.09,283,14,14,0,0,1,389.87,283.72Z"/><path class="cls-10" d="M383.7,287.35h7.07a2.48,2.48,0,0,1,2.48,2.48v12.1a2.48,2.48,0,0,1-2.48,2.48H383.7a5.75,5.75,0,0,1-5.75-5.75V293.1a5.75,5.75,0,0,1,5.75-5.75Z" transform="translate(-22.63 559.64) rotate(-70.37)"/><path class="cls-10" d="M413.45,233.78l-3.34,2a5.75,5.75,0,0,1-7.91-1.9l-3.69-6a2.48,2.48,0,0,1,.81-3.41L403.4,222C407.07,224.4,410.43,228.78,413.45,233.78Z"/></g></svg>