<svg xmlns="http://www.w3.org/2000/svg" viewBox="0 0 512 512"><defs><style>.cls-1{fill:#27273d;}.cls-2{fill:#f58d89;}.cls-3{fill:#fcc8bc;}.cls-4{fill:#fab3a7;}.cls-5{fill:#f9dcd7;}.cls-6{fill:#32314b;}.cls-7{fill:#b0d46c;}.cls-8{fill:#a0c157;}.cls-9{fill:#cfea94;}.cls-10{fill:#e4efc2;}</style></defs><title>Insurance</title><g id="BULINE"><circle class="cls-1" cx="256" cy="256" r="256"/></g><g id="Icons"><path class="cls-2" d="M96.09,124.32a50.45,50.45,0,1,0,99.45-17c-4.71-27.46-58.24-41.21-58.24-41.21S91.39,96.86,96.09,124.32Z"/><path class="cls-3" d="M494.57,211.33a3.4,3.4,0,0,0-6.78.53c1.74,22-2.45,29.95-6.26,32.69s-9.13,1.42-12.89-.18a26.92,26.92,0,0,1-8.14-5.5c-1.82-1.75-3.34-3.35-4.62-4.82,5-4.14,8.34-9.55,8.62-16.62a8,8,0,0,0-3.13-6.69,8,8,0,0,0-7.19-1.31c-6.19,1.9-10.05,5.34-11.16,10-.91,3.82.1,8.1,3.09,12.93-6.22,3.33-14.07,5.44-21.36,6.71C421.56,161.19,344.93,98.9,250.86,98.9c-2.29,0-4.56,0-6.83.12-13-21-51.62-33.35-51.62-33.35s-47.65,28-44.58,55.69c.2,1.77.49,3.5.85,5.2-29.45,17.86-51.93,43.24-63.39,72.76H71.74a17,17,0,0,0-17,17v68.59a17,17,0,0,0,17,17H85.35a16.81,16.81,0,0,0,5.38-.89c9.61,18.78,23.82,35.53,41.45,49.25L123,384.45A27.91,27.91,0,0,0,141,418.07h0a27.9,27.9,0,0,0,34.74-15.63l9.93-23.7a206.35,206.35,0,0,0,140.08-3.54l11.41,27.24a27.9,27.9,0,0,0,52.68-18l-11.18-41.81c28.23-25.47,45.65-59.4,46.2-96.72,8.05-1.3,17.64-3.68,25.38-8,1.6,1.88,3.45,3.83,5.55,5.87a33.89,33.89,0,0,0,10.2,6.85A26.2,26.2,0,0,0,476.2,253a15.6,15.6,0,0,0,9.3-2.88C493.22,244.52,496.19,231.85,494.57,211.33Zm-42.82,17.19c-2.32-3.83-2.43-6.21-2.11-7.54.65-2.72,3.91-4.25,6.53-5a1,1,0,0,1,.33-.05,1.24,1.24,0,0,1,.72.25,1.26,1.26,0,0,1,.49,1C457.52,221.74,455.26,225.48,451.75,228.52Z"/><path class="cls-4" d="M147.83,121.36a51.25,51.25,0,0,0,.85,5.2c-29.45,17.86-51.93,43.23-63.39,72.75H71.74a17,17,0,0,0-17,17V284.9a17,17,0,0,0,17,17H85.35a17,17,0,0,0,2.27-.16A17,17,0,0,1,72.88,284.9V216.32a17,17,0,0,1,17-17h0a20.81,20.81,0,0,0,18.61-11.38c12.41-24.66,32.74-45.85,58.33-61.37a51.25,51.25,0,0,1-.85-5.2C163.62,100.26,190.75,79,203.79,70c-6.68-2.85-11.37-4.36-11.37-4.36S144.76,93.67,147.83,121.36Zm-6.65,263.1.64-2.43a55.19,55.19,0,0,0-12.28-51.09,142.06,142.06,0,0,1-17.65-24.35,9.4,9.4,0,0,0-8.3-4.68H91.2c9.59,18.42,23.62,34.85,41,48.37L123,384.46a27.9,27.9,0,0,0,36,33.59A27.88,27.88,0,0,1,141.18,384.46Z"/><circle class="cls-5" cx="384.73" cy="187.09" r="13.71"/><circle class="cls-5" cx="364.54" cy="166.89" r="9.71"/><ellipse class="cls-6" cx="145.9" cy="211.6" rx="14.17" ry="20.12"/><rect class="cls-2" x="228.18" y="116.17" width="79.35" height="16.83" rx="8.41"/><path class="cls-7" d="M317.93,344.88l-6,72.17c-1.62,19.4-37.69,35.35-52.23,41a16.6,16.6,0,0,1-12,0c-14.54-5.67-50.61-21.62-52.23-41l-6-72.17a13,13,0,0,1,8.61-13.14c13.64-5.15,38.54-15.66,50.64-27.79a7.14,7.14,0,0,1,10,0c12.1,12.13,37,22.64,50.64,27.79A13,13,0,0,1,317.93,344.88Z"/><path class="cls-8" d="M253.69,301.91V459.19a16.71,16.71,0,0,1-6-1.12c-14.54-5.67-50.61-21.62-52.23-41l-6-72.17a13,13,0,0,1,8.61-13.14c13.64-5.15,38.54-15.66,50.64-27.79A7.05,7.05,0,0,1,253.69,301.91Z"/><path class="cls-9" d="M257.8,317.5a5.87,5.87,0,0,0-8.22,0c-10,10-30.46,18.64-41.68,22.88a10.7,10.7,0,0,0-7.09,10.81l5,59.4c1.33,16,31,29.09,43,33.76a13.66,13.66,0,0,0,9.87,0c12-4.67,41.65-17.8,43-33.76l4.95-59.4a10.7,10.7,0,0,0-7.09-10.81C288.25,336.14,267.75,327.49,257.8,317.5Z"/><path class="cls-7" d="M253.69,315.82V445.27a13.74,13.74,0,0,1-4.94-.92c-12-4.66-41.65-17.8-43-33.76l-5-59.4a10.7,10.7,0,0,1,7.09-10.81c11.22-4.24,31.72-12.89,41.68-22.87A5.74,5.74,0,0,1,253.69,315.82Z"/><circle class="cls-10" cx="293.15" cy="351.16" r="6.49"/><circle class="cls-10" cx="281.61" cy="344.13" r="4.59"/></g></svg>