<svg xmlns="http://www.w3.org/2000/svg" viewBox="0 0 512 512"><defs><style>.cls-1{fill:#6fc2e5;}.cls-2{fill:#fff;}.cls-3{fill:#dfe0de;}.cls-4{fill:#db1b1b;}.cls-5{fill:#a65c3b;}.cls-6{fill:#c41c1c;}.cls-7{fill:#f55b4b;}.cls-8{fill:#b0d46c;}.cls-9{fill:#a0c157;}.cls-10{fill:#cfea94;}.cls-11{fill:#e4efc2;}</style></defs><title>Insurance</title><g id="BULINE"><circle class="cls-1" cx="256" cy="256" r="256"/></g><g id="Icons"><rect class="cls-2" x="120.15" y="73.64" width="40.8" height="61.74"/><path class="cls-2" d="M401.57,139.88V353.73H110.43V139.88L248,65.49a17.24,17.24,0,0,1,16.1,0Z"/><path class="cls-3" d="M401.57,154.66V192l-136.3-78.23a18.55,18.55,0,0,0-18.54,0L110.43,192V154.66L248,75.75a16.55,16.55,0,0,1,6-2,18.44,18.44,0,0,1,4.2,0c.25,0,.52.07.78.12a15.22,15.22,0,0,1,1.52.34,16.9,16.9,0,0,1,3.65,1.53Z"/><path class="cls-4" d="M440.15,167.69a16.2,16.2,0,0,1-22.07,6l-16.51-9.47L265.27,86a18.55,18.55,0,0,0-18.54,0l-136.3,78.23-16.51,9.47a16.18,16.18,0,0,1-16.1-28.07l32.61-18.73L248,48a16.38,16.38,0,0,1,16.1,0l137.52,78.91,32.61,18.73A16.16,16.16,0,0,1,440.15,167.69Z"/><rect class="cls-5" x="110.43" y="327.37" width="18.87" height="26.36"/><rect class="cls-5" x="110.43" y="276.45" width="18.87" height="26.36"/><rect class="cls-5" x="110.43" y="225.53" width="18.87" height="26.36"/><rect class="cls-5" x="383" y="327.37" width="18.87" height="26.36"/><rect class="cls-5" x="383" y="276.45" width="18.87" height="26.36"/><rect class="cls-5" x="383" y="225.53" width="18.87" height="26.36"/><path class="cls-4" d="M228.29,221.94h55.41a5.84,5.84,0,0,1,5.84,5.84V353.73a0,0,0,0,1,0,0H222.45a0,0,0,0,1,0,0V227.78A5.84,5.84,0,0,1,228.29,221.94Z"/><path class="cls-6" d="M240.42,221.94a5.83,5.83,0,0,0-5.84,5.84v126H222.46v-126a5.83,5.83,0,0,1,5.84-5.84Z"/><rect class="cls-4" x="137.69" y="221.94" width="63.5" height="68.89" rx="6.89"/><rect class="cls-4" x="306.62" y="221.94" width="63.5" height="68.89" rx="6.89"/><rect class="cls-5" x="106.86" y="53.61" width="67.39" height="20.02" rx="5.52"/><path class="cls-4" d="M256,124.58a31.74,31.74,0,1,0,31.73,31.74A31.74,31.74,0,0,0,256,124.58Zm0,53.17a21.43,21.43,0,1,1,21.42-21.43A21.42,21.42,0,0,1,256,177.75Z"/><rect class="cls-3" x="99.84" y="352.48" width="311.67" height="20.5" rx="4.85"/><circle class="cls-7" cx="352.95" cy="255.11" r="8.83"/><circle class="cls-7" cx="352.95" cy="236.71" r="6.26"/><path class="cls-8" d="M328.65,370.3l-6.82,81.6c-1.83,21.94-42.61,40-59.05,46.38a18.73,18.73,0,0,1-13.56,0c-16.44-6.4-57.22-24.44-59.05-46.38l-6.82-81.6a14.72,14.72,0,0,1,9.75-14.86c15.41-5.81,43.57-17.7,57.25-31.42a8.06,8.06,0,0,1,11.3,0c13.68,13.72,41.84,25.61,57.25,31.42A14.72,14.72,0,0,1,328.65,370.3Z"/><path class="cls-9" d="M256,321.71V499.55a18.58,18.58,0,0,1-6.78-1.27c-16.44-6.4-57.22-24.44-59.05-46.38l-6.82-81.6a14.72,14.72,0,0,1,9.75-14.86c15.41-5.81,43.57-17.7,57.25-31.42A8,8,0,0,1,256,321.71Z"/><path class="cls-10" d="M260.65,339.35a6.65,6.65,0,0,0-9.3,0c-11.26,11.29-34.43,21.07-47.12,25.86a12.1,12.1,0,0,0-8,12.23l5.61,67.16c1.5,18,35.07,32.9,48.6,38.17a15.45,15.45,0,0,0,11.16,0c13.53-5.27,47.1-20.12,48.6-38.17l5.61-67.16a12.1,12.1,0,0,0-8-12.23C295.08,360.42,271.91,350.64,260.65,339.35Z"/><path class="cls-8" d="M256,337.45V483.82a15.31,15.31,0,0,1-5.58-1.05c-13.53-5.27-47.1-20.12-48.6-38.17l-5.61-67.16a12.11,12.11,0,0,1,8-12.23c12.69-4.78,35.86-14.57,47.12-25.86A6.55,6.55,0,0,1,256,337.45Z"/><circle class="cls-11" cx="300.62" cy="377.4" r="7.33"/><circle class="cls-11" cx="287.58" cy="369.45" r="5.19"/></g></svg>