<svg xmlns="http://www.w3.org/2000/svg" viewBox="0 0 512 512"><defs><style>.cls-1{fill:#f55b4b;}.cls-2{fill:#b0d46c;}.cls-3{fill:#a0c157;}.cls-4{fill:#cfea94;}.cls-5{fill:#e4efc2;}.cls-6{fill:#32314b;}</style></defs><title>Insurance</title><g id="BULINE"><circle class="cls-1" cx="256" cy="256" r="256"/></g><g id="Icons"><path class="cls-2" d="M442.62,150.72l-17.5,209.62c-4.71,56.35-109.47,102.7-151.7,119.15a48,48,0,0,1-34.84,0c-42.23-16.45-147-62.8-151.7-119.15L69.38,150.72c-1.37-16.53,8.75-32,25-38.16,39.6-15,111.94-45.48,147.09-80.72a20.69,20.69,0,0,1,29,0C305.65,67.08,378,97.61,417.59,112.56,433.87,118.71,444,134.19,442.62,150.72Z"/><path class="cls-3" d="M256,25.91V482.76a48.11,48.11,0,0,1-17.42-3.27c-42.23-16.45-147-62.8-151.7-119.15L69.38,150.72c-1.37-16.53,8.75-32,25-38.16,39.6-15,111.94-45.48,147.09-80.72A20.4,20.4,0,0,1,256,25.91Z"/><path class="cls-4" d="M267.94,71.22a17,17,0,0,0-23.88,0c-28.92,29-88.46,54.13-121,66.43-13.4,5.06-21.73,17.8-20.6,31.41l14.4,172.52c3.87,46.38,90.1,84.52,124.86,98.06a39.58,39.58,0,0,0,28.66,0c34.76-13.54,121-51.68,124.86-98.06l14.4-172.52c1.13-13.61-7.2-26.35-20.6-31.41C356.4,125.35,296.86,100.21,267.94,71.22Z"/><path class="cls-2" d="M256,66.33v376a39.22,39.22,0,0,1-14.33-2.69c-34.76-13.53-121-51.67-124.86-98.06l-14.4-172.53c-1.14-13.6,7.2-26.34,20.6-31.4,32.59-12.3,92.13-37.44,121.05-66.43A16.82,16.82,0,0,1,256,66.33Z"/><circle class="cls-5" cx="370.63" cy="168.97" r="18.84"/><circle class="cls-5" cx="337.12" cy="148.54" r="13.34"/><path class="cls-3" d="M339.84,343c0,28.78-44.48,10.42-99.35,10.42S141.14,371.76,141.14,343s44.48-94.89,99.35-94.89S339.84,314.21,339.84,343Z"/><ellipse class="cls-3" cx="141.14" cy="263.6" rx="25.94" ry="31.7"/><ellipse class="cls-3" cx="199.9" cy="193.99" rx="36.4" ry="44.49"/><path class="cls-6" d="M354.26,343c0,28.78-44.48,10.42-99.35,10.42S155.56,371.76,155.56,343s44.48-94.89,99.35-94.89S354.26,314.21,354.26,343Z"/><ellipse class="cls-6" cx="303.23" cy="193.99" rx="36.4" ry="44.49"/><ellipse class="cls-6" cx="356.44" cy="263.6" rx="25.94" ry="31.7"/><ellipse class="cls-6" cx="155.56" cy="263.6" rx="25.94" ry="31.7"/><ellipse class="cls-6" cx="214.31" cy="193.99" rx="36.4" ry="44.49"/></g></svg>