<svg xmlns="http://www.w3.org/2000/svg" viewBox="0 0 512 512"><defs><style>.cls-1{fill:#f55b4b;}.cls-2{fill:#fcc8bc;}.cls-3{fill:#fab3a7;}.cls-4{fill:#fff9f8;}.cls-5{fill:#7cc8fb;}.cls-6{fill:#41c0e3;}.cls-7{fill:#4f4f74;}.cls-8{fill:#f58d89;}.cls-9{fill:#f6c752;}.cls-10{fill:#a7dcf9;}</style></defs><title>Insurance</title><g id="BULINE"><circle class="cls-1" cx="256" cy="256" r="256"/></g><g id="Icons"><path class="cls-2" d="M190.89,503.64A254.41,254.41,0,0,1,119,472.29C92.72,409.54,48.46,303.83,47.51,301.12c-5.54-15.7,15.23-56.85,19.82-65.57,2.67-5.1,5.71-9.62,9.18-12.21A12.67,12.67,0,0,1,79,221.88c10-4.54,20.34,5.88,16.64,15.94-3.87,10.42-16.78,43.75-14.46,51.48,1.24,4.14,3.56,8.34,5.28,12.33a14.24,14.24,0,0,1,21.52-16.94c5.33,3.87,7.44,12.23,9.92,18,2.63,6.17,11.66,28.42,15.8,32,7.11,6.17,12.35,7.78,16.89,16.9a57.07,57.07,0,0,1,5.87,25c.07,8.33-3.83,16.66-3.73,24.65C152.8,411.37,174.67,464.8,190.89,503.64Z"/><path class="cls-3" d="M129.53,478.62c-3.56-2-7.08-4.14-10.53-6.33C92.72,409.54,48.46,303.83,47.51,301.12c-5.54-15.7,15.23-56.85,19.82-65.57,2.67-5.1,5.71-9.62,9.18-12.21a12.12,12.12,0,0,1,11.66-1.71c.06,0,.4.09,1.22.55l.35.19a12.89,12.89,0,0,0-4.81,2.26c-3.47,2.59-6.51,7.11-9.19,12.22-4.58,8.71-25.36,49.87-19.81,65.56C56.91,305.2,103.59,416.67,129.53,478.62Z"/><path class="cls-3" d="M93.55,283.31a14.23,14.23,0,0,0-7.5,18.7l18.88,44.2c.15-.27.3-.54.46-.8a12.3,12.3,0,0,0,.63-11l-14.78-34.6a14.22,14.22,0,0,1,3.86-16.44,12.57,12.57,0,0,1,1.15-.89A14.3,14.3,0,0,0,93.55,283.31Z"/><path class="cls-4" d="M96.62,286.61h7a2.44,2.44,0,0,1,2.44,2.44V301a2.44,2.44,0,0,1-2.44,2.44h-7a5.68,5.68,0,0,1-5.68-5.68v-5.47a5.68,5.68,0,0,1,5.68-5.68Z" transform="translate(-134.12 501.48) rotate(-113.13)"/><path class="cls-4" d="M67.33,235.55l3.41,1.81A5.66,5.66,0,0,0,78.41,235l3.28-6.16a2.45,2.45,0,0,0-1-3.31l-4.17-2.21C73,225.93,70,230.45,67.33,235.55Z"/><path class="cls-2" d="M465.64,295.39c-.75,2.65-35.4,102.05-58,166.88a255,255,0,0,1-70.14,36.48c13.43-38.81,29.75-87.52,29.28-97-.39-8-4.79-16.06-5.23-24.38a56.94,56.94,0,0,1,4.34-25.29c4-9.37,9.11-11.3,15.83-17.89,3.9-3.83,11.57-26.58,13.82-32.9,2.11-5.95,3.7-14.42,8.79-18.6a14.23,14.23,0,0,1,22.51,15.59c1.48-4.09,3.54-8.42,4.52-12.63,1.85-7.85-13.07-40.34-17.57-50.5-4.3-9.82,5.41-20.85,15.64-16.93a13.54,13.54,0,0,1,2.53,1.31c3.62,2.38,6.93,6.7,9.91,11.63C447,239.57,470.22,279.38,465.64,295.39Z"/><path class="cls-3" d="M421.55,282a14.22,14.22,0,0,0-9.85,3.17c-5.09,4.19-6.68,12.66-8.79,18.6-2.25,6.32-9.92,29.08-13.82,32.91-6.72,6.59-11.86,8.51-15.83,17.89a56.94,56.94,0,0,0-4.34,25.29c.44,8.32,4.84,16.4,5.23,24.37.45,9-14.26,53.42-27.25,91.12q-4.66,1.78-9.41,3.37c13.43-38.81,29.75-87.52,29.28-97-.39-8-4.79-16.06-5.23-24.38a56.94,56.94,0,0,1,4.34-25.29c4-9.37,9.11-11.3,15.83-17.89,3.9-3.83,11.57-26.58,13.82-32.9,2.11-5.95,3.7-14.42,8.79-18.6A14.38,14.38,0,0,1,421.55,282Z"/><path class="cls-3" d="M418.6,280.42a14.23,14.23,0,0,1,8.63,18.2l-16.15,45.27c-.16-.25-.33-.52-.5-.77a12.28,12.28,0,0,1-1.31-10.95l12.65-35.44a14.19,14.19,0,0,0-6.07-17A14.17,14.17,0,0,1,418.6,280.42Z"/><path class="cls-4" d="M412.51,284h7a2.44,2.44,0,0,1,2.44,2.44v11.93a2.44,2.44,0,0,1-2.44,2.44h-7a5.68,5.68,0,0,1-5.68-5.68v-5.47A5.68,5.68,0,0,1,412.51,284Z" transform="translate(-0.25 584.45) rotate(-70.37)"/><path class="cls-4" d="M441.86,231.15l-3.29,2a5.66,5.66,0,0,1-7.8-1.88l-3.65-5.95a2.45,2.45,0,0,1,.81-3.36l4-2.46C435.57,221.9,438.88,226.22,441.86,231.15Z"/><rect class="cls-5" x="184.36" y="35.47" width="144.08" height="334.88" rx="72.04"/><path class="cls-6" d="M266.94,369.59a72.07,72.07,0,0,1-82.58-71.27V107.51a72.07,72.07,0,0,1,82.58-71.27,72.06,72.06,0,0,0-61.53,71.27V298.32A72.07,72.07,0,0,0,266.94,369.59Z"/><circle class="cls-2" cx="256.41" cy="116.89" r="60.2"/><path class="cls-3" d="M263.31,176.69a58.25,58.25,0,0,1-6.9.4,60.2,60.2,0,1,1,6.9-120,60.2,60.2,0,0,0,0,119.61Z"/><path class="cls-7" d="M230.84,121a13.56,13.56,0,0,1-9.65-4,2.46,2.46,0,0,1,3.48-3.48,8.75,8.75,0,0,0,12.33,0,2.46,2.46,0,0,1,3.49,3.48A13.58,13.58,0,0,1,230.84,121Z"/><path class="cls-7" d="M282,121a13.58,13.58,0,0,1-9.65-4,2.46,2.46,0,0,1,3.49-3.48,8.75,8.75,0,0,0,12.33,0,2.46,2.46,0,0,1,3.49,3.48A13.59,13.59,0,0,1,282,121Z"/><path class="cls-7" d="M256.41,151.28a13.62,13.62,0,0,1-9.66-4,2.47,2.47,0,0,1,3.49-3.49,8.73,8.73,0,0,0,12.33,0,2.47,2.47,0,0,1,3.49,3.49A13.61,13.61,0,0,1,256.41,151.28Z"/><ellipse class="cls-8" cx="231.07" cy="135.91" rx="9.26" ry="6.25"/><ellipse class="cls-8" cx="281.97" cy="135.91" rx="9.26" ry="6.25"/><path class="cls-9" d="M247.58,85.15a11.31,11.31,0,0,1-11.3-11.3,8.12,8.12,0,0,1,8.11-8.11h4.11a2.47,2.47,0,1,1,0,4.93h-4.11a3.19,3.19,0,0,0-3.18,3.18,6.37,6.37,0,0,0,12.73,0V56.69a2.47,2.47,0,1,1,4.93,0V73.85A11.31,11.31,0,0,1,247.58,85.15Z"/><path class="cls-6" d="M328.45,155.71S277.13,264.19,184.36,292.85v13.52S303.45,295.84,328.45,234Z"/><path class="cls-10" d="M184.36,180.71s53.3,71.71,144.09,63.82v29.6s-103.95,42.11-144.09,0Z"/><path class="cls-5" d="M205.41,202.46v85.1a54.71,54.71,0,0,1-21-13.42V180.71S191.65,190.51,205.41,202.46Z"/></g></svg>