<svg xmlns="http://www.w3.org/2000/svg" viewBox="0 0 512 512"><defs><style>.cls-1{fill:#27273d;}.cls-2{fill:#fcc8bc;}.cls-3{fill:#fab3a7;}.cls-4{fill:#fff9f8;}.cls-5{fill:#e53e3e;}.cls-6{fill:#db1b1b;}.cls-7{fill:#f55b4b;}.cls-8{fill:#fc715a;}.cls-9{fill:#fff;}</style></defs><title>Insurance</title><g id="BULINE"><circle class="cls-1" cx="256" cy="256" r="256"/></g><g id="Icons"><path class="cls-2" d="M183.59,501.61a254.89,254.89,0,0,1-70.91-33.46C87.5,408,54.87,330,54.06,327.74c-5.36-15.18,14.73-55,19.16-63.39,2.59-4.93,5.53-9.3,8.88-11.8a12.27,12.27,0,0,1,2.36-1.41c9.64-4.39,19.66,5.68,16.09,15.41-3.74,10.07-16.22,42.29-14,49.76,1.2,4,3.44,8.06,5.11,11.92a13.76,13.76,0,0,1,20.8-16.37c5.15,3.73,7.19,11.81,9.58,17.42,2.55,6,11.28,27.47,15.28,30.94,6.87,6,11.94,7.52,16.33,16.33a55.08,55.08,0,0,1,5.67,24.14c.07,8.06-3.7,16.11-3.6,23.83C155.83,432.51,169.9,468.31,183.59,501.61Z"/><path class="cls-3" d="M123.1,474.85q-5.3-3.24-10.42-6.7C87.5,408,54.87,330,54.06,327.74c-5.36-15.18,14.73-55,19.16-63.39,2.59-4.93,5.53-9.3,8.88-11.8a11.67,11.67,0,0,1,11.27-1.66,4.74,4.74,0,0,1,1.51.72,12.3,12.3,0,0,0-4.64,2.18c-3.36,2.51-6.3,6.88-8.88,11.81C76.93,274,56.84,313.81,62.2,329,63,331.34,97.65,414.08,123.1,474.85Z"/><path class="cls-3" d="M98.57,310.52a13.76,13.76,0,0,0-7.26,18.07l18.26,42.73c.14-.26.29-.52.44-.77a11.9,11.9,0,0,0,.61-10.65L96.33,326.45a13.75,13.75,0,0,1,3.74-15.89,10.28,10.28,0,0,1,1.11-.86A13.84,13.84,0,0,0,98.57,310.52Z"/><path class="cls-4" d="M101.53,313.71h6.75a2.36,2.36,0,0,1,2.36,2.36v11.54a2.36,2.36,0,0,1-2.36,2.36h-6.75A5.49,5.49,0,0,1,96,324.48v-5.29a5.49,5.49,0,0,1,5.49-5.49Z" transform="translate(-152.02 543.3) rotate(-113.13)"/><path class="cls-4" d="M73.22,264.35l3.29,1.75a5.47,5.47,0,0,0,7.42-2.27l3.17-5.95a2.37,2.37,0,0,0-1-3.2l-4-2.13C78.75,255.05,75.81,259.42,73.22,264.35Z"/><path class="cls-2" d="M458.27,322.19c-.64,2.26-26.82,77.41-48,138.11a255.29,255.29,0,0,1-68.52,37c10.89-32.13,21.3-64.79,20.93-72.27-.38-7.71-4.63-15.52-5.06-23.56A55.21,55.21,0,0,1,361.82,377c3.84-9.06,8.81-10.92,15.31-17.29,3.77-3.71,11.18-25.7,13.36-31.81,2-5.75,3.58-13.94,8.5-18A13.76,13.76,0,0,1,420.75,325c1.43-4,3.42-8.15,4.37-12.22,1.79-7.59-12.64-39-17-48.82-4.16-9.49,5.23-20.15,15.12-16.36a12.3,12.3,0,0,1,2.44,1.26c3.5,2.3,6.71,6.48,9.59,11.25C440.21,268.24,462.69,306.72,458.27,322.19Z"/><path class="cls-3" d="M415.64,309.29a13.63,13.63,0,0,0-9.51,3.06c-4.92,4-6.46,12.23-8.51,18-2.17,6.11-9.58,28.11-13.36,31.81-6.49,6.37-11.46,8.23-15.3,17.3a54.87,54.87,0,0,0-4.19,24.44c.42,8.05,4.67,15.85,5.05,23.56.35,7-8.8,36.24-18.94,66.39q-4.51,1.8-9.12,3.44c10.89-32.13,21.3-64.79,20.93-72.27-.38-7.71-4.63-15.52-5.06-23.56A55.21,55.21,0,0,1,361.82,377c3.84-9.06,8.81-10.92,15.31-17.29,3.77-3.71,11.18-25.7,13.36-31.81,2-5.75,3.58-13.94,8.5-18A13.88,13.88,0,0,1,415.64,309.29Z"/><path class="cls-3" d="M412.79,307.73a13.76,13.76,0,0,1,8.35,17.59l-15.61,43.77c-.17-.25-.33-.51-.5-.75a11.89,11.89,0,0,1-1.25-10.59L416,323.49a13.76,13.76,0,0,0-4.7-15.64,13.05,13.05,0,0,0-1.16-.78A12.54,12.54,0,0,1,412.79,307.73Z"/><path class="cls-4" d="M406.91,311.18h6.75a2.36,2.36,0,0,1,2.36,2.36v11.54a2.36,2.36,0,0,1-2.36,2.36h-6.75a5.49,5.49,0,0,1-5.49-5.49v-5.29a5.49,5.49,0,0,1,5.49-5.49Z" transform="translate(-29.36 596.98) rotate(-70.37)"/><path class="cls-4" d="M435.28,260.1l-3.18,1.95a5.49,5.49,0,0,1-7.55-1.82L421,254.48a2.37,2.37,0,0,1,.78-3.25l3.88-2.38C429.19,251.15,432.4,255.33,435.28,260.1Z"/><path class="cls-5" d="M391.76,124.8,379,277.29c-3.43,41-79.64,74.7-110.36,86.67a34.91,34.91,0,0,1-25.34,0C212.61,352,136.4,318.28,133,277.29L120.24,124.8c-1-12,6.37-23.29,18.21-27.76,28.81-10.88,81.44-33.09,107-58.72a15,15,0,0,1,21.1,0C292.11,64,344.74,86.16,373.55,97,385.39,101.51,392.75,112.77,391.76,124.8Z"/><path class="cls-6" d="M256,34V366.34A34.91,34.91,0,0,1,243.33,364C212.61,352,136.4,318.28,133,277.29L120.24,124.8c-1-12,6.37-23.29,18.21-27.76,28.81-10.88,81.44-33.09,107-58.72A14.87,14.87,0,0,1,256,34Z"/><path class="cls-7" d="M264.68,67a12.37,12.37,0,0,0-17.36,0c-21,21.1-64.35,39.38-88.06,48.33-9.75,3.68-15.81,13-15,22.85l10.48,125.5c2.81,33.74,65.54,61.48,90.82,71.33a28.77,28.77,0,0,0,20.86,0c25.28-9.85,88-37.59,90.82-71.33l10.48-125.5c.82-9.9-5.24-19.17-15-22.85C329,106.34,285.73,88.06,264.68,67Z"/><path class="cls-5" d="M256,63.41V336.93a28.56,28.56,0,0,1-10.43-2c-25.28-9.85-88-37.59-90.82-71.33L144.27,138.13c-.83-9.89,5.24-19.16,15-22.84,23.71-9,67-27.24,88.05-48.33A12.25,12.25,0,0,1,256,63.41Z"/><circle class="cls-8" cx="339.39" cy="138.07" r="13.7"/><circle class="cls-8" cx="315.01" cy="123.21" r="9.71"/><path class="cls-6" d="M253.34,171.65v-28a7.93,7.93,0,0,0-7.92-7.92H229.66a7.93,7.93,0,0,0-7.93,7.92v28L198,156.8a7.92,7.92,0,0,0-10.91,2.51l-8.36,13.37a7.91,7.91,0,0,0,2.51,10.91l26.5,16.58-26.5,16.57a7.92,7.92,0,0,0-2.51,10.92L187.09,241A7.91,7.91,0,0,0,198,243.54l23.73-14.85v28a7.92,7.92,0,0,0,7.93,7.92h15.76a7.92,7.92,0,0,0,7.92-7.92v-28"/><path class="cls-9" d="M312.29,216.74l-26.5-16.57,26.5-16.58a7.91,7.91,0,0,0,2.52-10.91l-8.36-13.37a7.93,7.93,0,0,0-10.92-2.51L271.8,171.65v-28a7.93,7.93,0,0,0-7.92-7.92H248.12a7.93,7.93,0,0,0-7.92,7.92v28L216.47,156.8a7.93,7.93,0,0,0-10.92,2.51l-8.36,13.37a7.91,7.91,0,0,0,2.52,10.91l26.5,16.58-26.5,16.57a7.93,7.93,0,0,0-2.52,10.92L205.55,241a7.93,7.93,0,0,0,10.92,2.52l23.73-14.85v28a7.92,7.92,0,0,0,7.92,7.92h15.76a7.92,7.92,0,0,0,7.92-7.92v-28l23.73,14.85A7.93,7.93,0,0,0,306.45,241l8.36-13.36A7.93,7.93,0,0,0,312.29,216.74Z"/></g></svg>