<svg xmlns="http://www.w3.org/2000/svg" viewBox="0 0 512 512"><defs><style>.cls-1{fill:#fcc8bc;}.cls-2{fill:#f6c752;}.cls-3{fill:#f55b4b;}.cls-4{fill:#3e436d;}.cls-5{fill:#f7bb38;}.cls-6{fill:#dd453a;}.cls-7{fill:#fff;}.cls-8{fill:#dfe0de;}.cls-9{fill:#db1b1b;}.cls-10{fill:#a65c3b;}.cls-11{fill:#c41c1c;}.cls-12{fill:#fc715a;}</style></defs><title>Insurance</title><g id="BULINE"><circle class="cls-1" cx="256" cy="256" r="256"/></g><g id="Icons"><path class="cls-2" d="M431.75,309.92c56.35-30.69,63.05-67.9,63.1-83.66a3.6,3.6,0,0,0-6-2.71c-31.3,27-50.82,13.7-57.66,6.86a3.6,3.6,0,0,1,.44-5.43c25.47-19.23,26.94-53.91,25.12-74.8a3.6,3.6,0,0,0-6.83-1.27c-11,23.55-38.75,24.67-51.67,23.81a3.6,3.6,0,0,1-2.63-5.75c13.28-17.95,10.51-38.17,7-50a3.59,3.59,0,0,0-6.74-.42c-10.05,23.69-37.69,14.05-47.31,9.81a3.62,3.62,0,0,1-1.82-4.82c13.87-30.54-.23-49.17-8-56.5a3.6,3.6,0,0,0-5.86,1.45c-4.28,11.85-13.56,18.8-19.71,22.28a3.59,3.59,0,0,1-5.34-3.27c1.8-39.23-41.65-62.82-50.47-67.19a3.54,3.54,0,0,0-3.11,0C244.72,22.7,201.94,45,204.11,85.39a3.6,3.6,0,0,1-5.39,3.28c-6.16-3.5-15.37-10.44-19.63-22.23A3.6,3.6,0,0,0,173.23,65c-7.79,7.33-21.89,26-8,56.5a3.62,3.62,0,0,1-1.82,4.82c-9.62,4.24-37.26,13.88-47.31-9.81a3.59,3.59,0,0,0-6.74.42c-3.52,11.88-6.29,32.1,7,50.05a3.6,3.6,0,0,1-2.63,5.75c-12.92.86-40.72-.26-51.67-23.81a3.6,3.6,0,0,0-6.83,1.27c-1.82,20.89-.34,55.57,25.12,74.8a3.6,3.6,0,0,1,.44,5.43c-6.84,6.84-26.36,20.19-57.66-6.86a3.6,3.6,0,0,0-6,2.71c.05,15.76,6.75,53,63.1,83.66a3.6,3.6,0,0,1,1.84,3.83c-1.55,8.1-8.82,32-40.4,30.41a3.59,3.59,0,0,0-3.4,5.14c6.1,12.66,29.34,42.15,113.24,40.83h209c83.89,1.32,107.13-28.17,113.23-40.83a3.59,3.59,0,0,0-3.4-5.14c-31.58,1.56-38.84-22.31-40.4-30.41A3.6,3.6,0,0,1,431.75,309.92Z"/><path class="cls-3" d="M405.24,322c47.85-26.06,53.54-57.67,53.58-71a3.05,3.05,0,0,0-5.05-2.3c-26.58,23-43.15,11.63-49,5.82a3.06,3.06,0,0,1,.37-4.61c21.62-16.33,22.88-45.78,21.33-63.52a3.06,3.06,0,0,0-5.8-1.08c-9.3,20-32.9,20.95-43.88,20.22a3.05,3.05,0,0,1-2.23-4.88c11.28-15.24,8.93-32.41,5.94-42.51a3.06,3.06,0,0,0-5.73-.35c-8.53,20.12-32,11.93-40.17,8.33a3.08,3.08,0,0,1-1.55-4.09c11.78-25.93-.19-41.76-6.81-48a3.05,3.05,0,0,0-5,1.23c-3.63,10.06-11.52,16-16.74,18.92a3,3,0,0,1-4.53-2.78c1.52-33.31-35.37-53.34-42.86-57a3.05,3.05,0,0,0-2.64,0c-8.12,3.8-44.44,22.74-42.6,57a3.05,3.05,0,0,1-4.58,2.78c-5.23-3-13.05-8.86-16.67-18.88a3.05,3.05,0,0,0-5-1.23c-6.62,6.22-18.59,22-6.81,48a3.08,3.08,0,0,1-1.55,4.09c-8.17,3.6-31.64,11.79-40.17-8.33a3.06,3.06,0,0,0-5.73.35c-3,10.1-5.34,27.27,5.94,42.51a3.05,3.05,0,0,1-2.23,4.88c-11,.73-34.58-.22-43.88-20.22a3.06,3.06,0,0,0-5.8,1.08c-1.55,17.74-.29,47.19,21.33,63.52a3.06,3.06,0,0,1,.37,4.61c-5.81,5.81-22.38,17.15-49-5.82a3.05,3.05,0,0,0-5,2.3c0,13.37,5.73,45,53.58,71a3.05,3.05,0,0,1,1.56,3.25c-1.32,6.87-7.49,27.15-34.3,25.82a3.05,3.05,0,0,0-2.89,4.37c5.18,10.75,24.92,35.79,96.15,34.67H344.72c71.23,1.12,91-23.92,96.15-34.67A3.05,3.05,0,0,0,438,351.1c-26.81,1.33-33-19-34.3-25.82A3.05,3.05,0,0,1,405.24,322Z"/><path class="cls-4" d="M476,386.92a256.07,256.07,0,0,1-440.06,0Z"/><path class="cls-5" d="M256.2,17.91V390.14H151.53C67.64,391.45,44.39,362,38.29,349.31a3.59,3.59,0,0,1,3.4-5.14c31.58,1.56,38.85-22.32,40.4-30.41a3.59,3.59,0,0,0-1.84-3.83c-56.35-30.69-63-67.91-63.1-83.66a3.59,3.59,0,0,1,6-2.71c31.31,27.05,50.82,13.69,57.66,6.86a3.61,3.61,0,0,0-.44-5.44c-25.46-19.22-26.94-53.91-25.11-74.79A3.59,3.59,0,0,1,62,148.91c11,23.56,38.75,24.68,51.68,23.82a3.6,3.6,0,0,0,2.62-5.76c-13.28-17.94-10.51-38.16-7-50a3.6,3.6,0,0,1,6.74-.42c10,23.7,37.69,14.05,47.32,9.81a3.61,3.61,0,0,0,1.81-4.81c-13.87-30.55.23-49.18,8-56.51a3.6,3.6,0,0,1,5.85,1.45c4.26,11.8,13.47,18.74,19.63,22.23a3.59,3.59,0,0,0,5.39-3.27C201.94,45,244.72,22.7,254.28,18.23A3.66,3.66,0,0,1,256.2,17.91Z"/><path class="cls-6" d="M256.2,74.07V390.14H167.29q-4.6.08-8.93,0c-64-1-82.27-24.38-87.23-34.67A3,3,0,0,1,74,351.11c26.81,1.32,33-18.95,34.3-25.83a3,3,0,0,0-1.56-3.25C58.91,296,53.22,264.37,53.18,251a3.05,3.05,0,0,1,5-2.3c26.58,23,43.16,11.63,49,5.82a3.05,3.05,0,0,0-.38-4.61C85.2,233.58,84,204.12,85.49,186.39a3.06,3.06,0,0,1,5.8-1.09c9.3,20,32.9,21,43.88,20.23a3.06,3.06,0,0,0,2.23-4.89c-11.28-15.24-8.93-32.41-5.93-42.5a3,3,0,0,1,5.72-.35c8.53,20.11,32,11.92,40.17,8.32a3.07,3.07,0,0,0,1.55-4.09c-11.78-25.93.19-41.75,6.81-48a3.06,3.06,0,0,1,5,1.23c3.62,10,11.44,15.91,16.67,18.88a3.05,3.05,0,0,0,4.58-2.78c-1.84-34.29,34.48-53.24,42.6-57A3,3,0,0,1,256.2,74.07Z"/><rect class="cls-7" x="156.34" y="170.45" width="29.99" height="45.38"/><path class="cls-7" d="M363.2,219.15v157.2h-214V219.15l101.09-54.68a12.66,12.66,0,0,1,11.84,0Z"/><path class="cls-8" d="M363.2,230v27.44L263,200a13.65,13.65,0,0,0-13.63,0L149.19,257.46V230l101.09-58a12.09,12.09,0,0,1,4.37-1.47,13.31,13.31,0,0,1,3.09,0l.57.1a8.62,8.62,0,0,1,1.12.25,12.15,12.15,0,0,1,2.69,1.12Z"/><path class="cls-9" d="M391.57,239.6A11.89,11.89,0,0,1,375.34,244l-12.14-7L263,179.53a13.65,13.65,0,0,0-13.63,0L149.19,237l-12.14,7a11.89,11.89,0,0,1-11.84-20.63l24-13.77,101.09-58a12,12,0,0,1,11.84,0l101.08,58,24,13.77A11.9,11.9,0,0,1,391.57,239.6Z"/><rect class="cls-10" x="149.19" y="356.98" width="13.87" height="19.38"/><rect class="cls-10" x="149.19" y="319.55" width="13.87" height="19.38"/><rect class="cls-10" x="149.19" y="282.12" width="13.87" height="19.38"/><rect class="cls-10" x="349.55" y="356.98" width="13.87" height="19.38"/><rect class="cls-10" x="349.55" y="319.55" width="13.87" height="19.38"/><rect class="cls-10" x="349.55" y="282.12" width="13.87" height="19.38"/><path class="cls-9" d="M235.83,279.47h40.73a4.29,4.29,0,0,1,4.29,4.29v92.58a0,0,0,0,1,0,0H231.54a0,0,0,0,1,0,0V283.77A4.29,4.29,0,0,1,235.83,279.47Z"/><path class="cls-11" d="M244.75,279.48a4.29,4.29,0,0,0-4.3,4.29v92.58h-8.91V283.77a4.29,4.29,0,0,1,4.29-4.29Z"/><rect class="cls-9" x="169.23" y="279.47" width="46.68" height="50.64" rx="5.06"/><rect class="cls-9" x="293.41" y="279.47" width="46.68" height="50.64" rx="5.06"/><rect class="cls-10" x="146.56" y="155.73" width="49.54" height="14.72" rx="4.06"/><path class="cls-9" d="M256.2,207.91a23.33,23.33,0,1,0,23.32,23.32A23.32,23.32,0,0,0,256.2,207.91Zm0,39.08a15.75,15.75,0,1,1,15.74-15.76A15.76,15.76,0,0,1,256.2,247Z"/><rect class="cls-8" x="141.4" y="375.44" width="229.11" height="15.07" rx="3.56"/><circle class="cls-3" cx="327.47" cy="303.86" r="6.49"/><circle class="cls-3" cx="327.47" cy="290.33" r="4.6"/><path class="cls-5" d="M162.46,300.37a29.74,29.74,0,0,0,59.48,0c0-16.42-29.74-56.45-29.74-56.45S162.46,284,162.46,300.37Z"/><path class="cls-3" d="M173,310.91a19.2,19.2,0,0,0,38.4,0c0-10.6-19.2-36.45-19.2-36.45S173,300.31,173,310.91Z"/><path class="cls-5" d="M340.35,375.07a18.72,18.72,0,0,0,37.44,0c0-10.34-18.72-35.53-18.72-35.53S340.35,364.73,340.35,375.07Z"/><path class="cls-3" d="M347,381.7a12.08,12.08,0,1,0,24.16,0c0-6.67-12.08-22.93-12.08-22.93S347,375,347,381.7Z"/><path class="cls-5" d="M239.88,351.14a39.65,39.65,0,1,0,79.29,0c0-21.89-39.65-75.25-39.65-75.25S239.88,329.25,239.88,351.14Z"/><path class="cls-12" d="M253.93,365.19a25.6,25.6,0,1,0,51.19,0c0-14.13-25.6-48.58-25.6-48.58S253.93,351.06,253.93,365.19Z"/><path class="cls-5" d="M202.45,375.07a18.72,18.72,0,1,0,37.43,0c0-10.34-18.72-35.53-18.72-35.53S202.45,364.73,202.45,375.07Z"/><path class="cls-3" d="M209.08,381.7a12.09,12.09,0,1,0,24.17,0c0-6.67-12.09-22.93-12.09-22.93S209.08,375,209.08,381.7Z"/><path class="cls-5" d="M168.54,381.21a12.58,12.58,0,1,0,25.16,0c0-6.95-12.58-23.89-12.58-23.89S168.54,374.26,168.54,381.21Z"/><path class="cls-3" d="M173,385.66a8.13,8.13,0,1,0,16.25,0c0-4.48-8.13-15.41-8.13-15.41S173,381.18,173,385.66Z"/></g></svg>